<?xml version="1.0" encoding="utf-8"?>
<!-- Generator: Adobe Illustrator 16.0.0, SVG Export Plug-In . SVG Version: 6.00 Build 0)  -->
<!DOCTYPE svg PUBLIC "-//W3C//DTD SVG 1.1//EN" "http://www.w3.org/Graphics/SVG/1.1/DTD/svg11.dtd">
<svg version="1.1" id="Layer_1" xmlns="http://www.w3.org/2000/svg" xmlns:xlink="http://www.w3.org/1999/xlink" x="0px" y="0px"
	 width="322.055px" height="83.707px" viewBox="0 0 322.055 83.707" enable-background="new 0 0 322.055 83.707"
	 xml:space="preserve">
<path d="M58.097,21.313c0.027-0.118,0.092-0.25,0.196-0.388c0.117-0.131,0.249-0.262,0.392-0.38
	c0.158-0.112,0.328-0.211,0.499-0.276c0.183-0.073,0.353-0.112,0.511-0.112l7.55-0.017c0.328-0.001,0.617,0.11,0.853,0.312
	c0.25,0.202,0.42,0.386,0.526,0.542l0.751,1.683l15.57,39.881c0.146,0.393,0.12,0.708-0.09,0.97
	c-0.221,0.237-0.587,0.369-1.125,0.37l-8.456,0.02c-0.458,0-0.799-0.09-1.049-0.26c-0.25-0.156-0.447-0.445-0.579-0.838
	c-0.396-1.001-0.777-1.99-1.146-2.986c-0.382-0.994-0.752-1.99-1.135-2.985L55.7,56.882c-0.364,0.996-0.742,1.994-1.12,2.99
	c-0.378,0.998-0.756,1.988-1.135,2.992c-0.247,0.734-0.745,1.104-1.491,1.104l-8.69,0.02c-0.38,0.002-0.696-0.104-0.945-0.299
	c-0.237-0.195-0.291-0.484-0.133-0.891L58.097,21.313z M63.5,33.925c-0.378,1.003-0.742,2.078-1.133,3.24
	c-0.377,1.162-0.742,2.334-1.12,3.51c-0.377,1.18-0.755,2.348-1.132,3.496c-0.377,1.154-0.755,2.229-1.12,3.233l9.058-0.021
	L63.5,33.925z"/>
<path d="M87.239,21.458c-0.001-0.414,0.103-0.748,0.312-0.991c0.222-0.243,0.549-0.375,0.969-0.375l19.06-0.043
	c2.02-0.004,3.921,0.372,5.692,1.127c1.771,0.756,3.307,1.775,4.634,3.07c1.327,1.295,2.353,2.813,3.117,4.549
	c0.764,1.735,1.135,3.589,1.139,5.555c0.003,1.337-0.164,2.608-0.514,3.821c-0.379,1.209-0.874,2.344-1.527,3.393
	c-0.641,1.059-1.411,2.003-2.314,2.863c-0.889,0.859-1.857,1.59-2.931,2.209l7.623,14.246c0.144,0.273,0.314,0.602,0.539,0.975
	c0.21,0.379,0.316,0.693,0.317,0.969c0,0.314-0.104,0.564-0.299,0.723c-0.21,0.17-0.499,0.263-0.852,0.264l-10.107,0.021
	c-0.328,0.002-0.643-0.103-0.905-0.299c-0.262-0.195-0.434-0.457-0.513-0.798l-7.187-13.459l-4.786,0.011l0.03,13.293
	c0.001,0.853-0.442,1.285-1.348,1.287l-8.769,0.021c-0.381,0-0.695-0.103-0.932-0.312s-0.355-0.523-0.356-0.97L87.239,21.458z
	 M110.353,34.494c-0.001-0.589-0.121-1.179-0.332-1.768c-0.21-0.589-0.514-1.127-0.921-1.618c-0.395-0.497-0.866-0.901-1.418-1.235
	c-0.551-0.333-1.156-0.548-1.824-0.645c-0.55-0.038-1.075-0.076-1.546-0.101c-0.486-0.032-1.011-0.043-1.573-0.042l-4.078,0.01
	l0.024,10.82l5.428-0.013c0.354,0,0.668-0.008,0.943-0.028c0.275-0.026,0.59-0.054,0.917-0.094c0.681-0.08,1.298-0.279,1.861-0.607
	c0.549-0.327,0.994-0.729,1.374-1.215c0.378-0.479,0.652-1.018,0.848-1.621C110.25,35.74,110.354,35.123,110.353,34.494z"/>
<path d="M130.182,21.301c0.025-0.354,0.169-0.655,0.392-0.918c0.249-0.255,0.576-0.388,1.008-0.389l10.199-0.022
	c0.734-0.002,1.208,0.377,1.432,1.124l8.07,26.75l8.016-26.786c0.284-0.748,0.769-1.129,1.503-1.13l10.08-0.023
	c0.367,0,0.683,0.129,0.958,0.371c0.29,0.242,0.46,0.556,0.488,0.93c0.711,6.914,1.436,13.782,2.156,20.588
	c0.736,6.81,1.459,13.676,2.156,20.582v0.158c0.002,0.76-0.429,1.154-1.295,1.156l-8.337,0.02c-0.918,0.002-1.377-0.442-1.42-1.309
	l-2.618-22.777l-6.583,22.955c-0.037,0.185-0.182,0.42-0.417,0.709c-0.263,0.263-0.497,0.408-0.733,0.408l-7.747,0.018
	c-0.25,0-0.485-0.131-0.761-0.393c-0.264-0.273-0.408-0.51-0.422-0.72l-6.684-22.864l-2.519,22.729
	c-0.038,0.865-0.521,1.312-1.438,1.314L127.33,63.8c-0.864,0.002-1.273-0.441-1.275-1.307L130.182,21.301z"/>
<path d="M177.799,41.833c-0.005-2.09,0.253-4.084,0.786-6.004c0.521-1.916,1.276-3.713,2.256-5.4
	c0.979-1.68,2.155-3.209,3.517-4.596c1.36-1.379,2.877-2.556,4.555-3.53c1.663-0.974,3.456-1.738,5.382-2.286
	c1.899-0.542,3.918-0.815,5.989-0.82c2.07-0.005,4.064,0.26,6.005,0.792c1.929,0.54,3.728,1.296,5.405,2.262
	c1.668,0.967,3.205,2.136,4.57,3.509c1.379,1.38,2.562,2.905,3.535,4.58c0.977,1.682,1.753,3.477,2.294,5.39
	c0.542,1.918,0.81,3.911,0.813,6.001c0.005,2.084-0.254,4.078-0.786,6c-0.533,1.915-1.304,3.706-2.269,5.373
	c-0.968,1.661-2.145,3.177-3.518,4.543c-1.361,1.373-2.891,2.55-4.555,3.537c-1.676,0.987-3.469,1.751-5.396,2.28
	c-1.938,0.529-3.93,0.808-6.001,0.812c-2.07,0.004-4.091-0.266-5.992-0.785c-1.929-0.521-3.726-1.277-5.393-2.257
	c-1.682-0.979-3.205-2.149-4.57-3.517c-1.365-1.359-2.55-2.87-3.535-4.526c-0.988-1.663-1.752-3.45-2.281-5.362
	C178.07,45.91,177.805,43.917,177.799,41.833z M189.217,41.775c0.004,1.633,0.282,3.152,0.822,4.574
	c0.566,1.408,1.33,2.638,2.314,3.686c1,1.059,2.182,1.875,3.533,2.469c1.364,0.601,2.859,0.897,4.473,0.895
	c1.638-0.004,3.133-0.309,4.492-0.915c1.362-0.601,2.541-1.421,3.535-2.485c0.979-1.051,1.752-2.285,2.297-3.694
	c0.549-1.425,0.82-2.945,0.816-4.578c-0.003-1.606-0.282-3.126-0.836-4.554c-0.555-1.42-1.329-2.664-2.316-3.725
	c-0.998-1.06-2.179-1.89-3.543-2.502c-1.365-0.6-2.861-0.904-4.498-0.9c-1.613,0.003-3.107,0.314-4.468,0.921
	c-1.35,0.619-2.528,1.454-3.522,2.518c-0.979,1.064-1.737,2.311-2.297,3.734C189.486,38.648,189.214,40.169,189.217,41.775z"/>
<path d="M226.189,21.085c-0.002-0.354,0.117-0.655,0.326-0.918c0.223-0.255,0.549-0.388,0.98-0.388l9.636-0.016
	c0.274,0,0.563,0.065,0.865,0.202c0.289,0.137,0.551,0.378,0.762,0.706c2.501,4.025,4.987,7.991,7.447,11.898
	c2.474,3.901,4.974,7.867,7.498,11.894l-0.054-23.616c0.078-0.361,0.233-0.63,0.471-0.826c0.234-0.198,0.51-0.297,0.824-0.298
	l8.402-0.019c0.406-0.001,0.748,0.11,1.037,0.339c0.275,0.222,0.406,0.543,0.408,0.956l0.093,41.337
	c0.001,0.395-0.103,0.683-0.338,0.867c-0.249,0.184-0.563,0.289-0.983,0.291l-9.397,0.021c-0.263,0-0.485-0.104-0.696-0.274
	c-0.183-0.169-0.394-0.404-0.603-0.705c-2.634-4.313-5.238-8.582-7.79-12.804c-2.564-4.222-5.172-8.496-7.814-12.81l0.055,25.318
	c0.002,0.446-0.103,0.762-0.284,0.971c-0.209,0.238-0.55,0.343-1.075,0.344l-8.363,0.02c-0.459,0-0.785-0.129-0.982-0.365
	c-0.211-0.262-0.329-0.549-0.332-0.918L226.189,21.085z"/>
<path d="M269.802,20.987c-0.002-0.354,0.104-0.655,0.312-0.918c0.235-0.256,0.55-0.382,0.981-0.383l8.666-0.02
	c0.301,0,0.615,0.117,0.943,0.353c0.342,0.235,0.499,0.549,0.501,0.942l0.092,41.181c0.002,0.865-0.469,1.312-1.438,1.314
	l-8.664,0.02c-0.865,0.001-1.299-0.441-1.301-1.309L269.802,20.987z"/>
<path d="M321.007,22.76c0.355,0.189,0.592,0.451,0.749,0.765c0.16,0.308,0.121,0.688-0.089,1.114l-4.966,7.09
	c-0.208,0.335-0.444,0.525-0.692,0.579c-0.249,0.046-0.551-0.038-0.905-0.254c-0.957-0.718-2.021-1.279-3.188-1.671
	c-1.155-0.39-2.375-0.583-3.672-0.581c-1.627,0.004-3.107,0.314-4.455,0.92c-1.35,0.619-2.525,1.454-3.495,2.52
	c-0.994,1.063-1.751,2.303-2.297,3.721c-0.548,1.41-0.821,2.932-0.815,4.543c0.004,1.605,0.281,3.113,0.836,4.521
	c0.553,1.408,1.314,2.632,2.314,3.679c0.973,1.053,2.152,1.883,3.505,2.483c1.353,0.606,2.834,0.903,4.46,0.901
	c1.298-0.004,2.529-0.203,3.708-0.612c1.179-0.396,2.239-0.968,3.208-1.698c0.354-0.21,0.655-0.303,0.892-0.264
	c0.235,0.039,0.472,0.208,0.709,0.529l5.05,7.236c0.224,0.432,0.251,0.799,0.095,1.088c-0.157,0.303-0.406,0.545-0.732,0.742
	c-1.847,1.244-3.836,2.211-5.971,2.896c-2.136,0.675-4.377,1.021-6.734,1.025c-2.085,0.004-4.079-0.266-6.007-0.785
	c-1.914-0.521-3.699-1.276-5.379-2.256c-1.668-0.979-3.205-2.148-4.558-3.516c-1.366-1.361-2.552-2.872-3.537-4.527
	c-0.987-1.662-1.735-3.449-2.278-5.363c-0.543-1.918-0.811-3.91-0.814-5.996c-0.006-2.09,0.255-4.084,0.787-6.004
	c0.533-1.916,1.275-3.713,2.255-5.399c0.979-1.68,2.155-3.21,3.518-4.596c1.347-1.38,2.878-2.556,4.54-3.53
	c1.676-0.974,3.457-1.739,5.369-2.287c1.925-0.542,3.918-0.814,6.003-0.819c2.358-0.005,4.587,0.317,6.687,0.975
	C317.189,20.579,319.157,21.526,321.007,22.76z"/>
<g enable-background="new    ">
	<path d="M46.37,68.906l-4.096,0.009l-0.002-0.75l9.066-0.02l0.002,0.75l-4.096,0.009l0.023,10.172l-0.875,0.002L46.37,68.906z"/>
	<path d="M55.559,68.121l0.011,4.656c0.645-1.111,1.761-1.535,2.878-1.554c2.234-0.004,3.354,1.384,3.359,3.399l0.01,4.422
		l-0.777,0.002l-0.01-4.422c-0.003-1.594-0.783-2.67-2.58-2.667c-1.684,0.004-2.847,1.257-2.843,2.866l0.01,4.234l-0.793,0.001
		l-0.025-10.938L55.559,68.121z"/>
	<path d="M65.381,75.177c-0.005-2.312,1.804-3.988,4.054-3.992c2.25-0.005,4.262,1.318,3.961,4.335l-7.205,0.016
		c0.166,1.812,1.609,2.855,3.26,2.853c1.053-0.003,2.282-0.411,2.879-1.179l0.568,0.437c-0.775,0.986-2.166,1.489-3.445,1.492
		C67.204,79.142,65.386,77.63,65.381,75.177z M72.682,74.85c-0.021-1.906-1.318-2.967-3.245-2.962
		c-1.651,0.003-3.073,1.084-3.247,2.976L72.682,74.85z"/>
	<path d="M84.582,71.278l0.003,1.375c0.613-1.064,1.729-1.504,2.846-1.522c2.137-0.004,3.613,1.259,3.618,3.399l0.01,4.453
		l-0.793,0.001l-0.01-4.438c-0.004-1.75-1.123-2.685-2.855-2.666c-1.651,0.02-2.798,1.226-2.794,2.819l0.01,4.297l-0.793,0.001
		l-0.018-7.719L84.582,71.278z"/>
	<path d="M94.624,75.116c-0.005-2.312,1.804-3.988,4.054-3.993c2.25-0.005,4.262,1.319,3.961,4.335l-7.205,0.016
		c0.166,1.812,1.609,2.856,3.26,2.853c1.053-0.002,2.282-0.411,2.879-1.178l0.568,0.436c-0.775,0.986-2.166,1.489-3.445,1.492
		C96.446,79.081,94.629,77.569,94.624,75.116z M101.925,74.788c-0.021-1.906-1.318-2.966-3.245-2.962
		c-1.651,0.004-3.073,1.085-3.247,2.976L101.925,74.788z"/>
	<path d="M109.302,74.381l2.373-3.161l0.955-0.002v0.031l-2.857,3.693l3.102,3.962v0.031l-0.939,0.002l-2.63-3.447l-2.615,3.459
		l-0.939,0.002V78.92l3.083-3.976l-2.874-3.682v-0.031l0.955-0.002L109.302,74.381z"/>
	<path d="M118.125,68.878l0.005,2.328l2.72-0.006l0.001,0.641l-2.72,0.006l0.011,4.703c0.002,1.047,0.23,1.78,1.477,1.777
		c0.389,0,0.826-0.126,1.23-0.314l0.277,0.624c-0.501,0.235-1.003,0.393-1.505,0.394c-1.7,0.004-2.252-0.964-2.256-2.479
		l-0.011-4.703l-1.7,0.004l-0.001-0.641l1.7-0.004l-0.005-2.25L118.125,68.878z"/>
	<path d="M136.535,72.574c-0.812-0.687-1.605-0.81-2.496-0.808c-1.247-0.013-2.443,0.442-2.409,1.427
		c0.035,1.031,1.428,1.231,2.432,1.401c1.425,0.231,3.384,0.462,3.308,2.259c-0.045,1.703-1.874,2.16-3.282,2.163
		c-1.409,0.003-2.802-0.51-3.501-1.539l0.582-0.502c0.666,0.921,1.865,1.309,2.933,1.307c0.971-0.002,2.444-0.255,2.49-1.475
		c0.03-1.109-1.298-1.325-2.61-1.525c-1.555-0.246-3.093-0.524-3.113-2.071c-0.02-1.516,1.549-2.175,3.168-2.163
		c1.166-0.003,2.187,0.308,2.981,1.025L136.535,72.574z"/>
	<path d="M142.9,68.826l0.005,2.328l2.72-0.006l0.001,0.641l-2.72,0.006l0.011,4.703c0.002,1.047,0.23,1.78,1.477,1.778
		c0.389-0.001,0.826-0.127,1.23-0.315l0.277,0.624c-0.501,0.235-1.003,0.393-1.505,0.395c-1.7,0.003-2.252-0.965-2.256-2.48
		l-0.011-4.703l-1.7,0.004l-0.001-0.641l1.7-0.004l-0.005-2.25L142.9,68.826z"/>
	<path d="M157.101,71.124c0.006,2.578,0.012,5.141,0.018,7.719l-0.793,0.002l-0.004-1.641c-0.774,1.204-1.971,1.77-3.266,1.772
		c-2.234,0.005-4.068-1.616-4.073-3.976s1.821-3.957,4.055-3.962c1.295-0.003,2.607,0.572,3.274,1.774l-0.004-1.688L157.101,71.124z
		 M149.776,74.999c0.004,1.938,1.464,3.231,3.278,3.228c4.452-0.01,4.438-6.463-0.015-6.453
		C151.226,71.777,149.771,73.061,149.776,74.999z"/>
	<path d="M162.692,68.784l0.006,2.328l2.72-0.006l0.002,0.641l-2.721,0.006l0.011,4.703c0.002,1.047,0.23,1.78,1.478,1.777
		c0.389,0,0.825-0.126,1.229-0.314l0.276,0.624c-0.501,0.235-1.003,0.393-1.505,0.394c-1.699,0.004-2.252-0.964-2.256-2.479
		l-0.011-4.703l-1.7,0.004l-0.001-0.641l1.7-0.004l-0.005-2.25L162.692,68.784z"/>
	<path d="M170.25,68.58c0.002,0.812-1.277,0.815-1.279,0.003S170.248,67.767,170.25,68.58z M169.203,71.067l0.018,7.75l0.793-0.002
		l-0.018-7.75L169.203,71.067z"/>
	<path d="M180.791,77.713c-0.808,0.783-1.858,1.16-2.911,1.163c-2.25,0.005-4.115-1.491-4.121-3.929s1.788-3.941,4.104-3.946
		c1.052-0.003,2.105,0.386,2.917,1.149l-0.518,0.485c-0.648-0.623-1.54-0.918-2.398-0.916c-1.812,0.004-3.332,1.147-3.327,3.226
		s1.529,3.216,3.343,3.212c0.857-0.002,1.73-0.332,2.377-0.958L180.791,77.713z"/>
	<path d="M196.25,72.447c-0.811-0.687-1.604-0.81-2.495-0.808c-1.247-0.013-2.444,0.442-2.408,1.427
		c0.034,1.031,1.427,1.231,2.431,1.401c1.426,0.231,3.385,0.462,3.308,2.259c-0.044,1.703-1.873,2.16-3.281,2.163
		s-2.802-0.51-3.5-1.539l0.582-0.502c0.666,0.921,1.864,1.309,2.933,1.307c0.972-0.002,2.444-0.255,2.49-1.474
		c0.03-1.109-1.299-1.326-2.61-1.526c-1.555-0.246-3.094-0.524-3.113-2.071c-0.02-1.516,1.55-2.175,3.169-2.163
		c1.165-0.002,2.186,0.308,2.98,1.025L196.25,72.447z"/>
	<path d="M201.838,68.513c0.002,0.812-1.276,0.814-1.278,0.002S201.836,67.701,201.838,68.513z M200.792,71l0.018,7.75l0.793-0.002
		l-0.018-7.75L200.792,71z"/>
	<path d="M207.633,68.688l0.005,2.328l2.72-0.006l0.002,0.641l-2.721,0.006l0.011,4.703c0.003,1.047,0.231,1.78,1.479,1.778
		c0.389-0.001,0.824-0.127,1.229-0.315l0.275,0.624c-0.5,0.236-1.002,0.394-1.504,0.395c-1.7,0.003-2.253-0.964-2.257-2.479
		l-0.011-4.703l-1.699,0.003l-0.001-0.641l1.699-0.003l-0.005-2.25L207.633,68.688z"/>
	<path d="M213.698,74.863c-0.005-2.312,1.804-3.988,4.055-3.993c2.25-0.005,4.261,1.319,3.96,4.335l-7.204,0.016
		c0.165,1.812,1.609,2.855,3.261,2.853c1.052-0.002,2.281-0.411,2.879-1.178l0.567,0.436c-0.775,0.986-2.167,1.489-3.445,1.492
		C215.52,78.828,213.704,77.316,213.698,74.863z M220.998,74.535c-0.02-1.906-1.317-2.966-3.244-2.962
		c-1.651,0.003-3.073,1.085-3.247,2.976L220.998,74.535z"/>
	<path d="M238.548,70.638l0.52,0.437l-0.775,0.876c0.568,0.593,0.991,1.373,0.993,2.623c0.004,1.344-0.818,2.705-2.146,3.286
		c1.41,0.481,2.188,1.433,2.192,2.761c0.004,2.078-1.677,3.082-3.797,3.086c-2.121,0.005-3.792-1.116-3.796-3.069l0.794-0.002
		c0.003,1.578,1.396,2.325,3,2.321c1.603-0.003,3.025-0.693,3.022-2.334c-0.004-1.656-1.544-2.31-3.033-2.307
		c-2.315,0.005-3.761-1.664-3.766-3.727c-0.005-2.406,1.677-3.769,3.749-3.773c0.81-0.001,1.651,0.278,2.268,0.698L238.548,70.638z
		 M232.551,74.588c0.004,1.594,1.14,2.966,2.97,2.962c1.651-0.003,2.992-1.381,2.988-2.975c-0.004-1.953-1.351-2.997-3.002-2.994
		C233.871,71.585,232.547,72.573,232.551,74.588z"/>
	<path d="M242.424,74.801c-0.005-2.312,1.804-3.988,4.055-3.993c2.25-0.004,4.261,1.319,3.96,4.336l-7.204,0.015
		c0.165,1.812,1.609,2.856,3.261,2.853c1.052-0.002,2.281-0.411,2.879-1.178l0.567,0.437c-0.775,0.986-2.167,1.489-3.445,1.491
		C244.245,78.766,242.43,77.254,242.424,74.801z M249.724,74.473c-0.02-1.906-1.317-2.966-3.244-2.962
		c-1.651,0.004-3.073,1.085-3.247,2.976L249.724,74.473z"/>
	<path d="M255.216,70.915l0.003,1.375c0.613-1.063,1.729-1.503,2.846-1.521c2.138-0.004,3.613,1.258,3.618,3.398l0.01,4.453
		l-0.793,0.002l-0.01-4.438c-0.004-1.75-1.124-2.685-2.856-2.666c-1.651,0.02-2.798,1.225-2.794,2.818l0.01,4.297l-0.793,0.002
		l-0.018-7.719L255.216,70.915z"/>
	<path d="M265.258,74.753c-0.005-2.312,1.804-3.988,4.055-3.993c2.25-0.005,4.261,1.318,3.96,4.335l-7.204,0.016
		c0.165,1.812,1.609,2.855,3.261,2.853c1.052-0.003,2.281-0.411,2.879-1.179l0.567,0.437c-0.775,0.986-2.167,1.489-3.445,1.492
		C267.079,78.718,265.264,77.207,265.258,74.753z M272.558,74.425c-0.02-1.906-1.317-2.966-3.244-2.962
		c-1.651,0.003-3.073,1.084-3.247,2.976L272.558,74.425z"/>
	<path d="M278.018,70.867l0.036,1.375c0.499-1.048,1.632-1.457,2.651-1.459c0.6-0.017,1.183,0.138,1.718,0.449l-0.355,0.626
		c-0.421-0.249-0.892-0.357-1.36-0.356c-1.489,0.019-2.637,1.178-2.633,2.584l0.01,4.5l-0.793,0.001l-0.018-7.719L278.018,70.867z"
		/>
	<path d="M293.265,70.834c0.006,2.578,0.012,5.141,0.018,7.719l-0.793,0.001l-0.004-1.641c-0.774,1.205-1.971,1.771-3.267,1.772
		c-2.233,0.005-4.066-1.616-4.072-3.976c-0.005-2.359,1.821-3.957,4.055-3.962c1.296-0.002,2.607,0.573,3.274,1.774l-0.004-1.688
		L293.265,70.834z M285.94,74.709c0.005,1.938,1.465,3.23,3.277,3.227c4.452-0.009,4.437-6.462-0.015-6.453
		C287.391,71.487,285.936,72.772,285.94,74.709z"/>
	<path d="M298.856,68.494l0.005,2.328l2.72-0.005l0.001,0.641l-2.719,0.005l0.01,4.703c0.003,1.047,0.231,1.781,1.479,1.778
		c0.389-0.001,0.824-0.127,1.229-0.314l0.276,0.624c-0.501,0.235-1.003,0.393-1.505,0.394c-1.7,0.004-2.253-0.964-2.257-2.479
		l-0.01-4.703l-1.699,0.004l-0.002-0.641l1.699-0.004l-0.005-2.25L298.856,68.494z"/>
	<path d="M305.004,74.684c-0.006-2.453,1.804-4.02,4.055-4.024c2.25-0.005,4.066,1.554,4.072,4.007s-1.805,3.957-4.055,3.962
		C306.825,78.633,305.01,77.137,305.004,74.684z M312.354,74.668c-0.005-2-1.481-3.294-3.294-3.29
		c-1.813,0.004-3.284,1.304-3.279,3.304s1.481,3.2,3.295,3.196C310.888,77.875,312.358,76.668,312.354,74.668z"/>
	<path d="M317.649,70.783l0.036,1.375c0.499-1.049,1.632-1.457,2.651-1.459c0.6-0.018,1.183,0.138,1.718,0.449l-0.355,0.626
		c-0.421-0.249-0.891-0.357-1.361-0.356c-1.488,0.019-2.636,1.177-2.632,2.583l0.01,4.5l-0.793,0.002l-0.018-7.719L317.649,70.783z"
		/>
</g>
<polygon fill="#010101" points="16.521,5.998 0,50.479 9.598,46 10.053,79.191 28.1,30.648 17.545,35.595 "/>
<polygon fill="#FFDE17" points="39.815,0 24.711,39.314 32.869,35.475 33.353,69.662 51.553,20.102 40.829,25.206 "/>
<polygon points="39.815,0 24.711,39.314 32.869,35.475 33.353,69.662 51.553,20.102 40.829,25.206 "/>
</svg>
