<?xml version="1.0" encoding="UTF-8" standalone="no"?>
<!-- Created with Inkscape (http://www.inkscape.org/) -->
<svg id="svg3593" xmlns:rdf="http://www.w3.org/1999/02/22-rdf-syntax-ns#" xmlns="http://www.w3.org/2000/svg" height="390" width="960" version="1.1" xmlns:cc="http://creativecommons.org/ns#" xmlns:dc="http://purl.org/dc/elements/1.1/">
 <defs id="defs3595">
  <clipPath id="clipPath3405" clipPathUnits="userSpaceOnUse">
   <path id="path3407" d="m0,0.13,770,0,0,440-770,0v-440z"/>
  </clipPath>
 </defs>
 <metadata id="metadata3598">
  <rdf:RDF>
   <cc:Work rdf:about="">
    <dc:format>image/svg+xml</dc:format>
    <dc:type rdf:resource="http://purl.org/dc/dcmitype/StillImage"/>
    <dc:title/>
   </cc:Work>
  </rdf:RDF>
 </metadata>
 <g id="layer1" transform="translate(914.28571,148.41477)">
  <g id="g3401" transform="matrix(1.25,0,0,-1.25,-914.28571,241.86806)">
   <g id="g3403" clip-path="url(#clipPath3405)">
    <g id="g3409" transform="translate(-42.408,-112.1901)">
     <path id="path3411" d="m0,0s-1,2.2-2.5,4.9-3.1,5.1-3.6,12c-0.42,7.3-1,13-1,13s2.5-3.8,4.5-9.2c2-5,3.5-11,3.3-14-0.21-2.6-0.73-3.9-0.84-4.9-0.11-0.9,0.11-2.6,0.11-2.6m-7.4,42c-0.32-4.1-0.32-5.6-0.32-5.6s-0.32,4.1-1.4,8.3c-1,4.2-2.7,8.8-2.7,8.8v6.1s0.63-4.8,2.7-9,2-4.5,1.7-8.6m-3.5,44c-0.2-3.8-0.48-7.8-0.83-11,0,0-0.49,5.2-1.3,11,0.74-0.029,1.5-0.038,2.2-0.043m91,270c-0.58,0.84-0.93,1.6-1.2,2.7-0.31,1.2-1.7,0.89-2.4,1.3-0.76,0.45-0.71,2-0.62,3.2,0.087,1.2-0.18,2-1.3,2.5-1.1,0.49-1.8-0.09-2.4-0.67-0.57-0.58-0.97-1-0.97-1s-0.36,1.3-0.14,2.6,0.44,2.9,0.44,2.9,0.17,1.3,0.4,2.5c0.22,1.2,0.31,2.8,0.62,4.2s0.27,2.9,0.22,3.6c-0.049,0.71-0.45,1.1-1,1.2-0.58,0.087-1.1-0.94-1.1-0.94s-1.2-1.2-1.6-2.9c-0.44-1.7-0.44-2.6-0.62-3.1-0.18-0.54-0.54-1.5-0.71-2.4-0.18-0.85-0.26-2.4-0.4-2.8s-0.67-3.1-1.1-4.1c-0.4-1-1.1-1.6-1.6-3.3-0.57-1.8-0.62-3.2-1.5-4.4-0.89-1.2-1.9-2-2.3-2.5-0.36-0.48-0.048-4.4,0.22-6.5s0.93-3.2,1-3.5c0.087-0.32,0.13-6.4-0.54-11-0.67-4.4-2.4-11-3.6-15-1.2-3.8-2.5-7-2.8-9.3-0.27-2.3-0.4-4.3-0.76-5.2-0.35-0.89-2.4-3.5-5-6.6-2.6-3.2-5.6-7.1-6.4-8-0.89-0.94-1.9-1.3-3.7-2.3-1.8-0.95-6.4-3.7-9.9-6.6s-7.3-6.3-7.3-6.3l-5.9,0.014c-0.075,0.16-0.14,0.3-0.22,0.34-0.47,0.32-0.51-0.097-0.51-0.097s0.012-0.1,0.034-0.24c-1.2,0.005-2.2,0.019-2.7,0.034-1.8,0.063-1.7,0.42-1.7,0.42s2.5,2.7,5,8,3.7,7.1,4.1,9.8c0.36,2.7,0.002,4-0.41,4.8-0.42,0.83-0.42,1.4-0.36,2.5,0.061,1.1,0.36,3.3,0.36,3.3s-0.061,0.77-0.36,1c-0.3,0.24-0.48,0.65-0.48,0.65l0.066,0.27,0.055,0.2s1.2,1,1.8,4.4c0.53,3.4-1.1,5.9-2.4,7.3s-2.4,2.1-2.4,2.1-2.1,3-3.7,4.7c-1.7,1.8-4.5,2.8-4.5,2.8s-4.5,2.5-5.8,3c-1.3,0.42-4.7,0.53-5.6,0.42-0.89-0.12-3.4-1-3.4-1s-1.5-0.6-2.3-0.89c-0.77-0.3-1.9-1.2-1.9-1.2l-1.5-1.6s-1.5-0.6-1.7-0.95c-0.24-0.36-0.6-1-0.6-1.2,0-0.24-0.65-1.2-0.65-1.2l-0.6-0.6c-0.11-0.35-0.36-1.1-0.42-1.4-0.055-0.3-0.29-1.4-0.41-1.7s-0.47-0.83-0.35-1.1c0.12-0.3,0.055-1.2-0.061-1.5s-0.54-1.4-0.59-1.7c-0.061-0.3-0.6-0.89-0.65-1.4-0.063-0.48-0.36-1.3-0.36-1.7,0-0.42-0.59-0.95-0.53-1.4,0.058-0.47,0.058-1.1,0-1.5-0.061-0.36-0.18-0.6-0.18-0.83,0-0.24,0.12-1.5,0.12-1.5l0.24-0.77s-1.1-1.7-1.8-3.1c-0.71-1.4-0.36-4-0.061-5,0.29-1.1-0.12-3.6-0.12-3.6s-1.3-8.4-0.95-14c0.48-7,0.78-9.9,0.78-9.9s-0.032-0.073-0.1-0.13c-0.13-0.082-0.41-0.12-0.97,0.37-0.89,0.78-3.2,3.2-5.9,5.5s-5.5,4-5.5,4-0.54,4-1.6,7.9c-1.1,4-4.2,8.4-4.2,8.4s0.06,3.5,0.95,8.2,0.82,13,1.1,21c0.24,7.9,0.83,15,1.9,18,1.1,2.9,2.2,5.3,3.5,7.1s1.4,4.8,1.6,7.6c0.24,2.8,0.24,3.6-0.063,4.9-0.3,1.2-0.35,2.8-0.41,3.8-0.058,1.1-1.2,2-1.2,2s-0.3,1.2-1.1,2.1c-0.82,0.89-1.5,1.1-1.5,0.54,0,0-0.89-0.36-1.1-1.5-0.18-1.2,0.12-3.3,0.12-3.3v-0.47s-1.4,2-2.3,2.9c-0.89,0.89-2.1,2.4-2.8,3.2-0.77,0.83-2.3,3.3-3.5,5.3s-1.9,3.4-2.7,4.4c-0.77,1-2,3.3-3,4.2-0.94,0.89-1.5,0.89-1.5,0.89s-0.77,0.89-1.3,0.54c-0.54-0.36-0.54-1.1-0.12-1.9,0,0,0.42-2.2,1.5-3.7,1.1-1.4,1.1-1.8,1.8-3.4,0.76-1.7,1.7-4,3-5.5,1.2-1.5,1.4-1.8,1.4-1.8s-0.83-0.71-1.2-1.3c-0.36-0.59-0.48-1.8-0.48-1.8s-1.5,0.06-2-0.3c-0.54-0.36-0.95-1.2-1.1-1.9-0.18-0.71-0.11-3-0.11-3s-1.4,0.17-2-0.12c-0.65-0.29-1.1-1.2-1.1-2.3,0-1,1.1-2.5,1.3-3.6,0.24-1.1,1.3-3.8,2.5-6s2.7-4.3,2.9-4.6c0.18-0.35-0.29-1.3-0.53-2-0.24-0.65-0.12-2.2-0.24-4.3s-1.8-11-3.1-16c-1.3-4.8-2.6-13-3-17-0.47-3.8-0.35-8.6-0.47-10-0.12-1.5,0.18-2.3,0.89-3.6,0,0,0.3-7.9,1.5-15s4.5-15,8.3-21c3.8-6.5,5.6-9.5,7.5-14,1.8-4.4,4-9.1,5.6-12-0.075-2.9-0.48-13-2.5-19-2.3-6.6-8.5-13-9.6-15-1.2-1.7-1.6-1.8-1.2-3.6,0.42-1.8,1.6-4.2,1.6-4.2l-3.8-3.8c-1.4-1.8-2-4.4-2.6-7.1-0.002,0.1-0.033,0.2-0.014,0.3,0,0-0.13,0.32-0.57-0.19s-0.76-2.4-1.2-3.4c-0.44-0.95-0.25-1.7-0.25-1.7s0.11-0.063,0.26-0.16c-0.84-1.7-1.7-3.5-2-6.6-0.42-4.8-2.5-20-2.6-34-0.11-14-1.3-33-1.3-33s-0.63-1.5,0-2.6c0.63-1.2,2-2,6.1-2.7,4.1-0.73,5.1,0.63,10,0.32,0.77-0.044,1.6-0.12,2.4-0.21,2-7.7,4.1-15,4.8-21,1.2-11,1.4-24,2.3-29,0.94-5.1,6.9-18,9.8-23,2.9-5.7,6.5-11,7.4-16,0.94-4.6,0.84-7,2.3-9s1.7-3.7,1.2-5.6c-0.52-1.9-0.1-4.1,0.21-5.6s-1.2-5-1.2-6.9,1-4,1-4,0.11-1.4,1.3-2.2c1.2-0.83,2-0.2,2-0.2s0.32-1.8,1.8-2c1.5-0.21,2.1,0.21,2.1,0.21s0.53-0.94,1.5-1c0.94-0.1,2.1,0.31,2.1,0.31s0.84-0.74,2.3-0.63c1.5,0.1,2,0.94,2,0.94s1.8-0.32,3.5,0.21c1.7,0.52,2.3,1.5,2.1,2.5-0.21,1.1-0.63,2-0.63,2l-0.21,3.1s1.4-1.1,2.1-1.8c0.73-0.74,1.2-2,2.6-2.5,1.5-0.53,3.5-0.53,4.2-0.32,0.73,0.21,1.5,0.93,1.5,0.93s1.4-0.62,2.7-0.1c1.4,0.53,1.3,1.6,1.3,1.6s0.74-0.32,1.7,0.21c0.94,0.52,1.3,1.6,1.3,1.6s0.1-0.32,0.95,0.42c0.84,0.74,0.42,1.6,0.42,1.6s0.1,0.42,0.42,1.2c0.32,0.73-1,1.8-1.4,2.3-0.32,0.52-1.2,2.6-3,4.4-1.9,1.8-7.4,6.7-9.9,10-2.4,3.7-2.5,6.2-2.4,7.6,0.1,1.5,0.21,4.1-0.32,5-0.52,0.94-0.63,3-0.21,5.1,0.43,2.1,2.3,7.8,3.7,17s-0.42,16-2,21c-1.6,5.3-2.4,11-1.9,16,0.4,3.4,1.9,10,3.4,20,1.2,0.33,2.2,0.63,3,0.71,2.4,0.21,6.8,1.6,7.3,2,0.52,0.42-0.52,1.7-0.1,3.6s1,9.1,0.63,21c-0.42,12-0.73,24-0.84,32-0.11,7.4-1.1,16-1.1,16s1.1,0.94,1.6,0.73c0.53-0.21,2.1-0.31,2.6-0.62,0.53-0.31-0.31,2-0.21,2.5,0.11,0.52,0.94,1.8,2.2,3.9s2,3.7,2.7,4.4c0.73,0.74,0.42,1.8-0.94,4.8s-3.8,7.3-3.8,7.3,0,6.1,1.7,13c1.7,7.3,3.6,17,4.3,21,0.73,4.1,1.9,10,2.3,12,0.47,1.6-0.13,4.4,0.082,5.2,0.21,0.83,1.8,2.8,2.3,3.3,0.35,0.35-1.2,1.4-2.7,2.4,0.53,4.5,1.2,8.3,2.8,12,3.5,7.6,8.9,12,14,19,5,6.8,9.2,14,11,18,2.1,3.9,5,6.8,5,6.8,1.4,2.4,0.84,3.9,1.3,7.4,0.42,3.5,1.7,6.8,2.5,18,0.83,11,1.1,15,1.4,16,0.27,0.98,0.84,1.9,2.4,3.5s2.3,3.9,2.8,5.2c0.49,1.3,1.3,4.4,1.4,5.4,0.092,1.1-0.58,1.2-1.2,2" fill-rule="nonzero" fill="#231f20"/>
    </g>
    <g id="g3413" transform="translate(480.8944,-140.6455)">
     <path id="path3415" d="m0,0s-1,2.2-2.5,4.9-3.1,5.1-3.6,12c-0.42,7.3-1,13-1,13s2.5-3.8,4.5-9.2c2-5,3.5-11,3.3-14-0.21-2.6-0.73-3.9-0.84-4.9-0.11-0.9,0.11-2.6,0.11-2.6m-7.4,42c-0.32-4.1-0.32-5.6-0.32-5.6s-0.32,4.1-1.4,8.3c-1,4.2-2.7,8.8-2.7,8.8v6.1s0.63-4.8,2.7-9,2-4.5,1.7-8.6m-3.5,44c-0.2-3.8-0.48-7.8-0.83-11,0,0-0.49,5.2-1.3,11,0.75-0.029,1.5-0.038,2.2-0.043m91,270c-0.58,0.84-0.93,1.6-1.2,2.7-0.31,1.2-1.7,0.89-2.4,1.3-0.76,0.44-0.71,2-0.62,3.2,0.087,1.2-0.18,2-1.3,2.5-1.1,0.48-1.8-0.092-2.4-0.67-0.57-0.58-0.97-1-0.97-1s-0.36,1.3-0.14,2.6,0.44,2.9,0.44,2.9,0.18,1.3,0.4,2.5,0.31,2.8,0.62,4.2,0.27,2.9,0.22,3.7c-0.049,0.71-0.45,1.1-1,1.2-0.58,0.087-1.1-0.94-1.1-0.94s-1.2-1.2-1.6-2.9c-0.44-1.7-0.44-2.6-0.62-3.1-0.18-0.53-0.54-1.5-0.71-2.4-0.18-0.85-0.26-2.4-0.4-2.8-0.14-0.41-0.67-3.1-1.1-4.1-0.4-1-1.1-1.6-1.6-3.3-0.57-1.8-0.62-3.2-1.5-4.4-0.89-1.2-1.9-2-2.3-2.5-0.36-0.48-0.049-4.4,0.22-6.5s0.93-3.2,1-3.5c0.087-0.32,0.13-6.4-0.54-11-0.67-4.4-2.4-11-3.6-15-1.2-3.8-2.5-7-2.8-9.3-0.27-2.3-0.4-4.3-0.76-5.2-0.35-0.89-2.4-3.5-5-6.6-2.6-3.2-5.6-7.1-6.4-8-0.89-0.94-1.9-1.3-3.7-2.3-1.8-0.95-6.4-3.7-9.9-6.6s-7.3-6.3-7.3-6.3l-5.9,0.014c-0.075,0.16-0.14,0.3-0.22,0.34-0.47,0.32-0.51-0.097-0.51-0.097s0.012-0.1,0.034-0.24c-1.2,0.005-2.2,0.019-2.7,0.034-1.8,0.063-1.7,0.42-1.7,0.42s2.5,2.7,5,8,3.7,7.1,4.1,9.8c0.36,2.7,0.003,4-0.41,4.8-0.42,0.83-0.42,1.4-0.36,2.5,0.061,1.1,0.36,3.3,0.36,3.3s-0.061,0.77-0.36,1c-0.3,0.24-0.48,0.65-0.48,0.65l0.065,0.27,0.056,0.2s1.2,1,1.8,4.4c0.53,3.4-1.1,5.9-2.4,7.3s-2.4,2.1-2.4,2.1-2.1,3-3.7,4.7c-1.7,1.8-4.5,2.8-4.5,2.8s-4.5,2.5-5.8,3c-1.3,0.42-4.7,0.53-5.6,0.42-0.89-0.12-3.4-1-3.4-1s-1.5-0.6-2.3-0.89c-0.77-0.3-1.9-1.2-1.9-1.2l-1.5-1.6s-1.5-0.6-1.7-0.95c-0.24-0.36-0.6-1-0.6-1.2,0-0.24-0.65-1.2-0.65-1.2l-0.6-0.6c-0.11-0.35-0.36-1.1-0.42-1.4-0.056-0.3-0.29-1.4-0.41-1.7s-0.47-0.83-0.35-1.1c0.12-0.3,0.055-1.2-0.061-1.5s-0.54-1.4-0.59-1.7c-0.061-0.3-0.6-0.89-0.65-1.4-0.063-0.47-0.36-1.3-0.36-1.7,0-0.42-0.59-0.95-0.53-1.4,0.058-0.47,0.058-1.1,0-1.5-0.061-0.36-0.18-0.6-0.18-0.83,0-0.24,0.12-1.5,0.12-1.5l0.24-0.77s-1.1-1.7-1.8-3.1c-0.71-1.4-0.36-4-0.06-5,0.29-1.1-0.12-3.6-0.12-3.6s-1.3-8.4-0.95-14c0.47-7,0.78-9.9,0.78-9.9s-0.032-0.073-0.1-0.13c-0.13-0.082-0.41-0.12-0.97,0.37-0.89,0.78-3.2,3.2-5.9,5.5s-5.5,4-5.5,4-0.54,4-1.6,7.9c-1.1,4-4.2,8.4-4.2,8.4s0.06,3.5,0.95,8.2,0.83,13,1.1,21c0.24,7.9,0.83,15,1.9,18,1.1,2.9,2.2,5.3,3.5,7.1s1.4,4.8,1.6,7.6c0.24,2.8,0.24,3.6-0.063,4.9-0.3,1.2-0.35,2.8-0.41,3.8-0.058,1.1-1.2,2-1.2,2s-0.3,1.2-1.1,2.1c-0.82,0.89-1.5,1.1-1.5,0.53,0,0-0.89-0.35-1.1-1.5-0.18-1.2,0.12-3.3,0.12-3.3v-0.47s-1.4,2-2.3,2.9c-0.89,0.89-2.1,2.4-2.8,3.2-0.77,0.83-2.3,3.3-3.5,5.3s-1.9,3.4-2.7,4.4c-0.77,1-2,3.3-3,4.2-0.94,0.89-1.5,0.89-1.5,0.89s-0.77,0.89-1.3,0.54c-0.54-0.36-0.54-1.1-0.12-1.9,0,0,0.42-2.2,1.5-3.7,1.1-1.4,1.1-1.8,1.8-3.4,0.76-1.7,1.7-4,3-5.5,1.2-1.5,1.4-1.8,1.4-1.8s-0.83-0.71-1.2-1.3c-0.36-0.59-0.48-1.8-0.48-1.8s-1.5,0.063-2-0.3c-0.54-0.35-0.95-1.2-1.1-1.9-0.18-0.72-0.11-3-0.11-3s-1.4,0.17-2-0.13c-0.65-0.29-1.1-1.2-1.1-2.3,0-1,1.1-2.5,1.3-3.6,0.24-1.1,1.3-3.8,2.5-6s2.7-4.3,2.9-4.6c0.18-0.35-0.29-1.3-0.53-2-0.24-0.65-0.12-2.3-0.24-4.3-0.12-2.1-1.8-11-3.1-16-1.3-4.8-2.6-13-3-17-0.47-3.8-0.35-8.6-0.47-10-0.12-1.5,0.18-2.3,0.89-3.6,0,0,0.3-7.9,1.5-15s4.5-15,8.3-21c3.8-6.5,5.6-9.5,7.5-14,1.8-4.4,4-9.1,5.6-12-0.075-2.9-0.48-13-2.5-19-2.3-6.6-8.5-13-9.6-15-1.2-1.7-1.6-1.8-1.2-3.6,0.42-1.8,1.6-4.2,1.6-4.2l-3.8-3.8c-1.4-1.8-2-4.4-2.6-7.1-0.002,0.1-0.034,0.2-0.014,0.3,0,0-0.13,0.32-0.57-0.19-0.45-0.51-0.76-2.4-1.2-3.4-0.44-0.95-0.25-1.7-0.25-1.7s0.11-0.063,0.26-0.16c-0.84-1.7-1.7-3.5-2-6.6-0.42-4.8-2.5-20-2.6-34-0.11-14-1.3-33-1.3-33s-0.63-1.5,0-2.6c0.63-1.2,2-2,6.1-2.7,4.1-0.73,5.1,0.63,10,0.32,0.77-0.044,1.6-0.12,2.4-0.21,2-7.7,4.1-15,4.8-21,1.2-11,1.4-24,2.3-29,0.94-5.1,6.9-18,9.8-23,2.9-5.7,6.5-11,7.4-16,0.94-4.6,0.84-7,2.3-9s1.7-3.7,1.2-5.6c-0.52-1.9-0.1-4.1,0.21-5.6s-1.2-5-1.2-6.9,1-4,1-4,0.11-1.4,1.3-2.2c1.2-0.83,2-0.2,2-0.2s0.32-1.8,1.8-2c1.5-0.21,2.1,0.21,2.1,0.21s0.53-0.94,1.5-1c0.94-0.1,2.1,0.31,2.1,0.31s0.84-0.74,2.3-0.63c1.5,0.1,2,0.94,2,0.94s1.8-0.32,3.5,0.21c1.7,0.52,2.3,1.5,2.1,2.5-0.21,1.1-0.63,2-0.63,2l-0.21,3.1s1.4-1.1,2.1-1.8c0.73-0.74,1.2-2,2.6-2.5,1.5-0.53,3.5-0.53,4.2-0.31,0.73,0.21,1.5,0.93,1.5,0.93s1.4-0.62,2.7-0.1c1.4,0.53,1.3,1.6,1.3,1.6s0.74-0.32,1.7,0.21c0.94,0.52,1.3,1.6,1.3,1.6s0.1-0.32,0.95,0.42c0.84,0.74,0.42,1.6,0.42,1.6s0.1,0.42,0.42,1.2c0.32,0.73-1,1.8-1.4,2.3-0.32,0.52-1.2,2.6-3,4.4-1.9,1.8-7.4,6.7-9.9,10-2.4,3.7-2.5,6.2-2.4,7.6,0.1,1.5,0.21,4.1-0.32,5-0.52,0.94-0.63,3-0.21,5.1,0.43,2.1,2.3,7.8,3.7,17s-0.42,16-2,21c-1.6,5.3-2.4,11-1.9,16,0.4,3.4,1.9,10,3.4,20,1.2,0.33,2.2,0.63,3,0.71,2.4,0.21,6.8,1.6,7.3,2,0.52,0.42-0.52,1.7-0.1,3.6s1,9.1,0.63,21c-0.42,12-0.73,24-0.84,32-0.11,7.4-1.1,16-1.1,16s1.1,0.94,1.6,0.73c0.52-0.21,2.1-0.31,2.6-0.62,0.53-0.31-0.31,2-0.21,2.5,0.11,0.52,0.94,1.8,2.2,3.9s2,3.7,2.7,4.4c0.73,0.74,0.42,1.8-0.94,4.8s-3.8,7.3-3.8,7.3,0,6.1,1.7,13c1.7,7.3,3.6,17,4.3,21,0.73,4.1,1.9,10,2.3,12,0.47,1.6-0.13,4.4,0.082,5.2,0.21,0.83,1.8,2.8,2.3,3.3,0.35,0.35-1.2,1.4-2.7,2.4,0.53,4.5,1.2,8.3,2.8,12,3.5,7.6,8.9,12,14,19,5,6.8,9.2,14,11,18,2.1,3.9,5,6.8,5,6.8,1.4,2.4,0.84,3.9,1.3,7.4,0.42,3.5,1.7,6.8,2.5,18,0.83,11,1.1,15,1.4,16,0.27,0.98,0.84,1.9,2.4,3.5s2.3,3.9,2.8,5.2c0.49,1.3,1.3,4.4,1.4,5.4,0.092,1.1-0.58,1.2-1.2,2" fill-rule="nonzero" fill="#231f20"/>
    </g>
    <g id="g3417" transform="translate(485.2932,157.2311)">
     <path id="path3419" d="m0,0c-0.085,0.085-0.33,0.17-0.66,0.27-0.19,1.7-2.4,6.2-9.7,15-7.7,9.3-14,15-21,20-6.8,4.8-7.2,6.7-8,7.2-0.017,0.008-0.068-0.002-0.094,0-0.83,0.97-1.8,2.2-3,3.6-3,3.7-5.6,9.3-5.6,9.3s-0.83,0.73-1.8,0.73c-0.94,0-1.3-0.21-1.3-0.21s-1,0.42-2.4,0.11c-1.3-0.31-3-2-3.2-2-2.7,0-4.6,2.2-5.5,2.8-0.93,0.62-2.2,1.4-3.5,2.1-1.4,0.62-3.6,1.9-4.9,1.6-1.2-0.31-1.3-1.6-0.83-2.1,0.51-0.52,4.3-2.9,5.3-3.6,1-0.73,4.9-4.4,4.9-4.4-0.51-1.9-0.21-2.8-0.21-2.8s-2,0.93-3.5,0.72c-1.6-0.21-1.9-0.93-1.7-1.8,0.21-0.83,2.3-1.5,2.8-2.2,0.52-0.72,1.1-1.8,2.4-2.9,1.2-1.1,4.4-4.8,5.7-5.3,1.1-0.41,6-0.98,9.8-1.4,0.19-0.19,0.38-0.37,0.62-0.54,4.8-3.5,8.6-7.7,13-14,4.4-6.5,8-12,10-16,0.8-1.2,1.7-2.1,2.6-2.7-1.2-0.3-2.6-0.8-4.1-1.6-0.72,0.087-1.5-0.17-2.3-0.62-1.6-0.95-6.2-2.4-6.4-2.3-0.22,0.14-0.8,1.7-2.4,0.44-1.6-1.2-3.6-2.2-5-2.8-1.5-0.58-4.2-1.8-4.3-2-0.072-0.22-2,0-4.4-0.88s-8-1.8-13-3.5-6.1-4.5-6.1-4.5c-1.6,0.97-8.9-1.5-10-2.6-2.2,0.13-3.9,0.37-3.9,0.37s-0.3-0.18-0.92-0.51c-0.08,0.082-0.16,0.17-0.24,0.24-2.4,1.8-1.5,3.1-1.5,3.1l-0.14,1.4s0.56,0.97,1.1,0.97c0.56,0,1.3,1.3,1.3,1.3s-0.42,0.42-1.3,0.97c-0.84,0.55-0.14,1.7-0.14,3.2s-0.69,3.1-0.69,3.1,1.3,0.7,2.1,3.2c0.84,2.5,0.84,4.9,1.1,7.1,0.28,2.2-1.1,2.8-0.7,3.2,0.42,0.42-0.41,2.4-1.1,2.8-0.7,0.41-0.25,1.7,0.17,2.7,0.72-0.19,1.3,0.2,1.6,0.54,0.089,0.11-1.2,0.54-1.1,0.67,0.36,0.9,0.73,1.8,0.73,1.8s-1.6-1-2.1-0.2c-1.7,2.4,1,1.4,1,1.4s0.42,2.4-0.42,2.6c-0.84,0.28-1.5,1.2-1.5,1.2-0.33,0.48,0.27,0.16,0.31,0.88-0.95-0.17-1.2,0.21-1.2,0.32-0.34,0.46-0.57,0.86-1.2,1.9-0.98,1.7-3.3,1.5-3.3,1.5,0.98,2.9-2.8,3.8-2.8,3.8s1.3-0.7,0.7-0.97c-0.56-0.28-3.5,0-3.5,0s-0.28,0.84-0.28,1.3c0,0.42-2.4-1.3-2.4-1.3s0.14,0.97,0.42,2.2c0.28,1.3-2,1.5-2,1.5,0.7-0.7-2.1-2.4-2.1-2.4,0.42,1.4-1.1,2.9-1.1,2.9l-1.3-1.3-0.55,1.4c-1.7-2.4-3.5-2.4-3.5-2.4,0.41,1.3-1.5,1.3-1.5,1.3-0.28-2.4-0.24-3.2-3-4.8-0.12-0.073-0.96,0.71,0.44,1.6,1.2,0.49,0.7,0.62,0.27,0.72-1.8,0.42-5.2-1-5.7-4-0.4-2.7-2.2-3.6-2.2-3.6s-0.5,1.5-1.1,0.7c-2.2-2.8-0.89-5.1-0.89-5.1s0.84,0.28-0.14-0.28c-0.97-0.56-1.1-2.9-1.1-2.9-1.3-0.84-0.14-4-0.14-4-1.1-0.28-1.4-2.1-0.83-1.8,0.56,0.28,1.4-1.8,1.4-1.8s0.42-2.1,0.42-3.2-1.1-2.6-1.1-2.6,1.1-0.42,1.6-0.47c-0.38-0.27-1-1-0.32-1.3,0.98-0.42,2.5-0.84,2.5-0.84s-1.2-0.84-1.5-1.4c-0.27-0.56,1.3-2.8,2.2-4,0.98-1.2,1.5-4.7,1.5-4.7s1.7-5.7,3.8-7.5,3.8-3.5,3.8-3.5,0.007-0.051,0.022-0.13c-4.2-0.34-7.5-2.2-8.3-3-0.3-0.3-0.61-0.68-0.92-1.1-3.5,0.53-7.6,1.3-10,1.3-5.2,0-7.9-1.1-14-3-6.4-2-13-5.2-16-5.9-3.2-0.72-4.5-0.36-4.5-0.36s-0.28-1.8-0.22-4.7c-2-0.59-4-1.1-5.9-1.6,0.65,2.2,1.2,4.2,1.7,6,1.2,4.6,3.4,8.8,3.8,11,3.2,1.1,8.3,4.4,11,8.8,0,0,0.83-2.6,1.8-2.4,0.93,0.24,0.96,0.91,0.96,0.91s0.9-0.59,1.5-0.36c0.57,0.24-0.68,7.5-0.68,7.5s5.4,3.9,6.6,4.8c1.2,0.95,0.6,1.4-0.007,1.5-0.61,0.049-2.7-0.59-3.4-0.93-0.67-0.34-4.6-2.6-4.6-2.6l-1.8,0.81,2.5,2.6s4.1,2.8,4.8,3.5c0.76,0.68,1.5,2,0.99,2.1-0.48,0.097-3-0.47-4.1-1.2-1.1-0.68-5-2.6-5-2.6s-0.71,2.7-1.5,2.6c-0.8-0.034-1.6,0.18-1.8-2,0,0-0.2-0.6-0.49-1.3-0.3-0.71-1.1-1.5-1.1-1.5s-3.4-2.2-7-6.1-6.4-8-6.7-9.1c-0.002-0.007-0.002-0.017-0.002-0.024-0.57-0.64-1.2-1.6-1.9-3-2-3.8-7.3-9.3-11-19-2.4-7-3.3-12-2.2-16,0.43-2.4,1.2-4.8,1.9-5,1.3-0.35,8.4-1.2,16,0.18,4.1,0.78,9.2,1.8,13,2.6,1.2-1.1,2.1-1.7,2.1-1.7s7.7,0.54,13,3.4c5,2.9,7.9,2,12,0.54,1.5-0.52,3-1.3,4.3-2.1,2.3-6.6,5.1-17,5.4-23,0.36-8.6,1.6-26,1.4-29-0.18-3.2,0.72-7.5,1.6-13,0.86-5-0.76-15-0.88-17-3.2-7.2-7.7-20-8.7-23-1.4-3.7-11-30-12-34-1-4.3-4.5-18-4.9-20-0.41-2.4-2.7-4.7-2.9-5.3-0.21-0.62,0.41-2.7-0.82-6.7-1.2-4.1-5.7-24-6.3-30-0.61-6.7,0.61-9.2-0.21-15-0.8-5.3-0.8-16-0.8-16s-5.7-7.2-7.4-10c-1.6-2.9-2.9-8.4-3.5-9.4-0.62-1-1.6-5.7-1.4-6.5,0.21-0.82,5.1-4.9,8.2-6.1s5.1,0,5.1,0,9.8-5.5,17-4.1c6.9,1.4,5.5,7.2,5.7,8.4,0.21,1.2,2.9,4.7,2.9,4.7s-0.41,14-0.41,16c0,2.4,2.3,13,5.7,22,3.5,9.4,19,42,21,49,2.4,6.9,15,29,16,32,0.61,3.1,2.5,5.3,2.9,5.9,0.41,0.61,1.8,0.4,2.7,0,0.82-0.41,2.5-6.3,3.7-8.8,1.2-2.4,6.1-27,11-36,5.1-9.2,12-31,16-43,3.5-12,5.5-22,6.3-26,0.81-4.5-1.2-6.1,0.41-7.2,1.6-1,4.5-2.6,5.1-4.9,0.61-2.2,0.4-4.3,0.4-4.3s-0.81-3.3-0.81-5.3,0-3.7,7.8-5.3,13-0.41,16,0.62c2.9,1,4.9,1.6,5.3,5.3s0.4,11-0.2,12l-0.62,0.81s-1.2,1.8-2,3.3c-0.82,1.4-1.6,21-1,26,0.61,5.5,1.4,18-1,22-2.5,4.3-4.5,20-4.9,24-0.41,3.5-0.21,9.6-1.4,11-1.2,1-2.7,1.6-2.2,3.3,0.41,1.6,1.2,6.5,0.61,8.6-0.61,2.1-2.2,4.7-2.7,5.5-0.41,0.82-3.7,15-4.9,20-1.2,4.7-3.9,18-4.1,21-0.21,3.1-2.3,8.2-2.7,9.2-0.41,1-5.1,11-6.7,13-0.72,0.98-1.4,3-2.1,4.9,0.51-0.087,0.79-0.1,0.79-0.01,0,0.9-4.8,12-5.5,12-0.72,0.53,0.89,3-0.35,5.5-1.3,2.5-2.5,23-3.2,34-0.3,5-0.25,14-0.33,24,1.1,3,2.3,6.2,3.1,8.3,1.7,4.9,9,12,18,20,9,7.4,13,12,13,12,0.16,1,0.25,2.1,0.28,3.1,4.6,3.2,9.6,7.5,11,9.4,2.4,2.6,6.2,6.5,6.7,8.1-10,35-10,35-11,36" fill-rule="nonzero" fill="#231f20"/>
    </g>
    <g id="g3421" transform="translate(164.6347,176.4169)">
     <path id="path3423" d="m0,0c-0.078,0.077-0.31,0.16-0.61,0.25-0.17,1.6-2.2,5.7-9,14-7.1,8.7-13,14-19,19-6.4,4.4-6.7,6.3-7.4,6.7-0.017,0.008-0.063-0.002-0.087,0-0.77,0.9-1.7,2-2.8,3.4-2.8,3.5-5.2,8.7-5.2,8.7s-0.77,0.68-1.6,0.68c-0.87,0-1.3-0.19-1.3-0.19s-0.96,0.38-2.2,0.097c-1.3-0.29-2.8-1.8-3-1.8-2.5,0-4.2,2-5.1,2.6-0.86,0.57-2,1.4-3.3,1.9-1.3,0.58-3.4,1.7-4.5,1.4-1.2-0.29-1.3-1.4-0.77-1.9,0.48-0.49,4-2.7,4.9-3.4,0.97-0.68,4.5-4.1,4.5-4.1-0.48-1.7-0.2-2.6-0.2-2.6s-1.8,0.87-3.3,0.67c-1.4-0.19-1.7-0.87-1.5-1.6,0.19-0.77,2.1-1.3,2.6-2,0.48-0.67,1.1-1.6,2.2-2.7,1.2-1.1,4.1-4.4,5.3-4.9,0.98-0.38,5.6-0.92,9.1-1.3,0.18-0.17,0.35-0.34,0.57-0.5,4.5-3.3,8-7.1,12-13,4.1-6.1,7.4-12,9.5-15,0.75-1.2,1.6-1.9,2.4-2.5-1.2-0.28-2.5-0.75-3.8-1.5-0.67,0.082-1.4-0.16-2.1-0.58-1.5-0.89-5.8-2.2-6-2.1-0.2,0.14-0.74,1.6-2.2,0.41s-3.3-2-4.7-2.6c-1.4-0.54-3.9-1.6-4-1.8-0.068-0.2-1.8,0-4.1-0.81-2.2-0.81-7.5-1.7-12-3.3-4.6-1.6-5.6-4.1-5.6-4.1-1.5,0.91-8.3-1.4-9.4-2.4-2,0.12-3.7,0.35-3.7,0.35s-0.28-0.17-0.85-0.47c-0.075,0.077-0.15,0.16-0.23,0.22-2.2,1.7-1.4,2.8-1.4,2.8l-0.13,1.3s0.52,0.91,1,0.91c0.52,0,1.2,1.2,1.2,1.2s-0.39,0.39-1.2,0.9c-0.78,0.52-0.13,1.6-0.13,3s-0.64,2.8-0.64,2.8,1.2,0.65,1.9,3c0.78,2.3,0.78,4.5,1,6.6,0.26,2.1-1,2.6-0.65,3,0.39,0.39-0.38,2.2-1,2.6-0.65,0.38-0.23,1.6,0.16,2.5,0.67-0.18,1.2,0.18,1.5,0.5,0.082,0.1-1.1,0.5-1,0.62,0.33,0.84,0.68,1.7,0.68,1.7s-1.5-0.93-2-0.18c-1.6,2.3,0.95,1.3,0.95,1.3s0.39,2.2-0.39,2.5c-0.78,0.26-1.4,1.1-1.4,1.1-0.31,0.45,0.25,0.15,0.29,0.82-0.88-0.16-1.1,0.2-1.2,0.29-0.32,0.44-0.53,0.8-1.1,1.7-0.91,1.6-3.1,1.4-3.1,1.4,0.91,2.7-2.6,3.5-2.6,3.5s1.2-0.65,0.65-0.91c-0.52-0.26-3.2,0-3.2,0s-0.26,0.78-0.26,1.2c0,0.39-2.2-1.2-2.2-1.2s0.13,0.91,0.39,2.1-1.8,1.4-1.8,1.4c0.65-0.65-1.9-2.2-1.9-2.2,0.39,1.3-1,2.7-1,2.7l-1.2-1.2-0.52,1.3c-1.6-2.2-3.2-2.2-3.2-2.2,0.38,1.2-1.4,1.2-1.4,1.2-0.26-2.2-0.23-2.9-2.8-4.4-0.11-0.068-0.89,0.66,0.41,1.5,1.1,0.46,0.65,0.58,0.25,0.67-1.7,0.39-4.9-0.95-5.3-3.7-0.37-2.5-2.1-3.4-2.1-3.4s-0.46,1.4-1,0.65c-2.1-2.6-0.82-4.7-0.82-4.7s0.78,0.26-0.13-0.26-1-2.7-1-2.7c-1.2-0.78-0.13-3.8-0.13-3.8-1-0.26-1.3-1.9-0.78-1.7,0.52,0.26,1.3-1.7,1.3-1.7s0.39-1.9,0.39-3c0-1-1-2.5-1-2.5s1-0.38,1.5-0.44c-0.36-0.25-0.96-0.96-0.29-1.2,0.91-0.39,2.3-0.78,2.3-0.78s-1.2-0.78-1.4-1.3c-0.25-0.52,1.2-2.6,2.1-3.8,0.91-1.2,1.4-4.4,1.4-4.4s1.6-5.3,3.5-7,3.5-3.2,3.5-3.2,0.008-0.048,0.02-0.12c-3.9-0.32-7-2-7.7-2.8-0.28-0.28-0.56-0.63-0.86-1-3.3,0.49-7,1.2-9.3,1.2-4.8,0-7.3-1-13-2.8-6-1.8-12-4.8-15-5.5-3-0.66-4.2-0.33-4.2-0.33s-0.27-1.7-0.2-4.3c-1.8-0.55-3.7-1.1-5.4-1.5,0.6,2,1.1,3.9,1.5,5.5,1.1,4.2,3.1,8.2,3.6,11,3,1,7.8,4.1,10,8.2,0,0,0.77-2.5,1.6-2.2,0.87,0.22,0.89,0.84,0.89,0.84s0.84-0.55,1.4-0.33c0.53,0.22-0.64,6.9-0.64,6.9s5,3.6,6.2,4.5c1.1,0.88,0.55,1.3-0.008,1.4-0.57,0.041-2.5-0.55-3.1-0.87-0.62-0.32-4.3-2.4-4.3-2.4l-1.7,0.76,2.3,2.4s3.8,2.6,4.5,3.2c0.7,0.63,1.4,1.9,0.92,2-0.44,0.087-2.8-0.44-3.8-1.1-1-0.63-4.6-2.4-4.6-2.4s-0.66,2.5-1.4,2.4c-0.74-0.029-1.4,0.17-1.7-1.9,0,0-0.18-0.56-0.46-1.2-0.28-0.66-0.99-1.4-0.99-1.4s-3.1-2-6.5-5.7c-3.4-3.6-5.9-7.4-6.2-8.4-0.003-0.004-0.003-0.014-0.003-0.021-0.53-0.59-1.1-1.5-1.8-2.8-1.8-3.6-6.8-8.7-9.9-18-2.3-6.5-3-11-2.1-15,0.4-2.2,1.1-4.5,1.8-4.6,1.2-0.33,7.8-1.2,15,0.16,3.8,0.73,8.5,1.7,12,2.4,1.1-1.1,2-1.6,2-1.6s7.1,0.5,12,3.2c4.7,2.7,7.3,1.8,11,0.5,1.4-0.48,2.8-1.2,4-2,2.1-6.1,4.8-16,5-22,0.33-8,1.5-24,1.3-27-0.16-3,0.67-7,1.5-12,0.8-4.7-0.71-14-0.82-15-3-6.7-7.2-19-8.1-21-1.3-3.4-9.9-28-11-32-0.95-4-4.2-17-4.6-19-0.38-2.3-2.5-4.4-2.7-4.9-0.19-0.58,0.38-2.5-0.76-6.3s-5.3-22-5.9-28c-0.57-6.3,0.57-8.6-0.2-13-0.75-4.9-0.75-14-0.75-14s-5.3-6.7-6.9-9.3c-1.5-2.7-2.7-7.8-3.2-8.7-0.57-0.95-1.5-5.3-1.3-6.1,0.19-0.76,4.8-4.6,7.6-5.7,2.9-1.1,4.8,0,4.8,0s9.1-5.1,16-3.8c6.5,1.3,5.1,6.7,5.3,7.8,0.19,1.1,2.7,4.4,2.7,4.4s-0.38,13-0.38,15c0,2.3,2.1,12,5.3,21,3.2,8.7,17,39,20,46,2.3,6.5,14,27,15,29,0.57,2.9,2.3,4.9,2.7,5.5,0.39,0.57,1.7,0.38,2.5,0,0.76-0.38,2.3-5.9,3.4-8.2s5.7-25,10-34c4.8-8.6,11-29,15-40,3.2-12,5.1-20,5.9-25,0.76-4.2-1.1-5.7,0.38-6.7,1.5-0.95,4.2-2.5,4.8-4.6,0.57-2.1,0.38-4,0.38-4s-0.76-3-0.76-4.9,0-3.4,7.2-4.9,13-0.38,15,0.57c2.7,0.95,4.6,1.5,4.9,4.9,0.38,3.4,0.38,10-0.19,11l-0.57,0.76s-1.1,1.7-1.9,3c-0.76,1.3-1.5,19-0.95,25,0.57,5.1,1.3,17-0.95,21-2.3,4-4.2,19-4.6,22-0.38,3.2-0.19,8.9-1.3,9.9-1.1,0.95-2.5,1.5-2.1,3,0.38,1.5,1.1,6.1,0.57,8-0.57,1.9-2.1,4.4-2.5,5.1-0.38,0.76-3.4,14-4.6,18-1.1,4.4-3.6,17-3.8,19-0.19,2.9-2.1,7.6-2.5,8.6-0.38,0.94-4.8,10-6.3,12-0.67,0.92-1.3,2.8-1.9,4.6,0.47-0.082,0.74-0.096,0.74-0.009,0,0.83-4.5,11-5.2,11-0.66,0.49,0.83,2.8-0.33,5.2-1.2,2.3-2.3,21-3,32-0.28,4.7-0.23,13-0.3,22,1,2.8,2.2,5.8,2.9,7.8,1.6,4.5,8.3,12,17,19,8.3,6.9,12,11,12,11,0.15,0.94,0.23,1.9,0.26,2.9,4.2,2.9,9,6.9,11,8.7,2.2,2.4,5.8,6.1,6.3,7.5,0.48,1.5,0.78,1.9,0,2.7" fill-rule="nonzero" fill="#231f20"/>
    </g>
    <g id="g3425" transform="translate(883.0883,134.6029)">
     <path id="path3427" d="m0,0c-0.078,0.077-0.31,0.16-0.61,0.25-0.17,1.6-2.2,5.7-9,14-7.1,8.7-13,14-19,19-6.4,4.4-6.7,6.3-7.4,6.7-0.017,0.007-0.063-0.005-0.087,0-0.77,0.9-1.7,2-2.8,3.4-2.8,3.5-5.2,8.7-5.2,8.7s-0.77,0.68-1.6,0.68c-0.87,0-1.3-0.19-1.3-0.19s-0.96,0.38-2.2,0.097c-1.3-0.29-2.8-1.8-3-1.8-2.5,0-4.2,2-5.1,2.6-0.86,0.57-2,1.4-3.3,1.9-1.3,0.58-3.4,1.7-4.5,1.4-1.2-0.29-1.3-1.4-0.77-1.9,0.48-0.49,4-2.7,4.9-3.4,0.97-0.68,4.5-4.1,4.5-4.1-0.48-1.7-0.2-2.6-0.2-2.6s-1.8,0.87-3.3,0.67c-1.4-0.19-1.7-0.87-1.5-1.6,0.19-0.77,2.1-1.3,2.6-2,0.48-0.67,1.1-1.6,2.2-2.7,1.2-1.1,4.1-4.4,5.3-4.9,0.98-0.38,5.6-0.92,9.1-1.3,0.18-0.18,0.35-0.35,0.57-0.5,4.5-3.3,8-7.1,12-13,4.1-6.1,7.4-12,9.5-15,0.75-1.2,1.6-1.9,2.4-2.5-1.2-0.28-2.5-0.75-3.8-1.5-0.67,0.077-1.4-0.16-2.1-0.58-1.5-0.88-5.8-2.2-6-2.1-0.2,0.14-0.74,1.6-2.2,0.41s-3.3-2-4.7-2.6c-1.4-0.54-3.9-1.6-4-1.8-0.068-0.2-1.8,0-4.1-0.81-2.2-0.82-7.5-1.7-12-3.3-4.6-1.6-5.6-4.1-5.6-4.1-1.5,0.9-8.3-1.4-9.4-2.4-2,0.12-3.7,0.34-3.7,0.34s-0.28-0.17-0.85-0.47c-0.076,0.077-0.15,0.16-0.22,0.22-2.2,1.7-1.4,2.8-1.4,2.8l-0.13,1.3s0.52,0.91,1,0.91c0.52,0,1.2,1.2,1.2,1.2s-0.39,0.39-1.2,0.9c-0.78,0.51-0.13,1.6-0.13,3s-0.64,2.8-0.64,2.8,1.2,0.65,1.9,3c0.78,2.3,0.78,4.5,1,6.6,0.26,2.1-1,2.6-0.65,3,0.39,0.38-0.38,2.2-1,2.6-0.65,0.38-0.23,1.6,0.16,2.5,0.67-0.18,1.2,0.18,1.5,0.5,0.082,0.099-1.1,0.5-1,0.62,0.33,0.83,0.68,1.7,0.68,1.7s-1.5-0.94-2-0.18c-1.6,2.3,0.95,1.3,0.95,1.3s0.39,2.2-0.39,2.5c-0.78,0.26-1.4,1.1-1.4,1.1-0.31,0.44,0.25,0.14,0.29,0.82-0.88-0.16-1.1,0.2-1.2,0.29-0.32,0.43-0.53,0.8-1.1,1.7-0.91,1.6-3.1,1.4-3.1,1.4,0.91,2.7-2.6,3.5-2.6,3.5s1.2-0.65,0.65-0.9c-0.52-0.26-3.2,0-3.2,0s-0.26,0.78-0.26,1.2c0,0.39-2.2-1.2-2.2-1.2s0.13,0.9,0.39,2.1-1.8,1.4-1.8,1.4c0.65-0.65-1.9-2.2-1.9-2.2,0.39,1.3-1,2.7-1,2.7l-1.2-1.2-0.52,1.3c-1.6-2.2-3.2-2.2-3.2-2.2,0.38,1.2-1.4,1.2-1.4,1.2-0.26-2.2-0.22-2.9-2.8-4.4-0.11-0.07-0.89,0.66,0.41,1.5,1.1,0.46,0.65,0.58,0.25,0.67-1.7,0.39-4.9-0.96-5.3-3.7-0.37-2.5-2.1-3.4-2.1-3.4s-0.46,1.4-1,0.65c-2.1-2.6-0.82-4.7-0.82-4.7s0.78,0.27-0.13-0.26c-0.91-0.52-1-2.7-1-2.7-1.2-0.78-0.13-3.8-0.13-3.8-1-0.26-1.3-1.9-0.78-1.7,0.52,0.26,1.3-1.7,1.3-1.7s0.39-1.9,0.39-3c0-1-1-2.5-1-2.5s1-0.39,1.5-0.44c-0.36-0.25-0.96-0.96-0.29-1.2,0.91-0.39,2.3-0.78,2.3-0.78s-1.2-0.78-1.4-1.3c-0.25-0.52,1.2-2.6,2.1-3.8,0.91-1.2,1.4-4.4,1.4-4.4s1.6-5.3,3.5-7,3.5-3.2,3.5-3.2,0.007-0.049,0.02-0.12c-3.9-0.32-7-2-7.7-2.8-0.28-0.28-0.56-0.63-0.86-1-3.3,0.49-7,1.2-9.3,1.2-4.8,0-7.3-1-13-2.8-6-1.8-12-4.8-15-5.5-3-0.67-4.2-0.33-4.2-0.33s-0.27-1.7-0.2-4.3c-1.8-0.55-3.7-1.1-5.4-1.5,0.6,2,1.1,3.9,1.5,5.5,1.1,4.2,3.1,8.2,3.6,11,3,1,7.8,4.1,10,8.2,0,0,0.77-2.4,1.6-2.2,0.87,0.22,0.89,0.84,0.89,0.84s0.84-0.55,1.4-0.33c0.53,0.22-0.64,6.9-0.64,6.9s5,3.6,6.2,4.5c1.1,0.88,0.55,1.3-0.008,1.4-0.57,0.044-2.5-0.55-3.1-0.87-0.62-0.32-4.3-2.4-4.3-2.4l-1.7,0.76,2.3,2.4s3.8,2.6,4.5,3.2c0.7,0.63,1.4,1.9,0.92,1.9-0.44,0.092-2.8-0.44-3.8-1.1-1-0.63-4.6-2.4-4.6-2.4s-0.66,2.5-1.4,2.4c-0.74-0.032-1.4,0.17-1.7-1.9,0,0-0.18-0.56-0.46-1.2-0.28-0.66-0.99-1.4-0.99-1.4s-3.1-2-6.5-5.7c-3.4-3.6-5.9-7.4-6.2-8.4-0.003-0.007-0.003-0.014-0.003-0.024-0.53-0.59-1.1-1.5-1.8-2.8-1.8-3.6-6.8-8.7-9.9-18-2.3-6.5-3-11-2.1-15,0.4-2.2,1.1-4.5,1.8-4.6,1.2-0.33,7.8-1.2,15,0.17,3.8,0.73,8.5,1.7,12,2.4,1.1-1.1,2-1.6,2-1.6s7.1,0.5,12,3.2c4.7,2.7,7.3,1.8,11,0.5,1.4-0.48,2.8-1.2,4-2,2.1-6.1,4.8-16,5-22,0.33-8,1.5-24,1.3-27-0.16-3,0.67-7,1.5-12,0.8-4.7-0.71-14-0.82-15-3-6.7-7.2-19-8.1-21-1.3-3.4-9.9-28-11-32-0.95-4-4.2-17-4.6-19-0.38-2.3-2.5-4.4-2.7-4.9-0.19-0.58,0.38-2.5-0.76-6.3s-5.3-22-5.9-28c-0.57-6.3,0.57-8.6-0.2-13-0.75-4.9-0.75-14-0.75-14s-5.3-6.7-6.9-9.3c-1.5-2.7-2.7-7.8-3.2-8.7-0.57-0.95-1.5-5.3-1.3-6.1,0.19-0.76,4.8-4.6,7.6-5.7,2.9-1.1,4.8,0,4.8,0s9.1-5.1,16-3.8c6.5,1.3,5.1,6.7,5.3,7.8,0.19,1.1,2.7,4.4,2.7,4.4s-0.38,13-0.38,15c0,2.3,2.1,12,5.3,21,3.2,8.7,17,39,20,46,2.3,6.5,14,27,15,29,0.57,2.9,2.3,4.9,2.7,5.5,0.38,0.57,1.7,0.38,2.5,0,0.76-0.38,2.3-5.9,3.4-8.2s5.7-25,10-34c4.8-8.6,11-29,15-40,3.2-12,5.1-20,5.9-25,0.76-4.2-1.1-5.7,0.38-6.7,1.5-0.95,4.2-2.5,4.8-4.6,0.57-2.1,0.38-4,0.38-4s-0.76-3-0.76-4.9,0-3.4,7.2-4.9,13-0.38,15,0.57c2.7,0.95,4.6,1.5,4.9,4.9,0.38,3.4,0.38,10-0.19,11l-0.57,0.76s-1.1,1.7-1.9,3c-0.76,1.3-1.5,19-0.95,25,0.57,5.1,1.3,17-0.95,21-2.3,4-4.2,19-4.6,22-0.38,3.2-0.19,8.9-1.3,9.9-1.1,0.95-2.5,1.5-2.1,3,0.38,1.5,1.1,6.1,0.57,8-0.57,1.9-2.1,4.4-2.5,5.1-0.38,0.76-3.4,14-4.6,18-1.1,4.4-3.6,17-3.8,19-0.19,2.9-2.1,7.6-2.5,8.6-0.38,0.95-4.8,10-6.3,12-0.67,0.92-1.3,2.8-1.9,4.6,0.47-0.082,0.74-0.096,0.74-0.009,0,0.83-4.5,11-5.2,11-0.66,0.49,0.83,2.8-0.33,5.2-1.2,2.3-2.3,21-3,32-0.28,4.7-0.23,13-0.3,22,1,2.8,2.2,5.8,2.9,7.8,1.6,4.5,8.3,12,17,19,8.3,6.9,12,11,12,11,0.15,0.94,0.23,1.9,0.26,2.9,4.2,2.9,9,6.9,11,8.7-2.1-17,1.5-14,2-12,0.48,1.4,0.78,1.9,0,2.7" fill-rule="nonzero" fill="#231f20"/>
    </g>
    <g id="g3429" transform="translate(276.6468,124.7158)">
     <path id="path3431" d="m0,0c0.71,1.1,1.4,2.1,2,3,1.3,0.11,2.5,0.11,4.1,0.11,2,0,5.1,2,8,4.6,0.24-6.2,0.74-11,1.3-15-0.93,0.38-1.8,0.77-2.7,1.2-2.8,2.1-8.4,4.7-12,6.1m160-260c-0.92,0.56-3.7,8.4-4.4,11-0.73,2.8-4.2,6-4.2,6s0.92,18,1.3,22c0.37,3.5,2.4,11,2.6,13,0.18,1.8-3.3,16-4.8,22-1.5,6.4-5.1,18-5.1,22,0,3.7-2.4,11-4.8,14-2.4,3.7-5.9,17-8.2,21-2.4,4-14,30-14,33-0.73,2.2,2.7,7.5,1.8,9.1-0.92,1.7-5.3,8.1-6,11-0.52,2-3.3,7.2-4.8,10,0.19,0.15,0.28,0.24,0.28,0.24s-2.1,13-4.3,29c-2.3,16,3.5,43,3.5,58,0,0.73-0.014,1.5-0.036,2.3,0.099,0.085,0.18,0.25,0.24,0.56,0.83,4.3,3.7,16,4.3,24,0.61,8.1,2.9,17,4.8,19,1.9,2.1,5.2,3.9,5.2,3.9s-0.8,2-2.2,4.9c3.5,5.7,9.1,19,11,29,2.2,11,5,30,5,30s1.2,3.4,0.27,5.4c-0.41,0.88-1.5,1.5-2.9,1.9-0.2,0.21-0.41,0.42-0.64,0.64-2.4,2.3-14,11-24,15-11,3.8-22,6.5-24,7.3-2.2,0.81-10,4.2-12,4.7-1.5,0.54-3.4,0.81-4.2,0.41-0.81-0.41-13,2.2-15,2.3-2.2,0.14-3.9-0.14-3.9-0.14s-2.6-0.41-3.5-0.41c-0.94,0-2-1.7-2-1.7l-0.27-1.8s-1.5-2.6-1.6-3c-0.14-0.41,0.14-2.7,0.14-2.7s-0.54-1.2,0-2.7c0,0-0.27-2.6,0.41-3.5,0.68-0.95,2.7-2.3,2.7-2.3s-1.3-2-0.94-3.2c0.4-1.2,0.54-2.8,3.5-1.9,3,0.94,6.3,1.2,7.5,1.7,1.2,0.54,5.7,3.1,6.7,4,1.1,0.94,3.2,2.3,3.2,2.3s4.9-0.13,10-2.6c5.4-2.4,12-7.7,18-14,5.2-5.1,13-11,17-13-0.56-0.58-0.9-0.95-0.9-0.95s-2.7-4.4-5-9.6c-2.1-4.7-4.6-9.7-5.6-14-0.55,0.44-0.74,0.38-0.89,0.16-0.41-0.62-2.7-3.3-3.1-3.9-0.41-0.62-3.3-1.7-3.3-3.1,0-1.5-1.9-3.1-1.9-3.1l-2.5-3.3s-3.7-0.62-3.7-1.9c0-1.2-1-3.1-1-3.1s-2.1,0.41-2.7-1.5c-0.62-1.9-0.82-3.9-0.82-3.9l-1.6-1.4c-0.039-0.063-0.044-0.2-0.044-0.35-1.2,0.065-2.2,0.06-2.9-0.066-0.67-0.13-1.4-0.36-2.1-0.64-1,1.7-1.8,3.8-1.9,4.2-0.16,0.62,0.63,2.7,0.16,2.7s0.94,0.48,0.94,0.48,1.3,1.4,1.7,2.8c0.46,1.4,1.1,6.6,1.1,6.6,1.1,0.62,1.9,2.8,2.2,4.4,0.47,2.4,0.64,5.2,0,7.4-0.63,2.2-1.6,2-1.6,2l0.47,0.94-0.47,0.79,0.78,1.4s-0.94,0.32-1.7,0.94c-0.78,0.63,0.63,1.3,0.16,2.2-0.47,0.95-0.78,3.3-1.1,5.3s-1.4,5.5-2.5,7.4-6.7,7.4-7.7,8.6c-0.94,1.3-4.2,0-5.3,0.63s-3.4,1.1-4.1,1.1c-0.62,0-2.7-0.47-2.7-0.47s-2.1,0.025-1.1,1.6c0.35,0.55-4.8-2.5-4.8-2.5l-2.2,1.1s-0.44-2.1-2.2-2.4c-1.8-0.32-2.4,0.86-2.4,0.86s-2.2-2.7-2.8-2.7c-0.63,0-0.46,1.3-0.46,1.3l-2.2-3.1s-0.77,0.2-1.7,0.35c-0.17,0.031,1.1-1.2,0.89-1.3-1.6-0.32-3.4-3.9-4.1-4.6-0.94-0.94-1.3-4.4-1.9-5.6-0.62-1.3,0.16-4.1-0.32-4.6-0.46-0.47,0.63-3,0.63-3.8,0-0.79,0.63-3.9,0.63-3.9l-0.78-0.78c-0.48,0.3,1.6-2,1.6-2l-0.78-1.6,1.4-1.1-1.1-1.4,1.6-0.77-0.16-1.4,2.4-1.4c-1.7,0.47-2.5-2.2-1.7-3.6,0.79-1.4,3.6-5.8,4.7-8.2s3.6-3.9,4.6-5.2c0.94-1.3,4.1-3,4.1-3,0.38-3.2-0.094-6.6-0.54-8.9-2.1-0.51-3.7-0.93-4.5-1.1-2.5-0.63-7.9-2.5-9.5-3.9s-9.1-3.7-11-4.3c-0.8-0.14-1.5-0.23-1.9-0.23-1.7,0-7.2-4.1-11-7.6-3.3-3.5-12-18-13-20-0.83-2.5-1-4.8-2.3-5-1.2-0.2-1.4-1-3.3-3.7s-7-13-7-13,0.012-0.8,0.34-1.7c-0.71-1.4-1.4-2.7-2-3.9-3.3-6.7-2.7-17-2.2-19,0.54-2.5,2-2.2,5.2-1.8,0.097,0.01,0.22,0.039,0.32,0.059,2.8-0.68,7.1-1.2,11-2,5.4-1.3,14-0.97,20-1.3,1.9-0.092,3.6-0.35,5.1-0.65-0.072-0.42-0.1-0.86-0.056-1.4,0.41-4.3,0.62-9.3,0.41-11-0.21-2.1-3.1-8.9-2.5-9.9,0.62-1-3.6-2.1-3.4-4.4s-1.1-5.1-1.1-5.1-3.1-0.24-3.5-2.9c-0.41-2.7-3.7-9.7-3.7-9.7s0.51,0.092,1.4,0.22c-1.2-2.7-2.5-6.7-3.6-8.8-1.6-3.1-4-9.3-4.8-13-0.73-3.5-1.1-4.9-5.8-15-4.8-9.9-9.3-27-9.5-30-0.17-2.7-0.36-5.9-1.3-7.1-0.92-1.3-3.1-10-3.7-11-0.55-1.3-0.18-6.4-0.37-6.9-0.18-0.55-3.7-5.1-3.7-8s-1.3-6-2.4-9c-1.1-2.9-5.3-40-4.8-46,0.55-5.5,0.92-18,1.3-18,0.37-0.92-4.8-4-7.9-9.7s-4.4-11-4.2-12c0.18-1.3,1.3-3.7,0.54-4-0.73-0.37-2.4-2.6-1.6-3.8,0.73-1.3,5.3-6.8,10-7.7,0,0,4.4-5.7,11-6.9,6.8-1.3,13-0.73,14,0.55,1.3,1.3,2,5.1,2,5.1s0.18,6.6,1.5,8c1.3,1.5,6,0.74,5.8,3.5-0.18,2.7-3.1,7.5-1.6,8.6s6.8,4,7.9,7.5,6,24,6.6,29c0.55,5.1-1.7,7.5,0.18,10,1.8,2.6,13,28,18,36,4.9,7.7,16,24,18,29,2.4,5.3,7.7,15,8.2,15,0.54,0,4.8-1.6,9.7-10,4.9-8.8,17-27,19-30,2.2-2.9,9.9-14,11-17,0.92-2.9,7.9-14,9-18,1.1-3.8,2.9-11,3.7-15,0.73-4,4.2-7.9,3.7-12-0.54-3.7,0.19-9.5,1.8-15s3.8-7.7,3.5-9.7c-0.36-2,0.92-6,2-6.8,1.1-0.73,4.8-1.3,4.2-3.1-0.56-1.8,0.54-9,0.72-10,0.18-1.3-0.91-5.9,4-6,4.9-0.19,14-0.19,18,1.3,4.2,1.5,6.2,4.2,6.2,4.2s6,3.5,6,5.5-1.3,8.1-1.3,8.1,4.6-1.1,4.4,0c-0.18,1.1-2,3.3-2.9,3.8" fill-rule="nonzero" fill="#231f20"/>
    </g>
    <g id="g3433" transform="translate(277.2762,-155.2774)">
     <path id="path3435" d="m0,0c-1.7,1.2-5.5,2.1-6.5,2.7-0.95,0.62-3,1.4-4.2,1l-0.18,1.4,2.1,1.7-0.96,3.5s3.6,4.8,4,8.3c0.38,3.5-3.4,5.4-7.2,5.6,0,0-0.18,5.4-2.9,10,0,0,1.3,9.1-2.1,17,0,0-1.3,6.2-2.9,9.1-1.5,2.9-0.76,6.2-1.1,9.1-0.38,2.9-6.1,20-7,25-0.96,5-3,6.8-4.2,8.3-1.1,1.4,0.39,3.9,0.96,5.6,0.58,1.7-2.5,8.7-3.4,10-0.94,1.7-3.6,7-4.4,9.3-0.76,2.3-10,28-12,33-1.7,4.5-3.6,4.3-2.9,5.8,0.76,1.5,1.9,4.1,1.1,6.2-0.76,2.1-3,3.3-3.2,5-0.18,1.7-0.95,7.2-1.3,8.7-0.38,1.4-3.2,5.4-4.2,5.6-0.28,0.063-0.61,0.34-0.96,0.69,5.4,0.42,9.2,0.71,9.9,0.64,2.1-0.22-0.68,4.6-2.5,11-1.8,6.7-8.2,41-7,59,0.62,9.5,2.1,23,2.8,34,2.1,5.4,2.5,9.5,2.5,9.5s5.8,6.8,7,9.8c1.2,3.1-0.76,8.7-2.3,14-0.46,1.6-0.82,2.8-1.2,4,0.22,0.3,0.36,0.65,0.4,1.1,0.48,6.4-3,15-5.2,19,0.7,1.9,1.5,4.2,2,6,1.1,3.9-0.068,7.8-0.068,7.8s-0.7,11-2.1,16c-1.4,5.3-2.5,9.2-1.6,12v0.017c0.83,1.6,1.8,3.8,2.3,4.5,0.62,0.94,0.66,2.9,0.66,2.9s0.68,0.28,0.75,1.3c0.077,0.98-0.71,2.1-1.4,4.2-0.72,2-1.5,0.98-2.1,1.7-0.59,0.71-1.1,1.7-1.8,2.2-0.73,0.5-1.4,0.33-2.1,0.6-0.74,0.27-0.89,1.3-2.2,1.9-0.96,0.49-2.3,0.44-2.9,0.39,0.11,1.6,0.1,4.1,0.46,5.3,0.44,1.6,0.8,4.8,1.4,6.2,0.56,1.4-0.31,2.7-0.95,2.7-0.64-0.016-1.8-0.25-2.7-2.2-0.86-2-1.6-4.5-2-5.8-0.41-1.3-1.1-5.7-1.8-7.7-0.24-0.32-0.47-0.65-0.68-0.99-1.6-2.6-2.4-5.6-2.8-5.9-0.34-0.3-1.8-1.9-1.7-3.4,0.1-1.4,1.5-4.7,3.1-6.8,1.2-1.6,2.4-2,3.5-2.4-0.009-0.18-0.009-0.35,0.025-0.48,0.34-1.2,0.88-9.9,0.88-11,0-1.4-2.2-5.7-3.1-14-0.73-6.3-0.37-9.8,0.38-12-1.7-2.6-3.1-5.6-3.5-8.4-0.47-3.2-0.5-5.2-0.29-6.7-1.4-1.4-1.5-3-1.8-3.9-0.44-1.4-0.55-2.3-0.55-2.3-3.8-1.2-2.8-3.8-2.8-3.8s-2.4-0.44-4.5-2.5-2.8-4-2.8-4-1.4-0.59-2.6-0.73c-0.42,0.74-0.36,1.6-0.36,1.6s-0.14,0.02-0.35,0.044c-0.27,0.76-0.48,1.5-0.52,2.2-0.22,3.3-0.21,3.8,0.68,5.9,0.89,2.2,1.3,5.1,1.3,5.1,0.89-1.3,2.1,1.8,2.5,4,0.34,2.2,0.68,6.2,0,7.3-0.67,1.1-2-0.9-2-0.9s0.3,1.6,0.6,4c1.5,1.5,2.9,3,4.6,4.4,3.5,2.9,0.27,4.2-3.6,13-3,6.9-14,14-24,13-8.2-0.63-19-9.1-23-17-5.9-12-0.58-15,0.24-16,0,0,0.62-0.81,1.9-1.9,0.22-1,0.38-1.7,0.38-1.7s-1.1-0.56-1.6-1.2c-0.44-0.67,0.11-3.6,1.3-5.9s1.3-5.1,2.9-5.4c1.6-0.23,2.6,0.45,2.7,0.22,0.11-0.22,1.3-4.5,0.92-8-0.14-1.3-0.48-2.9-0.85-4.4-0.35-0.078-0.67-0.12-1-0.17-0.75,1-1.5,2.2-2,2.3-0.76,0.22-1.5-0.22-1.5-0.22s0.21,2-0.66,2.2c-0.87,0.22-3.2,0.66-3.2,0.66s0.54,2.9,0.1,4.3c-0.43,1.3-2.3,2.4-2.3,2.4s-0.068,0.65-0.25,1.1c-0.33,3.4-1.5,8.4-4.6,13-0.06,0.092-0.12,0.18-0.18,0.28-0.46,3-1.5,6.5-1.5,6.5s0.36,5.7-0.39,10c-0.75,4.6-2.9,9-3,14-0.16,4.5,0.85,7.8,1.2,10,0.4,0.78,2.6,4.4,2.8,5.1,0.21,0.69-0.49,2.6-0.28,3.7,0.2,1.1-0.22,6.5-0.69,8.2,0,0-0.22,0.94-0.1,1.8,0.12,0.87,0.61,3.9,0.49,4.6s-0.38,3.1-0.45,5.1c-0.087,2.1-0.89,3-2,2.8-1.1-0.18-1.5-1.4-1.7-2.3-0.19-0.88-0.24-3.7-0.34-5.1-0.099-1.4-0.38-3.7-0.44-4.1-0.056-0.47-0.55-1.8-0.92-2-0.36-0.19-1.7,1-2.5,0.77-0.81-0.26-2.1-2.1-2.1-2.1s-2.3,0.27-2.9-0.21c-0.56-0.49-1.6-2-1.6-2s-2-0.19-2.3-0.95c-0.27-0.77-1.4-2.3-1.2-5,0.24-2.6,2.3-6.7,3.2-8,0.63-0.92,0.55-2.5,0.46-3.3-0.08-0.28-0.16-0.53-0.24-0.86-1.2-4.8-3.2-16-3.2-24-0.053-8.2,1.8-9.8,2.2-12,0.17-1,0.17-3,0.62-5-1.7-5.4-3-11-3-17-0.8-2.1-1.3-4.4-1.4-6.9-0.33-8.4,2.9-18,3.9-21,0.98-3.4,1.4-8.5,2-11,0.2-0.9,0.66-2.2,1.1-3.5,0.097-1.1,1.1-12,1.7-17,0.69-5.1,3.9-24,4.6-34,0.69-10-1.4-40-1.6-41-0.22-1.1,0.7-1.4,0.46-3s-1.8-2.5,0.23-3.2c0.46-0.16,2.4-0.22,5.3-0.22-2.4-5.1-5.2-12-7.2-14-2.7-2.7-4-7-4.6-9.7-0.57-2.7-5.1-16-7.2-21-2.1-4.7-5-27-7.6-34-2.7-6.6-7.1-27-9.3-34-2.3-7-3.6-23-4.9-27-1.3-3.5-2.6-20-3.8-24-1.1-4.1-1.9-7.4-3.2-11-1.3-3.9-3.6-12-2.7-14,0.95-2.3,2.9-5.2,2.9-5.2l-2.1-2.1c-0.56-1-2.7-3.1-2.3-4.5,0.38-1.4,2.3-1.4,3.4-1.4,0,0,5.7-3.5,12-4.8,6.3-1.2,8.4-4.8,13-5.2,4.4-0.42,8,0,9.1,2.7s0.95,6.2,0.19,11c0,0,3-1.4,2.7,0.41-0.38,1.9,0.19,2.7,0.19,2.7s1.9,2.1,1.9,3.7c0,1.7,0.57,3.5,0.57,3.5s-4.2,1.9-2.7,2.9,2.9-0.42,3.4,0.83c0.57,1.2,0.76,1.7,0.19,2.5-0.57,0.83-4.2,3.5-3,5.4,1.1,1.9,3.4,2.7,4.8,6.4,1.3,3.7,1.7,8.7,2.7,15,0.95,6.2,1.3,13,1.3,14,0,0.82,4.6,7.4,6.7,11,2.1,3.5,5.5,12,7.2,14,1.7,1.9,13,19,16,24,2.7,5.4,6.7,17,9.3,20,2.7,3.9,6.9,11,6.9,11s6.5-9.3,11-15c4.8-5.6,10-17,15-23,4.8-5.8,12-16,15-22,3.6-5.8,9.9-19,11-21,1.1-2.7,2.3-11,3.8-14,1.5-2.7,2.1-8.1,2.1-8.1s-1.1-7.2,1.7-9.7c2.9-2.5,6.3-4.3,6.3-5.2,0-0.83-1.9-2.7-1.3-3.7,0.58-1-0.38-4.1-0.38-5.6,0-1.4,1.1-1.2,2.5-0.42,1.3,0.83,1.9-0.21,1.9-0.21s-0.76-4.5,0.4-5.6c1.1-1,1.9,0.41,1.9,0.41s-2.1-6.8,0.38-11c2.5-3.7,7.2-5,12-2.5s6.5,4.3,11,4.8c4.9,0.41,8.2,2.5,9.7,3.7s3.6,3.1,3.8,3.7c-22-3.5-23-1.4-25-0.2" fill-rule="nonzero" fill="#231f20"/>
    </g>
    <g id="g3437" transform="translate(360.4854,195.7575)">
     <path id="path3439" d="m0,0c-0.2,0.078-0.78-0.27-1.3-0.85-0.51-0.56-2.2-1.7-2.4-1.8-0.2-0.12-1.3-0.87-1.7-1.3-0.22-0.27-1.5-1.1-2.5-1.7-0.087,0.49-0.46,2.2-1.2,2.5-0.91,0.37-2.2-0.26-2.2-0.26s-0.35,1.9-1.6,2.2c-1.3,0.29-3.4-0.15-3.4-0.15s-0.043,0.075-0.11,0.17c0.096,0.27,0.19,0.54,0.21,0.83,0.11,1.5,0.68,4,0.87,5.2,0.092,0.58,0.1,1.7,0.23,2.6,0.13,0.96,0.37,2.1,0.42,2.4,0.097,0.64,0.097,1.7-0.78,1.8-1,0.049-1.9-0.28-2.2-1.6-0.29-1.3-1.2-3.4-1.4-4.8-0.16-0.9-0.64-3.5-0.96-4.8-0.23-0.92-0.26-1.6-0.18-2-0.62-0.89-1.2-2-1.6-3-0.24-0.61-0.64-1.2-1.1-1.6-0.72-0.44-1.4-0.46-2-0.034-0.63,0.45-1.7,3.1-2.5,3.9-0.92,0.92-2.4,1.4-3.8,1.3-0.68-0.073-1.4-0.35-1.5-1.1l-0.24-0.24,2-1.7s0.56-0.76,0.95-1.4,1.4-2.1,1.7-3.3c0.22-1.1,0.94-2.5,1.5-3.3,0.81-1.5,2.3-3.4,3-5.1-0.11-1.7-0.058-3.7-0.64-6.3-0.86-3.7-3.1-12-6.7-17-3.3-4.6-4.6-12-4.6-12-1.1-2.9-1.5-5.9-1.5-8.1-2.7-1.8-5.1-3.9-7-6-0.64,0.085-1.1,0.11-1.2,0.1-0.51-0.002-4.4-4.3-4.9-4.3-0.51-0.003-3.1-3.1-3.1-3.1l-3.6-2.4s-1.2-0.63-2.1-1.2c-0.86-0.58-1.3-0.14-3-1.1-1.9-1.1-2.7-2-3.5-2.5-0.32-0.22-1.1-0.94-1.9-1.7-2.3-0.38-4.1-0.79-4.4-0.67-0.43,0.16-1.1-0.29-1.9-0.84-0.34,1.5-0.51,2.7-0.51,2.7s1.3,1.9,1.8,3.7c0.53,1.8,0.95,4.9,0.95,4.9s1.8,0.51,2.2,1.7c0.42,1.2,1.2,4.8,1.4,6.7,0.058,0.51-0.024,0.87-0.17,1.1,0.38,0.63,0.69,1.3,0.58,1.5-0.21,0.32,0.64,3.1,0.32,3.3-0.32,0.21,1.2,1.5,0.64,2.1-0.54,0.64,0.64,3.2,0.32,3.6-0.32,0.43-0.43,2.7-0.86,3.4-0.43,0.75-1.5,2-1.4,2.9,0.11,0.85-0.11,2.4-0.54,2.7-0.43,0.32-0.96,2.8-1.7,3.2-0.74,0.44,0.11,1.6-1.4,2-1.5,0.43-4.3,2.4-6,3-1.7,0.64-4,0.32-4,0.32s1.1,1-2.3,0.85c-1.1-0.061-2.7-0.37-3.3-0.42-0.89-0.061-2.1-0.059-2.8-0.48-0.64-0.43-1.5-1.1-1.1,0.12,0.12,0.36-1.2,0.029-1.9-0.075-0.64-0.11-1.7-0.75-2.1-1.2-0.43-0.42-0.75-0.42-1.5-0.96s-1.1-0.21-2-1.2c-0.97-0.96-1.2-0.74-1.7-1.5-0.54-0.75-1.2-0.75-1.7-2-0.53-1.3-1.7-0.96-1.5-2,0.21-1.1-0.54-1.3-0.85-2.7-0.32-1.4-0.86-1.6-0.76-3.5,0.11-1.9-0.53-3.1,0-4.3,0.54-1.2-0.53-4.7-0.21-5.6,0.32-0.85,0.32-1.8,0.64-2.2,0.16-0.21,0.44-0.64,0.74-1.1-0.21-0.032-0.43-0.078-0.66-0.17-0.74-0.3-0.53-2.5-0.1-3.9,0.43-1.3,1.7-6.5,2.4-6.9,1.2-0.66,2.3,0.24,2.3,0.24s-0.087-1.8,0.36-3.9c0.46-2.1,2-4.1,1.6-5.2-0.087-0.21-0.14-0.47-0.2-0.75-0.65,0.13-1.2,0.22-1.6,0.28-1.4,0.18-2.9,0.67-4.4,1-2.6,1.9-5.2,4.8-8,5.2-3.4,0.52-5,1.4-5,1.4s-0.6,1.8-1.1,1.5c-0.46-0.34-1.6-0.71-1.6-0.71s-0.47,2.1-0.99,1.9c-0.52-0.17-1.9-0.33-1.9-0.33s-1.7,2.4-2.5,2.2c-0.78-0.26-2.3,0.021-2.3,0.021s-2.3,3.9-2.8,3.9c-0.18,0-0.88-0.13-1.8-0.38-2.5,2-5.2,3.8-7.7,5.1-1.8,2.5-3.1,4.4-3.4,5.3-0.37,1.1-1.6,9.6-8.5,19-5.4,7.4-6.7,14-7,16-0.17,1.2-0.76,2.1-1.4,2.7,0.069,0.68,0.17,1.4,0.3,1.9,0.4,1.5,1.9,2.7,2.1,3.8,0.28,1.1,0.29,3.1,0.7,4,0.41,0.98,1.6,2.3,1.6,2.3l1.3,0.88-0.028,0.22c0.49,1.1-0.64,2-2,2-1.8-0.083-3.2-1.2-3.9-2-0.7-0.86-1.7-3.5-1.7-3.5s-0.61-0.3-1.3,0.58c-0.62,0.82-1.8,2.7-2.8,3.9-0.29,0.58-0.73,1.5-0.91,2-0.27,0.78-0.71,1.9-1.2,3-0.53,1.1-1.6,2.8-2,3.8-0.46,1-1.2,1-1.8,0.78-0.61-0.24-0.67-1-0.56-1.4,0.11-0.42,0.47-1.4,0.47-1.4l1-3.7s0.48-2,0.89-3.2c-0.13-0.061-0.22-0.1-0.22-0.1s-1.4-0.51-1.8-1.2c-0.4-0.65-1.1-1.4-1.1-1.4s-1.7-0.23-2.2-0.84c-0.46-0.6-1.2-2.1-1.2-2.1s-0.28-0.12-0.59-0.36c-0.51,0.06-1.4,0.18-2,0.39-0.91,0.31-1.4,0.57-1.8,0.74-0.35,0.17-1.2,0.16-1.9,0.61-0.66,0.45-1.8,1-2.1,0.92-0.31-0.099-1.2-0.78-0.44-1.8,0.7-0.96,3.9-3.3,7.5-3.9,0.48-1.6,1.7-3.6,3.6-5.4,1.8-1.7,3.3-3.3,4.4-4.4,0.04-0.17,0.035-0.33,0.092-0.5,0.73-2.3,3-10,5.1-18,2.1-7.9,5.4-18,7.5-21,0.94-1.5,1.9-2.5,2.9-3.4,0.48-2.7,1.4-5.7,3.5-8.5,3-3.9,7.1-10,12-15,0.95-3.8,2.1-7.7,2.6-8,0.69-0.35,7.5-0.84,8.6-2.9,0.76-1.5,2.1-3.6,4.1-5.6,0.6-6.6,2.4-17,3.3-23,1.1-6.6-1.4-23-1.7-29-0.18-3.3-1.4-9.6-1.4-12,0-2.6,2.5-8.5,2-10-0.48-1.9-1.3-6.1-1.3-6.1s0.32,0.092,0.89,0.25c-1.8-3.8-4.4-8-5.5-10-1.4-2.8-0.2-3-0.2-4.3,0-1.4-3.4-7.7-6.5-14-3.2-6.5-5.5-15-5.7-17-0.2-1.8-1.8-3.2-2.8-4.7-0.99-1.6-1.2-9.7-1.4-11-0.2-0.98-2.8-2.8-3.6-4.1-0.8-1.4,0-3.8-0.6-5.3-0.59-1.6-2-8.1-2.4-9.3s-1.2-4.5-1.8-6.5c-0.59-2,0.4-8.3,0.4-8.9,0-0.59-1.2-2.6-1.6-6.7-0.4-4.2,0.4-18,0.4-18s-2.2-1.4-4.9-4.7c-2.8-3.4-4.1-11-4.1-11l-0.2-0.79c-0.2-0.79-1.4-6.1,1.2-7.7s6.1-2.4,6.1-2.4,1.4-2.8,2.8-4.1c1.4-1.4,3.8-2.4,10-1.8,6.5,0.59,5.7,2.8,5.9,3.4,0.2,0.59,0,5.9,0.59,6.3,0.6,0.39,3.6,1.6,4.5,2.4,0.99,0.79,0.79,4.5,1.6,5.5,0.79,0.98,5.9,5.9,6.7,7.5,0.79,1.6,3.2,5.3,3.8,11,0.58,5.3,0.58,16,0.58,16s1.6,2.4,2.8,3.9c1.2,1.6,3,8.3,3.2,9.7s3.6,5.1,4.1,5.7c0.59,0.59,1.6,3,1.4,4.1-0.2,1.2,1.4,2.4,3.4,5.5,2,3.2,9.5,19,9.9,20,0.4,0.99,5.1,4.5,6.1,5.1,0.99,0.59,2.2,5.5,2.8,5.9,0.6,0.39,6.3-8.3,11-17,4.7-8.9,13-26,16-32,2.8-5.9,10-27,13-32,2.8-5.5,8.1-8.7,8.1-8.7s0.6-4.2,1.8-4.3c1.2-0.19,3.2-0.98,3.2-0.98s-0.99-2.8-0.2-3.6c0.79-0.79,2-3.2,2-3.2l-0.6-2.8s0.2-2.2,1.8-2.8,5.9-0.6,10,0.59c4.3,1.2,6.1,4.1,6.1,4.1l4.7,2.4,0.99,1.8s-1.2,6.5-2.2,11c-0.99,4.7-4,6.9-4,6.9s-0.39,6.3-1.6,12c-1.2,5.9,0.79,13,0.79,15,0,1.4-1.8,2.4-2.6,3.2-0.79,0.79-0.79,5.7-1.8,7.9-0.98,2.2-4.5,9.9-6.1,16-1.6,5.7-5.9,9.3-5.9,9.3l-4.7,11s1.4,7.1-0.99,12c-2.4,4.5-7.7,19-7.7,19s2,5.3,0.79,8.1c-1,2.4-3.1,5.3-5.4,10-0.087,2.8-0.32,8.8-0.92,11-0.81,3.2,1.9,10,1.9,10s-0.29,14-0.45,20c-0.16,5.8,0,16,1.3,31,0.36,4.2,0.2,8.3-0.32,12,0.41,0.39,0.76,0.71,1.1,0.9,2.1,1.4,12,8.4,13,10,0.5,0.82,0.99,3.5,1.1,6.8,0.99,1.6,1.9,3.4,2.8,5.3,3.6,7.8,5.3,9.1,7.6,14,0.44,1,0.81,2.1,1.1,3.2,0.75,1.4,1.4,3,2,4.9,1.7,5.8,3.3,18,4.4,25,1.1,6.9,1.2,11,1.6,12,0.063,0.16,0.11,0.37,0.16,0.61,0.41,0.39,0.77,0.84,1.1,1.4,2.4,4.7,4,7.8,4.6,9.2,0.67,0.6,2.1,2.1,2.4,2.4,0.41,0.39,1.4,1.2,1.6,1.4,0.24,0.16,1.3,1.1,1.9,1.9,0.61,0.8,0.9,1.1,1.2,1.9-44-44-45-43-45-43" fill-rule="nonzero" fill="#231f20"/>
    </g>
    <g id="g3441" transform="translate(664.5523,236.6372)">
     <path id="path3443" d="m0,0c-0.21,0.082-0.8-0.28-1.4-0.88-0.53-0.58-2.3-1.8-2.5-1.9-0.21-0.13-1.3-0.9-1.7-1.4-0.23-0.28-1.6-1.2-2.6-1.7-0.092,0.5-0.47,2.3-1.3,2.6-0.94,0.38-2.3-0.27-2.3-0.27s-0.36,2-1.7,2.3-3.5-0.16-3.5-0.16-0.046,0.077-0.12,0.18c0.1,0.27,0.2,0.56,0.22,0.86,0.11,1.5,0.7,4.2,0.9,5.4,0.095,0.6,0.1,1.7,0.24,2.7s0.39,2.2,0.44,2.5c0.099,0.67,0.099,1.8-0.81,1.8-1.1,0.05-2-0.3-2.2-1.6-0.3-1.3-1.2-3.5-1.5-5-0.16-0.94-0.66-3.6-0.99-5-0.24-0.96-0.27-1.6-0.18-2.1-0.64-0.92-1.2-2.1-1.6-3.1-0.25-0.64-0.66-1.2-1.1-1.7-0.75-0.46-1.4-0.48-2.1-0.034-0.66,0.46-1.7,3.2-2.6,4-0.95,0.96-2.5,1.5-4,1.3-0.7-0.077-1.4-0.36-1.5-1.2l-0.24-0.25,2.1-1.7s0.58-0.79,0.98-1.5c0.41-0.67,1.5-2.1,1.8-3.5,0.22-1.1,0.98-2.6,1.6-3.4,0.84-1.6,2.4-3.5,3.2-5.3-0.12-1.8-0.06-3.8-0.67-6.5-0.89-3.9-3.2-12-7-18-3.4-4.8-4.8-13-4.8-13-1.1-3.1-1.6-6.2-1.5-8.4-2.8-1.8-5.3-4.1-7.3-6.2-0.67,0.09-1.1,0.11-1.2,0.11-0.53-0.003-4.6-4.4-5.1-4.5-0.53-0.002-3.2-3.2-3.2-3.2l-3.7-2.5s-1.3-0.65-2.1-1.2c-0.89-0.6-1.4-0.15-3.1-1.1-2-1.1-2.8-2-3.6-2.6-0.33-0.23-1.2-0.98-2-1.8-2.4-0.39-4.2-0.82-4.6-0.69-0.45,0.16-1.1-0.3-2-0.88-0.35,1.6-0.53,2.8-0.53,2.8s1.3,1.9,1.9,3.8c0.55,1.9,0.99,5.1,0.99,5.1s1.9,0.53,2.3,1.8c0.44,1.3,1.2,5,1.4,7,0.061,0.53-0.024,0.9-0.17,1.2,0.39,0.66,0.71,1.4,0.6,1.5-0.22,0.33,0.67,3.2,0.33,3.4-0.33,0.22,1.2,1.6,0.67,2.2-0.56,0.67,0.67,3.3,0.34,3.8-0.34,0.45-0.45,2.8-0.9,3.6-0.44,0.77-1.5,2.1-1.4,3,0.11,0.89-0.11,2.4-0.56,2.8-0.44,0.33-1,2.9-1.8,3.3-0.77,0.45,0.12,1.7-1.4,2.1-1.6,0.44-4.4,2.4-6.2,3.1-1.8,0.67-4.1,0.33-4.1,0.33s1.1,1.1-2.4,0.89c-1.1-0.063-2.8-0.39-3.5-0.43-0.92-0.063-2.2-0.061-2.9-0.5-0.66-0.44-1.5-1.1-1.1,0.13,0.13,0.38-1.3,0.029-1.9-0.08-0.67-0.11-1.8-0.78-2.2-1.2-0.44-0.44-0.78-0.44-1.6-1-0.78-0.56-1.1-0.22-2.1-1.2-1-1-1.2-0.77-1.8-1.6-0.56-0.78-1.2-0.78-1.8-2.1-0.55-1.3-1.8-1-1.6-2.1,0.22-1.1-0.56-1.3-0.88-2.8-0.34-1.4-0.89-1.7-0.78-3.7s-0.56-3.2,0-4.4-0.56-4.9-0.22-5.8c0.34-0.88,0.34-1.9,0.67-2.3,0.16-0.21,0.46-0.67,0.77-1.1-0.22-0.034-0.44-0.082-0.68-0.18-0.77-0.31-0.55-2.6-0.1-4,0.44-1.4,1.7-6.8,2.5-7.2,1.2-0.69,2.4,0.25,2.4,0.25s-0.089-1.9,0.38-4,2.1-4.3,1.6-5.4c-0.089-0.22-0.15-0.49-0.2-0.78-0.68,0.14-1.3,0.23-1.7,0.29-1.4,0.19-3,0.69-4.6,1-2.7,1.9-5.4,5-8.3,5.4-3.6,0.54-5.2,1.4-5.2,1.4s-0.62,1.9-1.1,1.5c-0.48-0.35-1.7-0.74-1.7-0.74s-0.49,2.1-1,2c-0.54-0.18-2-0.34-2-0.34s-1.8,2.5-2.6,2.2c-0.81-0.26-2.4,0.022-2.4,0.022s-2.3,4-2.9,4c-0.19,0-0.92-0.14-1.8-0.4-2.6,2.1-5.4,4-8,5.3-1.8,2.6-3.2,4.6-3.5,5.5-0.38,1.2-1.7,10-8.8,20-5.6,7.6-7,14-7.3,16-0.18,1.3-0.79,2.2-1.5,2.8,0.071,0.7,0.17,1.4,0.31,1.9,0.41,1.5,1.9,2.8,2.2,4s0.3,3.2,0.73,4.2,1.7,2.4,1.7,2.4l1.3,0.91-0.027,0.22c0.51,1.2-0.66,2.1-2.1,2.1-1.8-0.085-3.3-1.2-4-2.1-0.72-0.89-1.8-3.7-1.8-3.7s-0.63-0.31-1.3,0.6c-0.64,0.86-1.9,2.8-2.9,4-0.3,0.61-0.76,1.6-0.94,2.1-0.28,0.8-0.74,2-1.3,3.1-0.55,1.1-1.6,2.9-2.1,4-0.48,1.1-1.3,1.1-1.9,0.81-0.64-0.25-0.7-1-0.58-1.5,0.11-0.43,0.49-1.5,0.49-1.5l1.1-3.8s0.5-2,0.92-3.3c-0.14-0.062-0.23-0.11-0.23-0.11s-1.4-0.53-1.9-1.2c-0.41-0.68-1.2-1.4-1.2-1.4s-1.8-0.24-2.2-0.87c-0.47-0.62-1.3-2.1-1.3-2.1s-0.3-0.13-0.61-0.37c-0.53,0.062-1.4,0.19-2,0.4-0.94,0.32-1.5,0.59-1.8,0.76-0.36,0.17-1.3,0.16-1.9,0.63-0.68,0.47-1.8,1.1-2.2,0.95-0.32-0.1-1.2-0.81-0.45-1.8,0.73-0.99,4.1-3.4,7.8-4,0.49-1.6,1.7-3.8,3.7-5.6,1.9-1.8,3.4-3.5,4.6-4.5,0.041-0.18,0.036-0.34,0.094-0.52,0.76-2.3,3.1-10,5.3-19,2.2-8.1,5.6-18,7.8-22,0.98-1.5,2-2.6,3-3.5,0.5-2.8,1.5-5.9,3.7-8.8,3.1-4.1,7.4-11,12-16,0.98-3.9,2.1-8,2.6-8.3,0.72-0.37,7.8-0.87,8.9-3,0.79-1.5,2.2-3.8,4.3-5.8,0.62-6.8,2.5-18,3.4-24,1.2-6.8-1.4-24-1.8-31-0.19-3.4-1.4-9.9-1.4-13,0-2.7,2.6-8.8,2.1-11-0.5-2-1.3-6.3-1.3-6.3s0.33,0.097,0.92,0.26c-1.9-4-4.6-8.3-5.7-10-1.4-2.9-0.21-3.1-0.21-4.5s-3.5-8-6.8-15c-3.3-6.8-5.7-15-5.9-17-0.2-1.8-1.8-3.3-2.9-4.9-1-1.6-1.2-10-1.4-11s-2.9-2.9-3.7-4.3c-0.83-1.4,0-3.9-0.62-5.5-0.61-1.6-2-8.4-2.5-9.6-0.42-1.2-1.2-4.7-1.8-6.8-0.61-2,0.41-8.6,0.41-9.2,0-0.62-1.2-2.7-1.6-7-0.41-4.3,0.41-18,0.41-18s-2.3-1.4-5.1-4.9c-2.9-3.5-4.3-12-4.3-12l-0.21-0.82c-0.2-0.82-1.4-6.4,1.2-8,2.7-1.6,6.4-2.5,6.4-2.5s1.4-2.9,2.9-4.3c1.4-1.4,3.9-2.5,11-1.8,6.8,0.62,5.9,2.9,6.1,3.5,0.21,0.61,0,6.1,0.61,6.6,0.62,0.41,3.7,1.6,4.7,2.5,1,0.82,0.82,4.7,1.6,5.7,0.82,1,6.2,6.1,7,7.8,0.82,1.6,3.3,5.5,3.9,11,0.61,5.5,0.61,17,0.61,17s1.6,2.5,2.9,4.1c1.2,1.6,3.1,8.6,3.3,10,0.21,1.4,3.7,5.3,4.3,6,0.61,0.61,1.6,3.1,1.4,4.3-0.21,1.2,1.4,2.5,3.5,5.7,2,3.3,9.8,19,10,20,0.41,1,5.3,4.7,6.4,5.3,1,0.61,2.3,5.7,2.9,6.1,0.62,0.41,6.6-8.6,11-18,4.9-9.2,14-27,16-34,2.9-6.1,11-28,14-34,2.9-5.7,8.4-9,8.4-9s0.62-4.3,1.8-4.5c1.2-0.19,3.3-1,3.3-1s-1-2.9-0.21-3.7c0.82-0.82,2.1-3.3,2.1-3.3l-0.62-2.9s0.21-2.3,1.8-2.9c1.6-0.62,6.1-0.62,11,0.61,4.5,1.2,6.4,4.3,6.4,4.3l4.9,2.5,1,1.8s-1.2,6.8-2.2,12c-1,4.9-4.1,7.2-4.1,7.2s-0.41,6.6-1.6,13c-1.2,6.1,0.82,14,0.82,15,0,1.4-1.8,2.5-2.7,3.3-0.82,0.83-0.82,6-1.8,8.2-1,2.3-4.7,10-6.4,16-1.6,5.9-6.1,9.6-6.1,9.6l-4.9,11s1.4,7.4-1,12c-2.5,4.7-8,20-8,20s2.1,5.5,0.83,8.4c-1.1,2.5-3.2,5.5-5.6,11-0.092,2.9-0.34,9.1-0.96,12-0.84,3.3,2,10,2,10s-0.3,15-0.47,21,0,17,1.3,32c0.37,4.3,0.21,8.6-0.34,13,0.42,0.41,0.79,0.73,1.1,0.93,2.2,1.4,12,8.7,13,10,0.52,0.84,1,3.6,1.1,7.1,1,1.7,2,3.5,2.9,5.5,3.8,8.1,5.5,9.4,7.9,15,0.46,1.1,0.84,2.2,1.1,3.4,0.77,1.5,1.5,3.1,2,5.1,1.8,6.1,3.4,18,4.5,26,1.1,7.1,1.2,12,1.7,13,0.065,0.17,0.12,0.39,0.16,0.64,0.42,0.41,0.8,0.87,1.1,1.4,2.5,4.8,4.2,8,4.7,9.5,0.7,0.62,2.2,2.1,2.5,2.5,0.42,0.4,1.4,1.2,1.7,1.4,0.25,0.17,1.4,1.2,2,2,0.63,0.83,0.93,1.2,1.3,2-40-30-41-29-41-29" fill-rule="nonzero" fill="#231f20"/>
    </g>
    <g id="g3445" transform="translate(731.2073,168.9073)">
     <path id="path3447" d="m0,0s-0.72,0.74-2.1,2.6-1.2,3.8-1.2,3.8,2.2-2.2,2.8-3.5c0.56-1.4,0.5-2.9,0.5-2.9m37,28c-0.63,1.4-2.1,3.4-2.1,3.4,1.9-0.84,2.1-3.4,2.1-3.4m67-14c-1,2.4-4,11-11,21-6.6,10-16,24-16,25-0.46,0.83-1.6,3.2-1.6,3.2s-0.092,6.1-0.83,9.2-3.2,8.6-3.2,8.6,0.087,2.3-0.095,3.3-1.6,1.9-2.5,1.8c-1.1-0.18-2.2-0.32-2.1-4.4l-0.97-0.046s-0.73,2.5-1.2,3.6c-0.46,1.1-2.2,1.9-3.2,1.5-1-0.37-1.6-1.3-1.7-2.2-0.046-0.87,0.14-2.4,0.14-2.4l-0.089-0.46s-0.74,1.6-1.5,2.1c-0.78,0.5-2.8-0.14-3.4-1.2-0.51-1-0.51-3.4-0.51-3.4l-0.55-0.46-0.74,0.046s-1.8,2-3.5,4.6-3.3,4.8-4.4,6.7-2.7,3.3-2.7,3.3-0.73,1.1-1.5,0.6c-0.78-0.46-0.64-1.6-0.55-2.2,0,0-0.14-1.9,1-3.9,1.2-2,1.3-2.3,1.6-3.1,0.28-0.74,1.9-3.1,2.9-4.4,0.96-1.2,1.9-3.3,2.4-4.3,0.51-1,1.2-4,1.9-5.6,0.65-1.6,0.83-3.4,0.83-3.4l5-6s-1.3,0.64-1.9,1.2c-0.64,0.6-2.6,0.92-3.9,0.74s-2.3-0.78-2.3-0.78-0.92,0.044-1-0.41c-0.096-0.46,0.92-2.2,3.8-3,0,0,2-1.5,3.6-2.5,1.6-0.96,2.1-1.6,3.1-2.3,1-0.78,3.2-1.6,5.3-2.6,2.1-0.96,4-1.6,4-1.6s2.8-2.8,6.3-8.8c4.7-8,10-21,14-29,3.5-7.8,4.3-8.3,4-9.8-0.37-1.6-3.4-6.3-6.2-13-2.7-6.5-3.9-9.2-3.9-9.2s-6.9-3.5-11-7.6c-4.6-4.1-8.7-7.5-8.7-7.5s-1.1,0.24-2.6,0.67c0.019,0.007,0.062,0.037,0.062,0.037s-0.3,0.49-0.86,0.67c-0.18,0.061-0.42-0.072-0.66-0.27-1.4,0.46-3,1-4.2,1.7-1.6,0.9-2.3,1.6-2.6,2-0.32,0.42-0.3,0.64-0.3,0.64s0.37,5.8,0.092,11c-0.21,4.2-0.48,4.6-0.58,4.6-0.032,0-0.056-0.051-0.056-0.051s-0.28,4-0.37,6.2c-0.094,2.2-0.37,2.9-0.37,2.9s1.6,0.27,2.6,3.6,0.46,5,0.28,7-0.18,3.5-0.56,5c-0.33,1.4-0.92,1.8-1,1.9-0.015,0.007-0.024,0.012-0.024,0.012s-0.43,0.98-1.1,1.5c-0.67,0.49-2.6,2.1-2.6,2.1s-0.43,2-1.2,3.1c-0.8,1.1-1.4,2.8-1.4,2.8s0.18,1.5-0.86,2.9c-1,1.3-1.8,1.3-1.8,1.3s-1.4,0.98-1.8,2c-0.43,0.98-5.4,3.7-6.9,4.7s-4.9,1.3-5.5,1.6c-0.61,0.25-1.2,0.25-1.2,0.25s-0.3,0.43-0.55,0.37c-0.24-0.063-0.61-0.56-0.61-0.56s-0.98,0.56-1.5,0.86c-0.49,0.31-2,0.68-2.4,0.62-0.49-0.063-1.5-0.92-1.5-0.92l-1.5-0.31s-1.3-0.18-1.6-0.37c-0.3-0.18-0.55-0.43-0.55-0.43s-0.98-0.063-1.4-0.43c0.4-2-0.8-2-1.2-3-0.3,0-2.8-2-3.6-2-0.78-1-1.4-2-1.5-2-0.06,0,0-1-0.18-1-0.19,0-0.12,0-0.55-1-0.41,0-1.3-1-1.5-1-0.1-1-1.4-2-1.6-2-0.1,0-1.2-5-1.3-8s0.1-6-0.1-7c-0.1-1-0.3-3-0.1-4.4,0.18-1,1.4-2.8,1.4-2.8s0-2.4,1.1-4.2,2.4-2.9,2.4-2.9,0.8-1.1,1.2-2.1c0.43-1,2.1-2.4,2.1-2.4s0.073-0.41,0.22-1c0.24-0.92,0.67-2.3,1.4-3.3,1.2-1.7,2.3-1.5,2.3-1.5s1.5-2.6,2.6-4.7c1.2-2.1,2.6-3.7,3.3-4.1,0.063-0.043,0.12-0.084,0.17-0.12,0.52-0.37,0.63-0.68,0.63-0.68l0.061-3.9s-0.056-0.026-0.15-0.07c-0.68-0.35-3.7-1.8-6-2.4-0.56-0.13-1.1-0.25-1.7-0.36,0,0.11-0.005,0.18-0.005,0.18s-0.24,0.55-0.86,0.43c-0.39-0.082-0.52-0.55-0.57-0.88-1.6-0.28-3.1-0.43-3.7-0.29-1,0.25-6.9,5.7-12,7.8-5.4,2.1-11,3.9-15,4.7-3.8,0.74-11,1.5-18,5.1-6.7,3.5-14,7.8-19,9.4,0,0,1.2,2.1,2,3.7s6.4,11,10,17c4.1,5.6,13,12,16,15,3.2,3.1,4.7,4.9,5.4,5.7,0.74,0.79,4,1.6,5.9,2.9s4.8,2.4,6.4,3.7,3.9,3.1,5.6,4.9c1.8,1.8,2.6,3.1,2.6,3.1l2.3,2.4c1,1.4,1.6,2.2,1.3,2.3-0.24,0.061-0.73-0.24-0.73-0.24s-1.3,0.61-3.1,0l4.1,4.1c0.8,1.4,2.5,4.3,3.6,6.4,0.54,1,1.2,3.4,1.3,4.1,0.06,0.73-0.24,1.2-0.74,1.2-0.3,1-0.7,0-0.7,0s-2.1-0.92-3.1-2.6c-0.98-1.7-1.2-2.7-1.2-2.7s-1.2-1.1-1.8-2.1c-0.67-1-1.1-1.8-1.1-1.8s-2.2-2-3.3-3.1-1.5-1.4-1.5-1.4l-1.8-0.058,0.3,0.92s1.6,3.4,1.9,4.4,0.36,1.4-0.25,2.1c-0.61,0.67-2.4,1.7-2.4,1.7s0.43,1.8,0.12,2.2c-0.31,0.43-1.3,1.2-2.1,1.5-0.86,0.31-2.3,0.31-2.3,0.31s-0.92-0.37-0.73-0.98c0.18-0.61,0.61-2,0.61-2s-0.86-1.3-1.2-2.1c-0.3-0.86-1.7-2.4-1.7-2.4h-1s-0.12,0.98,0,1.6c0.12,0.61,1.4,2.9,1.9,4.2,0.49,1.3,1.4,2.6,2,3.7,0.55,1.1,0.73,2.7,0.79,2.9,0.063,0.18,0.12,1-0.37,1.4-0.48,0.36-1.1-0.55-1.1-0.55s-1.1-0.24-1.9-1.5c-0.79-1.3-1.3-2.8-1.3-2.8s-0.86-1.5-1.3-2.4c-0.43-0.86-0.87-2-1.4-2.9-0.79-1.2-3.1-4-4-4.9-0.86-0.92-4.8-6.3-6.1-8.3s-2-3.4-2.6-5.1c-0.62-1.7-0.98-3-0.98-3s-7.5-8.3-16-14c-10-6-15-12-21-17l-12-12c-2.1-1.6-2.3-4.3-1.5-6.4,0.79-2.1,4.4-5.5,5.9-7.2s8.1-6.5,16-13c7.8-6.7,20-14,27-18,7.4-3.9,13-7.2,16-11,2.7-3.9,5.7-11,7.2-15,0.51-1.5,1-3.7,1.5-6-0.27-0.45-0.47-0.78-0.65-0.93-0.43-0.37-1.1-0.86-1.3-1.3-0.24-0.43-1.8-7.3-3.4-14-1.6-7.1-2.5-11-3.9-13-1.3-1.2-5.1-2.4-8.4-4.6-3.4-2.1-4.5-2.3-5.2-4.7-0.74-2.4-1.1-6.7-1.3-6.9-0.18-0.18-3.4-3.9-5.9-6.7-2.2-2.6-3.1-4.3-3.7-5.8-0.28-0.15-0.97-1.1-1.4-2.2-0.62-1.4-1.5-2.9-1.4-3.5,0.012-0.12,0.25-0.32,0.58-0.57-0.094-0.2-0.18-0.37-0.25-0.48-0.55-0.86-7.8-19-9.1-43s-2.8-35-4.2-41c-1.4-6.1-1.9-8.2-1.9-8.2,2.3-1.8,5.9-3.3,9.1-3.1,2.8,0.16,10,0.89,16-0.78,0.64-2.3,1.3-4.9,1.9-7.5,2.6-10,4.5-18,4.4-30-0.094-12,0.79-26,5.6-39s12-26,14-30c1.3-4.4,0.5-8.1,0.98-10,0.46-2.1,2-3.3,2.7-5.1,0.79-1.8-0.59-4.6-0.68-5.8-0.097-1.2,0.78-3.1,0.78-4.7s-0.69-5.8-1.6-7.8c-0.88-2.1-0.78-2.9-0.095-4.2,0.69-1.3,0.78-2.4,1.2-3.5,0.39-1.2,1.7-2.2,2.2-2.1,0.49,0.092,1.3,0.49,1.3,0.49s0.49-1.7,2.2-2.2c1.7-0.49,2.5,0.19,2.5,0.19s0.39-1.3,2.2-1.6c1.8-0.29,2.3,0.2,2.3,0.2s0.59-0.98,2.3-0.78c1.7,0.19,2.6,1.5,2.6,1.5s1.9-1.3,3.7-0.69c1.9,0.59,3.1,2.7,3.1,3.6,0,0.89-1.2,2.7-1.2,2.7s-0.39,2-0.3,3.8c0.099,1.9-2.2,5.3-2.9,7.1-0.68,1.8-2.4,9-2.9,12-0.59,2.8-2.6,7.1-2.8,9-0.2,2-0.78,3.8-1.3,5-0.48,1.2-4.5,7.8-5.4,10-0.88,2.4-0.98,20-0.98,20s4.5-6.2,6.8-13c2.3-6.5,2.1-13,1.6-15-0.49-1.9,0.19-3.8,0.49-5.5s-0.097-3.5,0.49-5.3,3.6-8.9,4.7-13c1.1-4.2,2-11,3.8-13,1.9-2.3,2.3-3.4,3.3-4.3,1.1-0.88,3.4-1.9,5.5-1.6,2.1,0.29,2.5,1.9,2.5,1.9s2-1.8,3.4-1.1c1.5,0.68,1.6,2.2,1.6,2.2s1.4-0.59,2.5,0c1.2,0.59,1.1,1.7,1.1,1.7s1.1,0.39,1.8,1.2c0.69,0.78-0.099,2.1-0.099,2.1s0.3,0.097,0.59,0.98c0.3,0.88-0.88,2.6-0.88,2.6s-2.8,4.1-5.3,6.9c-2.5,2.7-6.3,7.8-8.9,13-2.7,5.6-2.8,8.7-2.5,11,0.4,2-0.29,5-0.69,6.5-0.39,1.5,2.1,8.8,3.8,16,1.8,7.6,0.58,18-0.98,25-1.6,7.2-3.9,8.5-4.3,12-0.39,3.8,3.7,21,6.2,29,0.058,0.18,0.11,0.38,0.16,0.57,4.3-0.097,7.4-0.019,9.1,0.87,2.2,1.2,1.8,1.8,1.5,2.6-0.36,0.74-0.64,2,0.65,2.9,1.3,0.92,1.1,1.4,2.2,6.7,1.1,5.4,2.8,15,2.9,39,0.092,24-0.094,38-0.094,38s1.9-0.74,3.1-1.8c1.2-1,1.1-1.1,1.5,0.55,0.37,1.7,1.8,4.5,5.3,7.6,3.4,3.1,5.1,4.5,4.4,7.4-0.65,2.9-3,5.2-1.8,11,1.2,6,2.9,11,2.8,13-0.19,2.1-0.55,3.9,2.4,8.7,2.9,4.9,4.1,13,5.1,16,0.93,3.6,3.8,9.1,4.1,12,0.041,0.38,0.043,0.9,0.031,1.5,3.4,9.1,3.8,12,6.6,17,4.2,8.6,12,21,19,31s10,22,12,30c1.9,7.3,2.8,9.6,3.9,12,1.2,2.1,0.18,3.9-0.82,6.2" fill-rule="nonzero" fill="#231f20"/>
    </g>
    <g id="g3449" transform="translate(153.0361,-72.5137)">
     <path id="path3451" d="m0,0c-0.21-0.96,0-2.1,0-2.1s-1.6,3.2-3.3,6.4-2.6,6.9-2.9,13c0,0,1.5-2.8,3.6-5,2.2-2,2.7-4.9,2.9-7.1,0.22-2.2-0.1-3.9-0.31-4.9m6.8,310c2.1-2.3,2.8-5.3,2.8-5.3s-1.6,3.3-3.7,5-4.9,2.6-4.9,2.6,3.6-0.038,5.7-2.4m140,36c-0.37,0.21-1.6,0.37-3,0.16s-3.7-0.43-6.6-0.8c-3-0.37-5,0.055-6.2-0.37-1.2-0.43-9.8-2.5-13-3.7-3.1-1.2-6.5-2.8-11-6.3-4-3.5-8.2-11-19-20-10-9.4-13-13-16-17-2.7-3.8-3.8-5-6.9-7.8s-13-12-17-16c-4.6-3.4-9-4.4-16-8.6-6.7-4.2-11-8.1-11-8.1s-1.6-0.024-3,0.1c-0.27,0.28-0.53,0.51-0.85,0.64-0.65,0.28-0.92-0.13-1-0.3-1.7,0.48-4.8,1.6-6,2.9-1.5,1.5-2,5.7-2,5.7s2.3,1.3,3.3,2.3c0.96,1,2,3.6,2.1,6.6,0.053,3.1,0,5.9-0.69,11-0.7,5.2-2.2,6.9-3.9,9-1.8,2.1-2.9,4.7-2.9,4.7s-0.029,0.14-0.092,0.53c-0.041,0.3-0.1,0.78-0.17,1.5-0.16,1.6-1,3.2-1,3.2s-1.2,3.6-3.7,5c-2.5,1.5-5.3,1.7-5.3,1.7s-1.3,1.5-4.9,2.4c-3.7,0.9-5.7-0.27-5.7-0.27-4.9,0.96-8.4-0.58-10-1.8s-4.6-3.8-5.6-6.1-2-4.7-2.1-5.5c-0.11-0.8,0.15-1.7,0.15-1.7l-0.21-0.7s0.053-1.4,0.26-3.2c0.22-1.9,1-3.4,1.1-3.8,0.1-0.42,0.26-1,0.26-1s1.1-3,1.3-3.9c0.16-0.86,1.9-4.5,1.9-4.5s-0.79-1.4-1.3-4.5c-0.43-2.7-0.74-6.9-0.78-7.6-0.012-0.082-0.012-0.14-0.012-0.14s-8.1,7.7-9.8,9.4c-1.6,1.7-2.2,3.2-3.8,7.9-1.6,4.6-4.7,10-5.6,12-0.9,1.9-1,2.8-0.85,3.3,0.16,0.53,0.85,1.4,3.5,4.5,2.7,3,6.9,9.1,13,15,5.7,6.1,13,12,15,13,1.4,1.1,3.5,1.9,4.2,2s3.4-0.055,4.8,0c1.4,0.051,2.9,0.74,4.1,0.85s3.2,0.21,4,0.64c0.79,0.43,2.3,0.96,4.4,1.5,2.1,0.58,3.4,0.64,3.4,0.64,1.7,0.37,2.7,1.3,2.7,1.8,0,0.42-0.86,0.32-0.86,0.32s-1,0.95-2.4,1.3c-1.4,0.32-2.6,0-4.1-0.37s-2.7-0.11-2.7-0.11c0.74,0.9,2.1,1.8,3,2.9,0.85,1.1,1.8,2.4,1.8,2.4s0.33-0.11,0.9-0.22c0.59-0.11,1.1,0.1,1.1,0.1s0.21,0.53,0.26,1.6c0.054,1.1-0.049,1.3-0.049,1.3,1.2,0.85,2.9,2.4,2.9,2.4s0.59,0.64,1.5,1.3c0.95,0.69,1.8,2.2,1.8,2.2l2,1.6c1.4,1.6,1.6,2.7,1.6,2.7,0.53,0.53,1,1,0.43,1.5-0.53,0.38-1.6,0.057-3.2-1-1.8-1.2-3.9-2.8-5.6-4.3-1.6-1.5-3.2-3-3.2-3s-0.16,0.21-0.53,0.26c-0.38,0.057-1.7,0.11-1.7,0.11s-0.1,1.3-0.64,2c-0.53,0.64-1.5,1.2-3.5,0.46-2-0.72-3.5-0.96-3.5-0.96l0.56,0.88c0.4,0.16,1.2,0.72,1.2,0.72,0.96,0,2.2,0.4,2.6,0.81,0.48,0.4,0.72,0.72,0.72,0.72,0.8,0.4-0.4,1.1-1.8,1.3-1.4,0.16-4,0.082-4.8-0.64s-3.2-3.4-3.2-3.4-1.8-0.88-4.8-3.8l-7.2-7.3c-0.56-0.4-1,0.079-2.4-1.3s-5.8-4.3-14-10c-8.2-6.2-21-16-23-18-1.7-1.8-2.4-2-4.4-3.7s-2.1-3.5-1.4-5.7c0.72-2.2,0.96-4.6,3.8-16,2.9-11,8.7-25,15-34,5.9-8.8,9.6-21,12-27,2.2-4.7,3.3-9.9,3.6-14-0.088,0.12-0.17-0.53-0.17-0.53s-0.37-3.1-0.58-7.6-0.21-8.7-2.1-14c-1.9-5-6.9-7.5-8.8-9.5s-0.16-5.4,0.11-6.4c0.27-0.96-1.5-1.2-3.1-2.6-1.5-1.3-1.6-1.4-1.9-3.4-0.21-1.5-0.64-2.7-1-4.1-0.041,0-0.6,0.092-1-0.9-0.42-1-1.1-2.6-1.3-2.9-0.12-0.16-0.23-0.67,0.15-1.3-0.3-0.4-0.61-0.79-0.94-1.2-1.2-1.3-3.1-12-4.3-16-1.2-4.5-3.1-26-3.7-37-0.53-11-2.4-19-2.4-19,0-0.16-0.69-1.2-0.21-2.6s2.6-2.7,4.8-3.3c2.2-0.69,4.1,0.16,11-0.48,2.8-0.27,5.3-0.82,7.5-1.5,2-6.9,4-14,4.7-21,1.1-11,0.22-22,5-34,4.8-11,10-19,13-24,2.4-5,2.7-7.2,2.9-10,0.21-2.9,1.1-3.8,2.3-5.3,1.3-1.5,1.3-2.1,0.86-4.1-0.43-2,0.21-3.4,0.21-4.7s-0.95-5.4-1.4-7.1c-0.43-1.7,0.32-3.4,0.74-4.1,0.43-0.75,0.43-1.8,1.1-2.4,0.64-0.64,1.9-0.86,2.4-0.53,0,0,0.42-2.1,1.8-2.2,1.4-0.097,2.1,0.64,2.1,0.64s0-1.1,1.2-1.2c1.2-0.12,2.1,0.21,2.1,0.21s1.2-1.1,2.3-0.96c1.2,0.096,1.6,0.96,1.6,0.96s0.95-0.21,2.2-0.11c1.3,0.11,2.7,1.6,3,2.7,0.32,1-0.85,3-0.85,3v2.9c0,0.96-0.1,1.5-0.1,1.5s0.96-2.3,1.8-3.4c0.85-1.1,1.5-1.3,1.5-1.3s0.47-2.5,3.3-2.9c2.8-0.37,4.1,1.5,4.1,1.5s1.1-1.1,2.4-0.74c1.4,0.37,1.4,1.7,1.4,1.7s1-0.7,1.9,0.039c0.85,0.74,0.9,1.6,0.9,1.6s0.74-0.12,1.4,0.47c0.69,0.58,0.32,2,0.32,2s0.047,0.95-0.054,1.4c-0.11,0.48-1.7,2-2,2.3-0.26,0.32-0.79,2.6-2,4s-4.9,5.5-6.3,7.4-4,6.4-5,8.8c-0.96,2.4-0.8,5.1-0.9,6.3-0.11,1.2-0.53,2-1.1,2.9-0.59,0.95-1.1,2.4,0.1,9.3,1.2,7,1.7,13-0.64,21-2.3,7.3-4.8,9.7-5.3,14-0.54,4-0.54,10,3.2,20,0.41,1.1,0.8,2.2,1.2,3.3,0.89,0.18,1.6,0.34,2.1,0.38,1.8,0.1,6.7,1.2,7.2,1.3,0.47,0.11,0.37,0.95,0.26,2.1-0.1,1.2-0.1,1.7,1.1,6.9,1.2,5.3,2.4,18,2.7,23,0.32,5.5,0.43,19,1.2,27,0.8,8.5-0.43,13-0.43,13,1.4,1,2.8,2.5,2.8,2.5s0.86-0.37,1.1-0.48c0.26-0.1,0.64,0.27,0.64,0.27s0,1,0.37,3.2,0.47,1.8,1.8,3,3.3,3.4,3.8,4c0.48,0.64,1.4,1.1-0.16,4.2-1.6,3.2-2.8,3.7-2.8,3.7s-0.21,4.7-0.43,8.6c-0.21,3.9-0.27,5.7-0.1,6.4,0.15,0.69,0.48,3,1.1,7.5,0.63,4.5,1.9,6.2,2.6,10,0.64,4.1,2.1,12,2.7,13,0.64,1.7,1.3,6,1.4,7.3,0.12,1.3-0.61,2-0.23,2.8,0.39,0.73,2.1,2.6,2.5,3,0.42,0.42-0.12,0.35-1.7,1.7-0.039,0.029-0.08,0.072-0.12,0.11,0.76,2,1.5,3.8,2.1,5.3,1.5,3.7,3.1,7.6,6.5,11,3.4,3.5,9.2,9.2,15,14,5.6,5.3,8.1,9.2,12,14,3.9,5.1,7.1,8.7,7.9,9.4,0.79,0.74,2.8,3,4.1,4.4s2.7,2.9,3.9,4.1,4.2,5.4,7.9,9.7c3.7,4.4,8.7,12,12,16,3.3,4.1,8.1,11,8.8,12,0.74,0.85,1.9,1.3,3.1,1.2,1.3-0.054,2.4-0.42,3.8-0.32s3.6,0.63,4.7,0.85,3.5,0.27,3.5,0.27,0.48-0.37,1.2-0.64c0.7-0.27,1.6-0.64,1.6-0.64s0.33-0.48,1.2-0.91c0.85-0.42,1.1-0.58,1.6-0.95,0.47-0.37,1.3-1,1.3-1s1.2-0.38,1.8-0.32c0.6,0.053,0.8,0.69,0.8,0.69l0.48,0.69c0.32,0.69,0.59,2,0.53,2.8-0.049,0.74-0.16,2.1-0.85,3.1-0.68,1-1.8,2.2-2,2.2,0.13-0.009,1-0.05,1-0.05s0.37-0.32,0.8-0.96,1.5-1.8,1.5-1.8,0.27-1.2,1.1-2.5c0.8-1.3,1.4-1.2,1.4-1.2,0.11-0.16,0.53-0.64,0.7,0.64,0.16,1.3,0.27,3.1-0.11,4-0.37,0.9-1.9,3.9-2.4,4.4-0.53,0.53-2.8,1.4-2.8,1.4s0.95,0.37,1.6,0.8c0.64,0.42,1.1,1.2,1.1,1.2s0.48,0.37,1,1.1c0.53,0.69-0.37,1-0.37,1,1.2,0.21,2,0.11,3.2,0.69,1.3,0.59,1.3,1.1,1.3,1.1s0.6,0.11,0.75,0.54c0.16,0.42-0.53,0.64-0.91,0.85" fill-rule="nonzero" fill="#231f20"/>
    </g>
    <g id="g3453" transform="translate(-13.6222,4.8661)">
     <path id="path3455" d="m0,0c-0.79,1.5-1.8,3.4-1.7,3.8,0.12,0.43,0.55,0,1.1-0.73,0.36-0.6,1.8-2,3.1-3.5,0-0.89,0-1.8-0.1-2.8-1,1.2-1.7,1.9-2.4,3.2m-25,46c-4.9,7.4-9.8,17-12,21-2.4,4.6-2.8,6.1-2.6,6.8,0.18,0.73,3.2,5.5,6.8,10,3.6,4.7,6.3,11,7.5,13,1.3,1.7,2.1,3.3,2.2,3.4,0.88-1.2,1.8-2.4,2-2.7,0.37-0.54-0.54-1.2-0.088-2.5,0.46-1.3,1.3-3.8,1.5-5,0.18-1.2-0.83-0.73-0.46-2.1s2.3-6.2,3.3-11c1-4.5,5.5-21,6.5-25,1-4.5,2.5-10,2.5-10s-3.1-4.2-2.7-5.3c0.38-1.1,1.2-2.6,1.2-2.6s-2.8-2.6-4-4.3c-0.5,0.65-6.7,8.7-11,16m80,98c-0.22,0.11-0.44,0.21-0.66,0.32,0.006,0.019,0.009,0.029,0.009,0.029s-0.09,0.91-1,1c-0.14,0.012-0.36-0.041-0.63-0.13-1.6,0.93-3.3,2-5.1,3.3-1.7,2-1.5,3.8-0.34,8.6,0.003,0.01,0.01,0.019,0.013,0.034,0.031-0.049,0.039-0.087,0.066-0.14,0.097,0.23,0.23,0.43,0.39,0.63,0.9-0.62,1.5-1.5,2.7-1.7-0.82,0.38-1.4,1.2-1.7,2,0.51-0.6,1.1-1,1.8-1.4,0.82-0.5,1.9-0.66,2.6-1.2-0.99,0.44-3.2,1.6-3,3,1.4-0.66,3.3-2.7,5-2-0.5,0.13-1.2,0.56-1.4,1,1.4-0.7,3.3-0.19,4.8,0.28,1.4,0.47,3.3,1.1,4.3,2.2,0.52,0.53,0.93,1.1,1.3,1.7,0.055-1.5,0.081-3,0.038-4.4-0.046-1.6-0.21-3.3-0.37-5-2.6-1.9-5.3-4.3-8.7-8m65,58c-1,1.3-2.6,3.3-10,15-7.5,11-15,20-19,24-3.5,4.2-7.9,11-8.7,12-0.85,1.2-2,3-2.7,5.5-0.72,2.5-1.9,6.4-3.5,9.2-1.6,2.9-4.4,7.5-4.9,8-0.42,0.49-0.85,1.4-1.3,2.4-0.49,0.97-1.2,2.5-1.8,3.5-0.55,1-1.6,3-2.5,4.7-0.92,1.6-3.1,3-3.1,3-0.54,0.85-1.4,1.1-1.8,0.73-0.42-0.37-0.11-1.5,0-2.1,0.13-0.67,0.5-1.4,1.4-2.9,0.91-1.5,1.3-2.2,1.9-3.3,0.61-1.2,1-2.3,1.5-3.5,0.43-1.2,0.73-2.7,0.73-2.7s-0.67-0.36-1.1-0.059c-0.42,0.3-0.78,0.97-1.3,1.8-0.55,0.86-1.6,2.2-1.9,3-0.36,0.73-1.3,1.9-2.4,3.3-1.1,1.3-2.9,3.6-3.8,4.6-0.91,0.97-2.2,1.1-2.2,1.1-0.73,0.48-1.5,0.12-1.8-0.37-0.24-0.48,0.12-1.8,1.2-3,1-1.2,1.9-2.6,2.4-3.1,0.49-0.54,0.91-1.1,1.5-2.2,0.61-1.2,1.3-1.8,1.9-2.8,0.55-0.98,1.4-2.6,2.1-3.5,0.51-0.65,0.11-1.2-0.18-1.3-0.31-0.055-0.43,0.25-0.92,1-0.48,0.79-2.2,2.7-2.7,3.6-0.55,0.91-2,2.9-2.6,3.6-0.61,0.79-1.1,1.4-2.1,3.2s-2.6,3-2.6,3c-0.79,0.91-1.8,0.61-2,0-0.18-0.6,0-2.5,0.6-3.7,1-2,1.9-3.3,3-5.2,1.3-2.1,2.4-3.3,3.1-4.6,0.73-1.2,2.1-3.8,2.1-3.8s-0.66-0.058-1.3,0.13c-0.66,0.18-0.73,0.55-1.4,1.6-0.73,1.1-1.9,2.6-3.5,4.5s-1.6,2.2-3,4.5-3.2,3.3-3.2,3.3-0.85,1.4-1.8,0.73c-0.97-0.67,0-2.3,0-2.3,0.43-2.5,2.2-5.1,3.5-7.2s3.7-5.2,3.7-5.2-0.95,0.56-1.9,0.66c-1.2,0.12-2.6-0.18-2.6-0.18s-0.67,0.49-0.84,0.49c-0.18,0-0.12-0.55,0.42-1.2,0.54-0.67,2.6-2.8,2.6-2.8s0.6-0.79,1.3-1.9c0.67-1.1,1.1-1.1,2.7-3.2s2.9-4.7,4-5.5c1.1-0.79,4.2-2.2,6.4-3.9s5.1-2.7,6.2-4.3,4-5,7.5-10,10-16,14-26c4.3-10,8.9-17,9.2-19,0.34-2.5-0.34-3.1-1.5-4.5-1.1-1.5-2.6-2.3-7-9-2.6-4-5.2-8.4-7.5-12-4.2,6-9.6,10-13,11,0.014,0.044,0.041,0.095,0.056,0.14,0.053,0.46-0.45,0.79-0.68,1.2-0.69,1.4-0.73,3-0.52,4.5,0.2,1.6,1.2,2.8,1.7,4.3,0.41,1.2,0.36,2.6,0.43,3.9,0.16,3.3-0.18,6.8-1.6,9.8-0.83,1.8-1.5,3.7-2.9,5.1-1.4,1.5-2.8,2.8-4.3,4.2-3.2,2.7-7.2,4.5-11,5.6-2.8,0.76-5.6,0.92-8.5,0.92-1.8,0-3.6-0.036-5.3-0.64-0.013,1.3,1.6,2.3,2.8,1.9-0.45,0.79-2.1,0.27-2.6-0.19-0.61-0.59-1-1.4-1.4-2.1-0.35,0.45-0.28,1.1-0.31,1.6-0.31-0.57-0.24-1.1-0.37-1.7-0.18-0.81-0.56-0.42-0.96,0.036-0.34-0.57-0.78-1.3-0.8-2-0.6,0.12-1.1,0.59-1.6,0.89-0.069-0.58,0.5-0.95,0.71-1.4-0.49-0.022-1-0.048-1.5,0.044,0.089-0.16,0.18-0.44,0.29-0.6-0.49-0.2-1.1-0.4-1.6-0.49,0.051-0.058,0.074-0.19,0.16-0.28-0.87-0.59-1.9-1.1-2.9-1.6,0.16,0.015,0.32,0.073,0.48,0.097-1.2-0.6-2.4-1.2-3.3-2-2.9-2.4-5.2-4.8-5.2-4.8s-0.18,0.19-0.55,0.073c-0.36-0.13-0.55-0.73-0.66-1.3-0.12-0.61-0.61-2.6-0.61-2.6s-0.37-0.6-0.67-0.84c-0.31-0.24-1.2-1.9-1.5-2.2-0.36-0.3-1.5-0.058-1.5-0.058l1.7-1.8s-0.36-0.18-0.6-0.36-0.18-0.98-0.18-0.98c-2-1.3-3-1.5-4.8-2.7s-1.9-2-1.9-3.1,1-2.3,1-2.3-0.13-1.2-0.43-2c-0.3-0.86-1.4-1.8-1.4-1.8s-0.6-0.18-0.6-0.84c0-0.68,0.6-2.3,0.6-2.3l-1.2-0.67c-0.67-0.66-0.42-1.2,0.18-2.2,0.61-1,0-1.8-0.85-2.7-0.85-0.91-1.3-3.3-0.36-5,0.91-1.6,3.1-2.1,8.4-4.6,5.4-2.5,6.7-5.5,5-10-0.25-0.74-0.62-1.6-1-2.4-0.77-0.092-1.5-0.19-2-0.32-3.4-0.72-6.8-1.7-9.9-2.5,0.28,0.14,0.46,0.23,0.46,0.23s-1,0.46-2.4-0.36c-0.32-0.19-0.68-0.37-1.1-0.61-1.3-0.27-2.5-0.48-3.6-0.57-0.9-0.08-2-0.12-3.1-0.17-8.6,0.12-16,0.54-21-7.2-5.5-8.4-8.5-13-12-21-3.2-8.1-9.7-18-13-26-3.5-8-6-17-6.6-19-0.6-2.1-0.6-5,0-6.3,0.61-1.3,5.4-8.3,11-18,6-9.3,13-16,17-21,4.1-5.6,5.1-7.3,5.9-8.8,0.79-1.5,3-2.5,4.2-4.2s1.6-4.4,2.8-6.5c1.3-2.1,4.2-5.1,5.7-6.7s1.9-2.9,2.5-4.6c0.61-1.6,2.9-4.6,4.2-6.2s2-1.9,2-1.9,1-1.1,1.8-1.6c0.79-0.48,1.2-0.3,1.3,0.12,0.12,0.43-0.43,1.2-0.43,1.2s0.25,1.2-0.54,2.4-1.9,1.8-2.6,2.8c-0.62,1-1.8,3-1.8,3.4,0,0.42,0.42-0.18,0.97-0.97,0.54-0.79,3.1-3,4.1-4.2,0.45-0.56,1-1.1,1.6-1.6,0.017-2.7,0.11-5.5,0.36-8,0.91-9.5,1.6-28,2.8-34s3-16,4.3-19c1.3-3.2,1.6-5.9,1.6-6.6,0-0.73,0.92-0.46,2.3-0.83,1.1-0.28,2-1.2,4-1.8,0.12-0.43,0.25-0.87,0.37-1.2,2.8-8.7,2.1-16,1.7-22-0.43-5.2-1.7-5.9-3.8-12-2.2-5.8-3.8-12-2.3-20,1.5-8.7,3.6-18,3.6-19,0-1.4-0.53-2.5-0.53-3.9s0.35-3.1-0.34-5.8c-0.7-2.7-3.2-11-6-16-2.8-5.3-7.4-12-8.2-12-0.78-0.77-0.69-1.9-0.69-1.9s-0.61-1.2-0.35-2.1c0.27-0.87,0.96-1.2,0.96-1.2s-0.26-0.95,0.61-1.7c0.88-0.7,1.9-0.35,1.9-0.35,0.094-1.2,0.79-1.9,2.3-2.2,1.5-0.27,2.5,0.95,2.5,0.95,0.61-1.7,2.1-2,4.2-2s4.4,1.8,5.1,2.7c0.7,0.87,2.4,2.1,3.9,4.4s1.7,9.4,2.1,14c0.35,4.4,0.96,8.9,3.3,12,2.3,3,3.9,4.6,3.9,7.3s-1.3,4.4-2.2,6.7c-0.87,2.3,1.9,11,4.8,14,2.9,3.3,5.9,6,6.5,11,0.6,5.3,0.69,13,0.69,13s2.1,3.9,3.3,7.5,2.2,11,2.2,11,0.88-5.9,1.3-11c0.44-4.8-0.61-5.3-2.2-12s-0.69-17-0.52-29-0.44-11-2.4-16c-2-4.4-3.1-5.6-3.2-6.9-0.17-1.3-0.076-3-1.4-5.9-1.3-3-2.3-6.3-3.5-11-1.1-4.4-3.8-9-4.7-11-0.87-1.8-0.36-4.3-0.44-4.6-0.088-0.34-1.5-1.6-1.4-3.4,0.096-1.8,1.8-2.7,4.3-2.9,2.4-0.17,3.2,1.6,3.2,1.6s0.35-0.62,1.9-0.78c1.6-0.18,2,0.52,2,0.52s0.71-0.96,2.4-0.62c1.4,0.27,1.5,1.4,1.5,1.4,0.96-0.84,1.9-0.36,2.7,0.24,0.84,0.6,1.1,2,1.1,2,1.3-0.24,2.3,0.24,3.9,1.8,1.7,1.6,1.7,4.2,1.6,7.3-0.12,3.1-0.12,4.3,0.96,6.5s1.1,4.2,0.36,5.9c-0.72,1.7-0.59,3.6,0.12,4.8,0.72,1.2,0.84,1.8,1.2,6.7s1.1,9.1,5.1,19c4,9.5,9.2,19,10,32,0.75,9.4-0.24,23-0.59,27-0.37,4.7,0.11,6.7,1.6,14,0.62,3.3,1.7,6.8,3,11,4.1,1.3,7.3,2.4,11,3.3,7.9,2.1,13,5.7,14,8.7,1.1,3,0,4.5,0,6.2s-0.18,8.1-0.18,8.1,4.9,2.6,7.9,3.9,4.2,2.1,3.7,3.3c-0.45,1.2-3.4,10-5.9,23s-6.4,28-10,35c-3.9,7.5-9.5,14-13,18-0.14,0.15-0.25,0.27-0.37,0.39-0.26,1.2-0.75,2.1-1.1,2.7-0.6,0.85-1.4,1.1-1.7,1.2-0.38,0.98-0.48,2-0.4,3.3,0.18,3-0.46,4.5-1.7,5.4-1.3,0.91-2.4,0.82-2.4,0.82s0.73,3.4-2.4,7.2-9.3,9.3-9.3,9.3-0.64,8.8-0.46,16c0.18,6.8,0.18,8.8,0.18,8.8s-0.1-0.21-0.27-0.53c1.3,2.9,3.1,5.8,6.1,11,0.92,1.6,1.8,3.1,2.6,4.6,1.3-3.4,2.3-6.1,2.8-7.4,1.6-3.5,4.5-6.9,4.5-6.9l0.46,0.82s2.2-3.7,3.2-5.7,3.5-3.9,3.5-3.9l0.82,1.4c0.55-1.1,3.1-2.8,2.9-2.8-0.18,0,0,1.6,0,1.6,2.2-3.5,5-3.7,5-3.7s-1.1,2.2-1.6,4.1c-0.54,1.9-0.64,3.9-0.64,3.9,1.4-1.4,2.4-4.9,2.6-5.2,0.18-0.27,0.81-1.3,0.81-1.3l0.64,1.1,0.36-1.5,0.56,0.73c0.09-1.4,1.2-2.3,1.2-2.3-0.64,2.3,0.089,3,0.64,6.8,0.4,2.8-0.43,6.4-0.9,8,0.22-0.55,0.6-1.3,1.3-2,1.4-1.6,1.8-2.6,1.8-2.6l0.45,0.64,0.46-1.2,0.36,1.6c0.55-1.2,0.91-3.1,0.91-3.1s1.5,2.5,0.82,5.1c-0.64,2.6-1.4,4.2-1.4,4.2,0.92-2.3,3.1-3.2,3.1-3.2-1.8,1.6-1.6,6.2-1.6,6.2,0.63-1.5,1.6-2.2,1.6-2.2s3.5-1.5,1.4-0.032c-2,1.5-2.2,4.6-2.2,4.6,1.8-2.4,3.7-3.2,3.7-3.2-1.7,1.3-2,3.3-2.6,4.5-0.54,1.2-0.83,2.9-0.83,2.9,1.3-1.1,2.9-4.6,2.9-4.6s-1.3,5.8-3.2,7.6c-1.9,1.7-3.4,5.8-3.4,5.8s1.7-3,3.4-4.7,4.7-3.7,4.7-3.7-0.094,1.6-1.1,2.7-1.1,1.6-0.81,1.6c0.26,0,1.1-0.73,1.1-0.73l-0.18,1,1.1-0.46s-1.4,5.7-4.1,8.4c-2.7,2.6-3.7,3.6-3.7,3.6,2.2-1.2,3.4-0.51,3.4-0.51-0.85,0.14-5.7,3.1-8.9,9-0.93,1.7-2,4-3.1,6.7,2.6,3.9,5.3,8.1,7.8,12,4.9,8.1,11,20,14,28,3,7.4,3.8,9.5,4.7,12,0.98,2.7,0.42,5.4-0.61,6.7" fill-rule="nonzero" fill="#231f20"/>
    </g>
    <g id="g3457" transform="translate(217.9832,-74.2252)">
     <path id="path3459" d="m0,0c-0.11-0.42-0.17-0.87-0.26-1.3,0.13,3.6,0.02,7.6-0.17,12,0.11,0.01,0.26,0.034,0.32,0.048,0.22,0.044,0.64,0.087,1.2,0.14-0.1-4.4-0.39-8-1.1-11m-59,150c-0.18,0.36-0.34,0.78-0.47,1.3,0.17-0.43,0.33-0.86,0.47-1.3m12,57c0.3,0.82,0.15-1.4-0.25-2.4-0.16-0.39-0.29-0.65-0.41-0.86-0.062-0.027-0.12-0.058-0.19-0.085-0.057,0.068-0.16,0.14-0.32,0.22,0.51,0.99,0.92,2.4,1.2,3.1m2.3,4.6c0.65,4.8,2,7.3,2,7.3s-0.61-3.3-1.1-9.2c-0.14-1.6-0.24-3-0.28-4.3-0.93-0.49-1.9-0.96-2.9-1.4,0.098,0.12,0.19,0.26,0.24,0.41,0.25,0.7,1.4,2.4,2.1,7.2m54,38c0.3-1.7-0.64-3.2-1.3-4,0.11,0.84,0.14,1.3,0.082,1.2-0.14-0.2,0.85,0.92,0.73,1.3-0.14,0.33-0.41,0.99-0.41,0.99s0.27,1.5,0.072,1.5c-0.063,0-0.14,0.32-0.21,0.79,0.49-0.35,0.91-0.87,1.1-1.7m-7.4-30c0.49,0.75,0.97,1.5,1.5,2.4,0.77,1.4,1.2,2.7,1.5,3.7,0.029,0.034,0.054,0.082,0.078,0.12-0.54-2.1-1.5-4.5-3.1-6.2m-0.89-0.87c-1.8-1.5-3.7-2.8-5.2-3.8,0.8,1.1,1.6,2.2,2,2.9,1.1,0.77,2.2,1.7,3.3,2.6,1.2,1.1,2.1,2.6,2.7,4.1,0.21,0.18,0.4,0.38,0.59,0.58-0.3-0.96-0.75-2.1-1.4-3.3-0.68-1.2-1.3-2.2-1.9-3.1-0.005-0.002-0.01-0.012-0.019-0.017m4.3,12c-0.024,0.14-0.048,0.26-0.072,0.39,0.014,0.17,0.024,0.34,0.029,0.5,0.053,0.089,0.097,0.17,0.14,0.26-0.019-0.38-0.058-0.76-0.1-1.2m-0.82-4.2c0.23,0.32,0.35,0.54,0.39,0.6-0.01-0.067-0.019-0.14-0.039-0.21-0.067-0.29-0.26-0.79-0.65-1.4,0.11,0.33,0.21,0.67,0.3,1m-0.77-1.7c-0.49-0.59-1.3-1.1-1.9-1.4,0.26,0.4,0.53,0.85,0.81,1.4,0.68,0.42,1.2,0.91,1.6,1.3-0.12-0.39-0.25-0.79-0.39-1.2-0.024-0.029-0.038-0.049-0.058-0.08m-3-3s0.32,0.41,0.76,1c0.36,0.14,0.81,0.35,1.4,0.8,0.2,0.14,0.4,0.3,0.59,0.46-0.6-1.4-1.4-2.6-2.5-3.7-0.95-0.88-2-1.7-2.9-2.4,0.64,1.1,1.6,3.2,2.3,4.7,0.3-0.41,0.34-0.89,0.34-0.89m4.5,7.9c-0.034-0.18-0.1-0.33-0.15-0.51,0.059,0.39,0.1,0.78,0.14,1.1,0.019-0.1,0.029-0.21,0.048-0.31-0.019-0.11-0.024-0.21-0.043-0.31m-0.15,1.5c0.01-0.014,0.01-0.034,0.015-0.048-0.063-0.92-0.2-2-0.44-3.2-0.42-0.94-0.98-1.7-1.6-2.2,0.44,0.92,0.85,1.9,1.1,2.9,0.25,1.1,0.58,1.9,0.91,2.6m46-210c-0.49,1.5-1.8,2.3-3.3,21-1.5,18-2.4,28-5.1,36-2.7,8.5-7,17-8.3,20-1.3,2.8-0.7,7.5-1.4,10s-2.8,4.9-4.9,6.1-2.6,1.4-1.8,2.3c0.79,0.89,1.2,4.3-1.2,5.3s-4.4,0.1-6.5,1.2-3.8,4.2-3.7,7.5c0.092,3.3,1.2,4.9,0.4,7.2-0.79,2.3-1.6,2-1.5,3.7,0.092,1.7,0.7,3-0.39,5.4s-0.71,3-0.79,4.9c-0.11,1.9,0.3,2.7-1.3,3.8-0.025,0.8-0.058,1.6-0.097,2.3-0.11,2-0.073,3.7,0.039,5.2,0.77,1.8,1.8,6.3,3.7,14,2.1,8.3,5.4,17,13,28,7.2,11,12,26,15,32,2.7,6.2,5.8,17,6.2,17,0.4,0.73,1.9,2.4,2.2,4.2,0.34,1.9-0.86,4.5-1.8,7.2-0.92,2.7-2.5,9.4-4.9,18-2.4,8.9-8.3,25-9.8,30-1.5,5.9-1.7,7.8-0.73,9.5,0.92,1.7,2,3.7,3.6,9.2s2.2,6.5,2.6,7.5c0.57,1.4,2.2,2.7,3,3.8s1.5,2,2.2,2.9c0.73,0.93,1.5,1.8,2.1,3,0.66,1.2,0.74,2.4,0.74,2.4s0.92,1.7,0.18,2.1c-0.72,0.34-1.6-0.85-1.6-0.85-1.6-0.072-3.3-3.7-4.3-4.9s-1.6-1.4-2.3-2.5c-0.72-1.1-1.6-1.8-2.5-2.6-0.86-0.8-0.78-0.067-0.78-0.067,0.59,1.9,1.9,3.8,2.2,4.8,0.27,0.93,0.27,1.7-0.46,2.4-0.73,0.65-1.9,0.79-2.3,0.46-0.46-0.33-0.86-1.7-2.3-3.8s-2.1-1.8-2.1-1.8c-0.13,0.66,1.2,3.9,1.2,5.3,0,1.3-0.79,1.9-2,2.1-1.2,0.13-1.8-0.6-2.4-2.5s-0.93-2.3-1.7-2.9c-0.8-0.6-1.2,0.66-1.5,1.5-0.26,0.87-0.068,4.6-0.26,6.9s-0.063,3.1-0.12,6.9c-0.068,3.8-0.33,4.2-0.33,4.2s-0.068,2.5-1.7,2.4c-1.6-0.13-1.3-2.5-1.3-2.5-0.73-0.99-0.48-2.7-0.6-4.2-0.13-1.5-0.4-3.4-0.46-6.2-0.067-2.8,0.33-6.7-0.2-9.4-0.54-2.7-1.2-8-1.3-8.9-0.13-0.92-0.8-1.3-1.2-1.8-0.39-0.6-0.2-6,0.3-10,0.5-4.4,0.39-7.3,1.5-10,1.1-2.8,3.5-11,5.4-19,1.9-8.7,3-22,4.3-29,1.3-7.2,1.9-10,0.8-14-1.1-3.4-3.1-4.1-7.5-12-4.4-8.2-5.1-12-11-19-6.4-7-8.4-6.6-13-12-3.9-5.1-4.8-6.8-7.3-11-0.35,0.017-0.65,0.029-0.86,0.029-0.75,0-1.7,0.039-2.7,0.14-0.07,0.12-0.24,0.3-0.68,0.34-0.12,0.019-0.23-0.071-0.35-0.21-0.27,0.039-0.53,0.097-0.79,0.15,0.17,1.2,0.31,2.4,0.41,3.6,0.053,0.65,0.12,1.6,0.17,2.7,0.49,0.31,0.97,0.65,1.4,1.1,2.2,2,4.1,4.8,5.6,5.7,0.71,0.44,1.5,1.4,2.3,2.4,1.5,0.84,3.3,2,5,3.4-1.1-1.6-2.1-2.9-3.1-4.4-2.4-3.9-3.2-6-3.2-6s1,2,2.7,4.8c1.2,2,2.8,3.9,4.4,6.3,2.2,2,3.3,4.9,3.9,7.5,0.072,0.12,0.14,0.23,0.22,0.35-0.014-2.5-0.46-5.3-2-7.5-2.7-4-6.3-7.3-6.4-7.3,0,0,3.8,3.2,6.5,7.2,1.6,2.3,2,5.4,2,8,0.59,1.2,1.1,2.7,1.4,4.9,0.28,1.9,0.24,3.8,0.078,5.3,0.062,0.46,0.12,0.87,0.16,1.2,0.79,0.82,2,2.4,1.7,4.2-0.17,0.94-0.77,1.6-1.5,2-0.16,1-0.37,2.5-0.66,3.4-0.46,1.5-1.8,2.5-1.8,2.5s0.063,2.3-1.9,4.3c-1.9,2.1-4.4,4.2-5.3,4.6-0.93,0.46-3,1.4-3,1.4s-1.1,0.76-1.8,1.1c-0.67,0.33-1.5,0.51-2.2,0.62-0.45,0.067-1.1-0.32-1.3-0.38-0.19-0.07-1.3-0.33-1.5-0.28-0.2,0.075-0.79-0.52-1.3-0.59-0.53-0.067-2.3,0.068-3-0.067-0.8-0.13-3.3-1.1-3.8-1.3-0.46-0.27-1.4-0.53-1.8-0.86s-1.3-0.53-1.7-0.87c-0.46-0.32-0.93-0.66-1.3-1.1-0.4-0.46-1.1-0.73-1.5-1.1-0.4-0.34-1.2-0.73-1.3-0.93-0.13-0.2-0.86-0.33-1.1-0.92-0.26-0.6-1.3-1.3-1.5-1.6-0.19-0.27-0.86-0.4-0.86-0.73s-0.13-0.6-0.27-0.86c-0.13-0.26-1.3-2.7-2.2-3.7-0.93-1-1.3-1.9-1.5-2.1-0.21-0.21-0.3-0.66-0.32-0.84-2.2,0.33-3.5-1.5-3.9-3.9-0.41-2.7-1.4-3.4-1.6-6.3-0.12-1.2,0.16-2.7,0.52-4.1-1.2-2.4-2.5-5-3.4-7.3-2.8-6.9-3.4-11-4.2-14-0.75-2.2-1.5-2.9-1.5-2.9s0.91,0.45,1.7,1.6c0,0,0.37-2.7-0.3-5.3-0.62-2.4-1.1-5.8-3-6.6-2.6,0.42-5.4,2.3-7.7,5.4-2.8,3.8-13,9.7-17,12-3.9,2.4-7.6,7.5-13,15-5.8,7.9-11,12-12,16-1.8,4.9-1.2,8.7-3.5,24-1.6,10-3.2,15-2.8,27s-0.4,17-1.5,21c-1.1,3.6-1.8,4.8-4.5,5.7,0,0-3.1,6.5-7.3,11,0,0-1.2,3-2,4.9-0.84,1.9-1.9,3.1-2.5,4.6-0.6,1.4-1.7,3.8-2.9,4.4,0,0-1.6,2.2-2.5,1.5-0.9-0.64,0.69-2.6,0.69-2.6s-0.49-0.75,1.9-5.1c0,0,0.84-2.8,1.4-4.1,0.6-1.3,2-4.7,2.3-5.4,0.25-0.7,0.4-2.1,0.15-2.3-0.24-0.15-0.85-0.3-1.6,0.55-0.79,0.84-1.6,1.5-2.3,1.4s-1.8-0.75-1.9-1.7c-0.14-0.99,0.1-1.8,0.9-2.6,0.79-0.84,1.6-1.7,1.5-2.1-0.14-0.35-0.75-0.19-1.7,0.6-1,0.8-2.3,1.4-2.9,1.1-0.59-0.3-1-0.84-1.3-1.3-0.3-0.45-0.3-1.5,0.84-2.5,1.2-0.99,2.3-1.6,2.6-2.3,0,0-1.3-0.2-3.5,0.2s-3,0.46-3.9,0.64c-1.5,0.35-3,1.1-3.7,1.3-1.2,0.35-1.5-0.051-1.5-0.051s-1.1,0.64-1.5,0.45c-0.4-0.2-1-0.85,0-1.7,0.98-0.89,1.7-0.99,1.7-0.99s0.24-0.63,2-1.3c1.3-0.5,2.3-0.6,4-1.2s2.9-0.7,4-0.99c1.1-0.3,1.8-0.45,2.9-1.6s2.1-2.8,3.8-4.6,4-2.7,4.7-4.1c0.74-1.4,0.74-5.5,0.74-11,0-5.7-0.84-17-0.45-26,0.4-8.6,0.79-20,0.84-23,0.05-2.3,0.45-2.8,1.5-4.4s4-4.6,6.9-12c2.9-7.3,6.5-15,12-23,5.9-8.2,11-13,20-27,2.7-4.2,5.2-8.4,7.3-12,2.8-7,5.3-11,8.7-17,1.2-2.1,1.9-3.7,2.5-5.3-0.05,0.058-0.45,0.5-0.45-0.48,0-1.1,1.7-10,2.4-17,0.73-6.6,2.7-16,3.5-26,0.79-10-0.27-14,3.3-17,3.6-3.6,5.4-4.4,6.1-4.9,0.66-0.53,1.7,1.1,1.7,1.1l1.2-1.5s-1.7-11-0.66-26c1.1-15,0.39-30,2.4-38,2-8.2,3.1-11,4.4-14,0.91-2.3,1.1-4.3,1.3-4.8,0.17-0.43,3.5-0.27,9.5,0.36,0.77-2.9,1.3-5.2,1.2-6.9-0.14-4.9-2.1-9.3-4-13-1.9-4-10-19-12-39-1.7-20-1.2-29-3.2-33-2-4.2-2.1-4.9-2-7.7,0.13-2.8-1.5-7.8-3.2-11,0,0-0.92,0.28-1.5-0.27-0.56-0.54-0.56-1.1-0.56-1.1s-0.74-0.25-1.1-0.49c-0.34-0.25-0.55-0.75-0.55-0.75s-0.45-0.2-0.64-0.4c-0.2-0.19-0.25-0.65-0.25-0.65s-0.4-0.24-0.65-0.49-0.21-1.1-0.21-1.1-0.44-1.2,0.66-2.5,3.2-1.9,5.8-1.6c2.6,0.25,5.7,0.25,7.5,0.21,1.8-0.058,4.5-0.7,5.7,1.4s0.94,5,0.94,8.5,1.8,6.9,2.5,9.6c0.69,2.7,0.8,4.2,0.6,5.6s0.5,6.1,2.3,11c1.8,5.2,6.6,15,9.4,20,2.9,4.4,6,11,7.5,20,1.6,9.3,2.3,14,2.8,15,0.47,1,5.2,8.6,6.8,15-0.3-5.8,0.12-12,0.39-16,0.39-6.6,0.59-14,0.19-16-0.39-1.8-3.5-10-4.8-21s-1.2-18-1.7-23c-0.5-4.6-2-7-3.7-9-1.7-2.1-3-4.8-3-4.8s-1.4,0.7-2.4-1c-0.99-1.7-2-2.2-2.5-3.9-0.49-1.7-0.39-4.6,1.7-6.5,0,0,0-1.7,0.6-3.1s1.2-2.4,1.3-4.3c0.097-1.9,0-5.8,2-7.8s5.4-2.4,8.2-2c2.9,0.4,4.6,2,4.7,4.9,0.087,2.9-0.3,4.8,0.99,7.1s2.6,3.6,2,5.9c0,0-0.29,2.6-2,2.9,0,0,0.69,4.1,1.1,6.1,0.39,2,1.3,6.3,5,13,3.7,6.3,12,20,14,33,2.5,13,1.9,29,2.1,34,0.2,5.6,2.6,17,5.3,27,0.98,3.7,2.2,7.9,3.4,12,1.2,0.27,2.6,0.36,4.4,0.25,5-0.3,7.2-0.7,9.5,0.69,2.4,1.4,2.8,1.8,2.4,2.6-0.4,0.79-1.5,2.3-0.99,2.6,0.5,0.3,3.4,1.1,4.4,2.5s0.6,2.2,0.1,3.7" fill-rule="nonzero" fill="#231f20"/>
    </g>
    <g id="g3461" transform="translate(694.4966,168.1203)">
     <path id="path3463" d="m0,0c2-1.1,3-2.9,3.4-4.8-0.52,0.95-1.1,1.8-1.8,2.4-2.5,2.1-5.2,1.6-6.3,1.2-0.15,0.15-0.27,0.29-0.44,0.44-0.3,0.27-0.6,0.52-0.9,0.76,0.9,0.6,2.9,1.7,6,0m3.9-9.3,0.031-0.98c0.048-1,0.007-2-0.065-2.9-0.69,3.2-2.9,6.2-6,7.4,0,0,0.02,1.9-2.4,4.4,1.1,0.33,3.6,0.76,6-1.2,0.83-0.69,1.5-1.7,2.1-2.9,0.25-1.4,0.29-2.7,0.32-3.8m-53-51c-0.15,0.024-0.26,0.041-0.37,0.063-0.01,0.024-0.022,0.046-0.029,0.068,0.094-0.039,0.24-0.085,0.4-0.13m170,140c0.75,0.68,0.38,2.1-0.24,2.4-0.64,0.38-2.1-0.12-3.4-0.75-1.3-0.62-3.3-1.5-4.7-1.9-1.4-0.37-4.8-1.7-4.8-1.7s-0.44,1.3-0.62,2.2c0,0,2.5,1.9,4.5,3.3s3.7,2.8,4.8,3.6c1.3,0.87,2,1.6,1.8,2.5-0.19,0.94-1.4,1.6-2.2,1.3-0.76-0.26-1.9-1.1-3.3-1.9-1.4-0.75-2.3-1.5-3.1-2.1-1.3-0.88-4.6-3.1-4.6-3.1s-0.43,1.4-0.62,1.8c-0.19,0.31,1.3,2.8,2,4,0.68,1.2,2.1,3.6,3.1,4.9s1.2,2.9,1.2,2.9c0,0.57-0.12,1.4-0.37,1.7-0.26,0.25-0.69,0.44-1.3-0.12,0,0-1.2-0.38-2.7-2.3s-2.6-3-3.6-4.5-1.8-2.6-2.3-3c-0.5-0.37-3.3-1.5-4.8-2.3-1.4-0.82-2.3-0.94-2.9-0.69-0.56,0.25-1.2,1.7-1.4,2.2-0.13,0.5,0.32,3.6,0.69,4.8s1.1,3.9,0.69,5.7c-0.37,1.7-1.2,3-1.6,3.3-0.31,0.25-0.7,1.4-1,1.3-0.32-0.069-1.1-1.7-1.2-3.4l0.12-0.31s-0.63-2.7-1.1-3.9c-0.44-1.3-1.2-4.3-2.1-6.3-0.88-2.1-1.3-3.8-2.3-8-1.1-4.2-2.3-7.8-2.7-9v-0.014c-46,4-47,3-48,1s-9-16-13-26c-4-9-19-31-20-38-2-7-4-9.2-7-13-2-3.4-8-18-14-26-5-9-9.8-10-15-16-4.7-5.5-8.5-13-11-15-0.95-0.45-1.9-0.82-3-1.1-0.3,0.15-0.57,0.24-0.79,0.17-0.61-0.18-0.62-0.37-0.6-0.44-0.31-0.054-0.57-0.13-0.91-0.18,0,0,4,7.3,7.8,13,3.8,6,5.8,9.4,6.3,13,0.5,3.8-1.2,5.7-1,6.3,0.08,0.32,0.16,0.99,0.26,1.7,0.46,0.48,1.4,1.8,2.2,4.7,1.1,4,1.6,7.8,1.3,11-0.012,0.13-0.046,0.25-0.065,0.38,0.11,0.98,0.19,2.2,0.13,3.6l-0.034,0.98c-0.027,0.92-0.068,2-0.21,3.1,1.4-3.4,1.9-7.8,1.9-10-0.14-3.6-0.75-5.9-0.76-5.9,0,0,0.8,2.3,0.94,5.9,0.097,2.6-0.49,7.4-2.1,11-0.4,2.2-1.3,4.4-3.7,5.6-3.2,1.7-5.4,0.58-6.2-0.066-2.7,2.2-5.1,3.2-5.1,3.2s-1.6,2.2-3,3.5-0.72,0.46-0.12-0.26c0.58-0.73,1.4-1.8,1.4-1.8s-1.4,1.4-4.6,2.7-10,1.6-14,0.26c-4.1-1.3-6.4-3.8-6.4-3.8s-0.92-0.2-1.1-0.46c-0.13-0.26-0.33-0.79-0.33-0.79l-1-1v-1.4s-0.86-1-1.1-1.3c-0.2-0.26-0.79-0.99-0.79-0.99s-0.85-1.6-0.99-1.8c-0.13-0.2-0.46-1.5-0.46-1.5s-0.85-2.8-1.3-3.7c-0.39-0.86-0.92-2.2-0.92-2.2s-0.73-0.33-0.52-0.66c0.19-0.33,0.45-0.86,0.26-0.86s-0.33-0.33-0.39-0.59c-0.071-0.27-0.13-1.1-0.13-1.1s-0.46-3.6-0.72-4.7c-0.27-1.1-1.4-5.3-3-8.6-1.5-3.1-5.2-11-6-14-1.8,4.1-3.2,6.6-3.4,8.9-0.34,3.5,0,15,0.34,26,0.34,12-1.2,17-1.5,19-0.33,1.8,0.17,5.5-0.66,15-0.84,9.2-2.8,24-4.5,32-1.7,8.2-2,15-2.3,20-0.33,4.5-1.7,15-2.8,17-0.68,1.3-0.97,2.7-1.5,4.7,0.31,1.1,0.43,4.1-0.52,7-1.1,3.4-1.2,7.1-1.8,10-0.6,3.2-0.59,6-0.4,8.4,0.2,2.4,0.2,3,0.59,3.9,0.4,0.98,0.79,4.1,0.69,4.5-0.1,0.39-0.69-0.6-0.69-0.6s-3-0.1-4.3-3.1c-1.4-3-1.3-5.3-1.4-7.3-0.097-2-0.69-4.3-0.69-4.3s-2.1,2.2-3.4,3.8c-1.4,1.7-2.1,2.6-2.1,2.6s-1.9,3.8-2.5,5.6c-0.59,1.8-1.5,3.2-2.2,3.9-0.69,0.79-1.2,3.2-2.6,4.9-1.4,1.8-2.3,3-2.8,3-0.49-0.1-1.2-0.99-0.88-2,0,0-0.6-1.8,0.58-4.4,1.2-2.7,1.2-4,2-5.6,0.79-1.6,1.5-3.5,2.2-4.9,0.68-1.4,0.49-2.4,0.49-2.4l-0.69-2.1-0.49-0.1s-3.2,3.5-5.3,5.8c-2.2,2.3-4.6,3.7-5.7,4.9s-2,2.1-3.4,3.3c-1.5,1.3-3,1.5-3,1.5s-1.1,0.4-1.2,0c-0.096-0.39-0.096-1.6-0.096-1.6s-0.097-1.7,1.2-3,2.9-3,3.9-4c1.1-1.1,3.5-3.4,4.4-4.2,0.89-0.78,2.7-2.9,3.6-3.8,0.98-0.99,1.1-1.4,1.2-1.7,0.095-0.3-0.39-0.79-0.39-0.79s-1.9,0.69-2.7,1.7c-0.79,0.98-3.5,3.3-4.9,4.4s-3.3,2.6-4.1,3.5c-0.79,0.99-2,2.6-2.6,2.8-0.59,0.2-0.98,0.99-1.6,0.3-0.59-0.69-0.29-1.3-0.29-1.3s-0.4-0.69,0.29-2,2-2.9,2.7-3.9c0.69-1.1,2.7-3.4,4-4.6,1.4-1.2,3.8-2.9,5-3.6,1.2-0.79,1.9-1.4,2-2.1,0.1-0.69-0.099-1.5-0.69-1.7-0.6-0.19-1.3,0-2.1,0.3-0.79,0.3-2.6,1.1-3.2,1.4-0.69,0.29-1.2,0.095-2.9,1.2s-3.2,2.4-4.2,2.3c0,0-0.79,0.39-1.2,0.2-0.39-0.2-0.39-0.79,0.099-1.5,0,0,0.099-1.4,2-2.9s3-2.1,5.2-3.5c2.3-1.5,5.3-2.4,5.3-2.4s1.9-2.9,5.3-6.5,7.2-7.4,9.1-9.2c0.46-0.42,0.83-0.7,1.1-0.9,0.79-2.2,1.7-4.7,2.1-8.9,0.5-5.7,2-29,3.3-45s3-22,3-22c-0.5-9.4-2.8-20-4.8-36s0.34-19,0.16-35c-0.12-12,1.5-19,4.5-25,0.11-2.3,0.7-5.1,1.4-9.8,0.96-6.7,2.8-16,4.8-25-1.2-3.2-0.85-5.2-0.63-13,0.24-7.7-1.6-21-1.4-32,0.23-11,2.3-30,2.6-31,0.13-0.95,0.1-2.9-0.17-5.3-0.75,0.42-0.85,0.76-0.85,0.76-0.66-0.16-1.2-4.2-1.2-4.2l0.34-2.2s0.23-0.12,0.61-0.29c-1.2-4.6-4.6-7.9-6-21s-0.24-46-0.24-52c0-6.3-4.2-8.2-2.3-13,1.9-4.4-0.94-8.9-0.94-8.9s-1.4-5.1,11-8.9c1.6-0.45,4-2.6,5.3-2.9,1.4-7.3,1.7-12,2.2-16,1.1-11-0.014-23-2.3-30-2.2-7.6-2.3-23-1.6-34,0.7-12,5.9-27,6.1-33,0.19-5.5-1.7-10-1.9-14-0.22-3.4,1.3-7.9,0.82-9.6-0.46-1.7-2.4-13-3.5-16-1.1-2.9-1.7-7.1-1.8-11-0.075-4.1,0.59-4.8,0.59-4.8s0.044-2.1,0.6-4.6c0.54-2.5,2.1-2.6,2.1-2.6s0.67-0.57,1.6-2c0.97-1.5,1.9-0.47,1.9-0.47s0.7-2.9,3.2-2.3c0,0,0.7-2.9,3.9-2.4,3.2,0.52,4,5.1,3.8,7.2-0.21,2.2,2,6.3,2.4,9.8s0.74,15,0.54,20c-0.2,5.3,1.2,16,1,19-0.17,3-1.4,5.6-1.9,8.6-0.52,3-0.57,11,1.7,19,2.3,8.4,6.6,26,6.5,36-0.087,9.9-0.56,11,2.2,18,2.8,7.4,5,21,4.4,43-0.088,3.4-0.2,0.76-0.33,4.1,1.4,0.65,3.7-0.25,7-0.078,5.6,0.27,6.4,1.3,9,0.068,0.029-1.9,0.014,2.4-0.09,0.63-0.73-12-1.9-27-0.32-36,1.6-8.8,2.8-8.7,1.6-15-1.3-5.9-4-21-0.29-39s1.9-29,1.4-31c-0.49-2.1-2.9-0.34-4.1-3.3-1.2-2.9-1.6-6.3-0.38-12,1.3-5.4,2.8-12,1.5-19-1.4-7.4-1.9-8-1.1-12,0.8-4.3,3.1-9.4,3.3-12,0.2-2.5,1.4-5.8,3.2-5.7,1.8,0.063,3.7,3.1,3.7,3.1s1.6-0.1,2.7,1.1,1.6,3.5,1.6,3.5,0.84-0.58,2,1.1,1.7,4.5,1.7,4.5,0.54,3.2,1,4.7c0.45,1.6-1.1,5.7-1.8,12-0.69,5.9-1.9,9-0.99,15,0.93,6.3,2.1,8,3.1,19s13,23,14,44c1.7,21-5.6,28-4.4,35,1.2,7.2,1.5,19,5.7,34,1.1,4.2,1.6,6.3,3.1,7.5,1.9,0.36,4.1-0.14,7.6-0.3,5.4-0.23,5.7,11,5.7,11s-0.7,1.9-0.46,9.8c0.23,7.9,0.23,24-1.2,36s-2.3,9.3-2.3,15c0,6.1-3.3,13-3.3,14,0,0.7,0.93,8.6-1.4,14-0.68,1.4-1.2,2.5-1.6,3.4-0.11,0.49-0.27,1.2-0.37,1.9-0.16,1.2,0.17,1.7,0.84,3,0.68,1.3-1,1.3-1,1.3s-0.24-0.34-0.68-0.77c0.007,0.37,0.012,0.74,0.036,1.2,0.23,4.7,1.6,6.5,2.1,12,0.46,5.1-0.71,14-1.3,23-0.58,9.4-3.2,15-3.2,15s1.6,4.1,2.2,13c0.58,8.5-2.5,13-2.5,13s0.64,2.8,0.52,5.6c-0.044,1.1-0.46,2.4-0.93,3.7-0.01,2.8-0.16,5.7-0.28,8.8,0.15,0.09,0.28,0.18,0.45,0.28,2.5,1.5,3.7,2.6,3.7,2.6s-0.35,0.53-2.8,1.9c-0.56,0.32-1,0.79-1.5,1.4,0.097,0.2,0.2,0.4,0.27,0.63,1.9,6,0.47,7.9,3.9,18,3.4,9.6,6.8,17,11,24,4.2,7.1,11,23,13,30,2.7,7.5,7.6,19,8.3,21,0.7,1.8,1.4,2.2,2.3,3.7,0.94,1.5,1.3,3,3.5,7.7s7.6,18,12,25c4,7,11,28,13,31,0.16,0.21,0.28,0.36,0.42,0.54,0.44,0.024,5.5,1.5,9,3.6s8.7,4.9,8.7,4.9,4.6-0.44,8.6,0c4,0.43,4.3,2.1,3.7,2.6-0.62,0.5-2.6,0.56-4.8,0.63-2.2,0.06-5,0.31-6.4,0.63,0,0-0.063,1.8-0.32,2.3,0,0,3,1.2,5.1,2,2.1,0.82,6.4,2.9,7.1,3.6" fill-rule="nonzero" fill="#231f20"/>
    </g>
    <g id="g3465" transform="translate(454.4969,207.3779)">
     <path id="path3467" d="m0,0c-0.92-0.34-1.6-0.34-2.2-0.57-0.63-0.23-2.6-1.2-2.6-1.2,0.11,1.1-0.97,1-0.97,1,0.51,1.9-0.51,2.5-1.4,2.9-0.86,0.4-4.3,0.57-4.7,0.63-0.4,0.05-1.1,0.57-1.1,0.57,1.6,2.1,1.9,4,1.9,4,2,2.1,2.4,3.5,2.4,3.5s1.3,0.86,2.1,2.5c0.8,1.7,0.4,2.5-0.17,3-0.57,0.46-1.8-0.51-2.5-1.3-0.69-0.74-1.7-1.4-3.7-4-1.8-2.3-4.7-5.3-6.3-7.1-0.087,0.09-0.17,0.18-0.26,0.27-1.4,1.3-2.6,0.73-2.7-0.97-0.078-1.7-0.72-3.2-1.4-4.9-0.68-1.6-2.6-3.5-2.8-4.7-0.021-0.11-0.031-0.24-0.043-0.37-0.22-0.78-0.4-1.8-0.61-3-2.9-4-12-12-16-16-3.7-3.3-5.8-3.6-13-8.7-7.6-5.1-15-13-17-16-1.2-1.6-6.4-4.9-11-8-0.005,0-0.013-0.002-0.02-0.005-0.37,0.38-0.7,0.73-0.95,1-1,1.2-0.036,3-0.089,3.3-0.097,0.57-0.75,2.2-1.3,3.5-0.57,1.3-1.6,4.1-3.8,7-0.49,0.66-0.98,1.6-1.6,2.6,0.68,1.6-0.12,3.8-0.12,3.8l-1.3,0.48s-1.2,2.4-1.4,2.6c-0.19,0.29,0-1.9-0.19-1.6-0.19,0.28-2.2,3.5-2.2,3,0-0.47,0.38-2-0.1-1.1-0.47,0.85-2.5,2.6-2.4,2.3,0.095-0.28-0.38-0.85-0.66-0.76-0.28,0.092-2.5,2-2.5,1.7,0-0.29,0.75-1.1,0.18-0.85-0.56,0.28-2.7,0.76-3,0.94-0.28,0.2-2.9,0.1-2.9,0.1s-0.37-0.15-0.81-0.36c-2.2-0.19-8.4-0.52-11-1-3.1-0.52-6.2-1.7-8.1-2.4-1.9-0.68-2.4-2.2-2.4-2.2l-1.7-1-2.2-2.2v-1.7l-1.7,0.34,1-2.1c-2.2-2.6-4.5-9.5-3.1-16,1.4-6,6.7-14,8.4-20,0.1-0.39,1-0.85,1.1-1.2,0.044-0.34,0.061-0.68,0.061-1-4.1-3.5-8-9.4-12-19-4.7-10-8.7-30-8.4-34,0.35-3.7,3.8-13,3.8-13s-1.7-6.8,2.8-12c0,0,0.7-7.9,2.8-12,0,0-2.1-13-0.7-24,0,0-3.9-3-3.9-3.8,0-0.27,0.053-1.2,0.35-2.4-0.55-0.99-1.3-2.2-2.1-3-1.6-1.6-2.9-6.3-3.4-10-0.51-4.2-1-11-1.3-15-0.24-4,1.8-9.8,2-12,0.26-2.1,0.37-4.8,0.37-4.8s-0.25-2.4-0.75-3.9c-0.51-1.5-0.89-3.9-1.4-4.8-0.5-0.89-1.1-3-1.4-4.4-0.25-1.4-1.1-4.2-0.88-5.8,0.25-1.6-0.51-3.5-1.4-4.9-0.88-1.4,0.12-3.1-0.88-5.7-1-2.5-1.8-6.1-1.8-6.1s-3.5-0.75-4.5-2.4-0.88-4.3-0.88-4.3l-1.9-1.1c-1.3-1.1-3.8-3.9-5-5.5-1.3-1.6-5.9-4.2-7.3-5.8s-10-10-16-18c-5.5-7.6-12-20-13-22-0.13-1.1-1.4-2.8-2-3.8-0.64-1-3.3-1.5-3.9-2.5-0.64-1-1.5-3.5-1.4-4,0.12-0.5-0.89,0-1.8-1.1-0.88-1.1-0.88-3.2-1.3-3.8-0.38-0.63-3.3-3.9-3.5-4.8-0.25-0.89,0.63-3.2,0.63-3.2s-1.3-1.1-2.5-1.9c-1.3-0.74-3.5-1.9-3.5-1.9-3.2-5.5-4.2-10-3.9-13,0.26-2.3-0.76-4.9,5.2-6.8,5.9-1.9,9.1,0.13,12,1,3.4,0.89,9.6,4.9,13,5.6,3,0.62,9.5,1.9,13,3.9,3.9,2,5,5.4,4.8,7.4-0.25,2-2,1.9-1.8,2.5,0.25,0.62,2.3,5.5,2.9,5.9,0.63,0.38,2.1,2.3,4.4,4.5,2.3,2.3,9.6,11,13,14,3.9,2.9,15,12,19,16,3.7,4.4,16,16,24,22,8.5,6.9,14,17,14,18,0.38,0.76,2.4-1.3,5-5.9,2.6-4.7,8.3-9,11-14,2.4-4.7,8.2-8.8,9.6-10,1.4-1.3,0.76-6.3,1.3-9.2,0.51-2.9,3.9-3.8,3.9-3.8,1.5-7.8,5.5-11,5-12-0.51-1.4-2.3-8.7-2-11,0.25-2.6,1.6-7.8,2.4-11,0.75-2.8,0.38-9.3,0.75-11,0.38-1.8-1.5-4.9-2-6.4s0.38-4.9,0.38-4.9-1-3.4-1.4-4.4c-0.38-1,0.76-3.6,0.76-3.6s0.12-1.1-0.5-2.2c-0.63-1-0.76-4.5-0.76-4.5l1.4-1.1-1.6-0.63c-1.8-6.6-0.25-10-0.25-10,0.76-2.5,2.8-5,7.6-5.5s12,1,16,1,10-1.3,19-1.3c8.3,0,11,0.5,15,2.5,3.8,2,4,5.5,2.5,9.8s-5.3,5.8-7.6,6.3-10,3-9.3,3c0.76,0,0,1.8,0,2.5,0,0.76,1,2.5,1.3,3.3,0.26,0.76,1.8,5.8,2.8,9.1s0.25,8.8,0.25,12c0,3.3,1.8,24,1.5,36-0.25,12-3,38-4,41-1,3.3-2.5,7.6-4.3,9.8-1.8,2.3-14,20-14,20s-1.3,2-2.3,3-2.8,3.3-2.8,4.3-1.3,1.3-2.8,3c-1.5,1.8-16,19-18,22-2.3,3-9.3,9.1-9.3,9.1s0.11,2.2-0.16,4.1c1.4-0.43,2-0.78,2-0.78l-1.7,4.5s3.8,1,5.1,4c1.2,3,0.7,13,0.7,20,0,0,2.3,4.9,1,16,0.38,1,0.86,2.1,1.6,3.2,2.4,3.5,4.2,1.6,8.2,20s5.2,28,5.9,30c0.11,0.3,0.25,0.63,0.38,0.99,0.39,0.24,0.79,0.49,1.2,0.76,2.8,1.7,5.2,5.7,7.2,9s3.5,5.2,3.7,5.3c0.25,0.089,2.5,0.85,5.1,1.6,2.6,0.71,4.5,1.8,6,2.7,1.5,0.92,1.6,1.9,1.3,2.4-0.34,0.56-1.5,0.31-2.6,0.092-1.1-0.21-4.7-1.3-6.1-1.7-1.3-0.43-3.8-1.2-3.9-1.3-0.083-0.061-0.21,0.43-0.24,0.95-0.027,0.52-0.46,1.4-1.4,2.1-0.92,0.68-2.3,0.22-2.9,0.56-0.51,0.34-1.1,1.7-2.7,2.1-1.6,0.43-3.3-0.28-3.3-0.28s-0.64,0.15-1.1,0.36c-0.49,0.22-1.2,0.31-1.2,0.31s-0.095,0.82,0.12,2.5,1.1,3.9,1.8,5.6c0.63,1.8,0.46,2.2,0.14,2.6-0.3,0.4-1.4,0.55-1.7,0.37-0.37-0.18-1.8-1.5-3.6-4.7s-2.9-6.7-2.9-6.7-1-0.98-1.9-2.7c-0.87-1.7-2.6-3.9-2.6-3.9-1.6,2.7-4,4.1-5.4,4.7-1.4,0.59-3.1,0.46-3.8-0.55-0.64-1-0.16-1.9,0.67-2.5,0.83-0.58,1.8-1.2,2.5-2.1,0.71-0.98,0.24-3.4,0.46-5.6s0.83-2.4,2-4.2c1-1.5,1.3-2.2,1.7-3.2-0.75-2.5-3.2-10-5.3-16-0.89-2.2-1.9-4.2-3-5.9,0.003,0.21-0.017,0.46-0.007,0.66,0.35,9.3,0.52,18-5.9,27,0,0,0,5.4-1.2,9.1l-0.18,6.8s0.24,0.26,0.62,0.68c2.7,0.52,4.7,1,5.5,1.3,1.6,0.48,2,1.9,1.7,2.8-0.21,0.7-0.46,2-0.58,3.2,7.7,5.4,19,17,19,17,4.9,3.6,13,8.3,19,17,6.1,8.4,17,24,20,27,0.6,0.63,1,1,1.3,1.4,0.032,0.005,0.063-0.003,0.092,0.002,2.6,0.4,4.6,1.7,6.9,4.6s3.8,5.5,3.8,5.5,2.3,1.1,3,2c0.68,0.92,1.5,1.9,1.5,1.9,2.2,0.8,3.5,2,3.5,2,3,0.92,3.3,2,3.4,2.9-34-57-34-57-35-57" fill-rule="nonzero" fill="#231f20"/>
    </g>
    <g id="g3469" transform="translate(668.6752,163.2665)">
     <path id="path3471" d="m0,0c4.1,5.6,6.3,12,9,22,2.9,10,6.8,35,8.6,47s3.1,15,3.9,17c0.11,0.29,0.19,0.66,0.26,1.1,0.71,0.7,1.3,1.5,1.8,2.5,4.7,9.4,7.8,15,8.2,17,0,0,0.015,0.27,0.017,0.66,1.1,0.92,3.2,2.7,3.7,3.3,0.71,0.71,2.6,1.9,3,2.2,0.44,0.28,2.3,2,3.3,3.4,1.1,1.4,1.6,2,2.2,3.4,0.56,1.3-0.71,1.8-1.1,2-0.36,0.13-1.4-0.49-2.3-1.5-0.89-0.99-3.8-3.1-4.2-3.3-0.35-0.21-2.3-1.6-2.9-2.3-0.38-0.48-2.7-2-4.4-3-0.16,0.84-0.84,3.9-2.2,4.5-1.6,0.65-3.9-0.48-3.9-0.48s-0.65,3.4-2.9,3.9c-2.3,0.48-6-0.33-6-0.33s-0.073,0.12-0.17,0.27c0.17,0.48,0.3,0.98,0.33,1.5,0.16,2.6,1.1,7.1,1.4,9.2,0.16,1,0.16,2.9,0.38,4.6,0.23,1.7,0.63,3.7,0.71,4.3,0.16,1.1,0.14,3-1.4,3.1-1.8,0.067-3-0.47-3.5-2.7-0.47-2.3-1.8-5.6-2.2-8.1-0.27-1.6-0.92-6.1-1.5-8.4-0.34-1.4-0.48-2.5-0.48-3.4-1.3-1.7-2.5-4-3.2-6-0.41-1.1-1.1-2-1.9-2.8-1.3-0.84-2.8-1.2-3.9-0.41-1.1,0.78-2.9,4.8-4.4,6.3-1.6,1.6-4,3.3-6.5,3-1.2-0.14-2.4-0.63-2.5-2l-0.42-0.43,3.6-2.9s1-1.3,1.7-2.5c0.71-1.1,2.5-3.6,3-5.9,0.41-1.9,1.7-4.5,2.8-5.8,1.4-2.7,4.1-5.9,5.4-8.9-1.4,19-1.3,15-2.3,11-1.5-7-5.3-21-9.7-30s-7-23-7-23c-1.9-5.2-3.5-10-4.2-14-0.78-1.4-1.2-2.2-1.2-2.2-9-9-15-22-17-29-0.4,0.12-0.67,0.16-0.77,0.13-0.85-0.28-6.3-8-7.1-8.2-0.84-0.28-1.7-2.8-1.7-2.8l-2.3-0.86s-1.7-1.7-2.8-3.1-3.7-4.7-4.3-5c-0.57-0.28-2.6-0.71-2.6-1.4,0-0.71,0.43-1.8-0.56-3.1-1-1.3-1.9-2.6-2.7-3.1-0.85-0.57-2-2-2.1-2.4-0.14-0.43-1.7-3.1-1.7-3.1-0.049-0.13-0.078-0.36-0.11-0.53-2.1-0.38-3.5-0.64-3.9-0.49-0.56,0.21-1.4-0.19-2.3-0.8-0.5,2.8-0.8,5.1-0.8,5.1s2.3,1,3.1,4.2c0.87,3.1,1.6,8.3,1.6,8.3s3,0.86,3.7,3,1.9,8.2,2.3,11c0.35,3.3-2.4,3-2.4,3s0.82,4.6,1.1,6.2c1.1,0.54,1.7,0.87,1.7,0.87s2,17-5.2,28c-6.8,11-21,11-22,11,1,0.06-2,2.3-5,1.9-3-0.38-4.2-1.5-4.2-1.5s-8.7-1.2-15-5.7-11-11-11-21c-7-0.9-16-2.7-19-5.9-2.8-2.8,16-6.9,21-7.9,0.78-2.1,1.5-3.3,1.5-3.3s0.092-0.082,0.28-0.24c0.23-1.9,0.42-3.1,0.42-3.1s-1.2,0.18-2.4-0.34-0.87-4.4-0.17-6.6c0.7-2.3,3.9-10,5-11,1.9-1.1,3.5,0.17,3.5,0.17s4.2-13,4-16c-0.022-0.6-0.11-1.3-0.23-2.1-2.6,1.1-5.3,1.8-7.4,2.2-3.6,4.5-6.4,12-11,14-5.5,2.8-7.6,5-7.6,5s0,3.4-0.98,3.1c-0.97-0.32-3.1-0.32-3.1-0.32s0.32,3.7-0.65,3.7-3.4,0.49-3.4,0.49-1.6,5-3.1,5-3.9,1.3-3.9,1.3-0.97,3.2-1.9,3.6c-0.18,0.063-0.53,0.058-0.93,0.004-4.3,7.7-11,16-16,21-1.1,0.78-2.3,1.6-3.6,2.5-2.2,4.5-3,6.7-3.3,8.4-0.38,2.1-6.8,22-12,38-5.2,15-9.6,26-9.6,29,0,1.5,0.061,2.9,0.007,4.2,0.35,1.7,0.84,3.8,1.4,5.1,1,2.5,3.9,4.3,4.6,6.2,0.76,1.9,1.2,5.3,2.2,6.9,0.95,1.6,3.4,3.6,3.4,3.6l2.5,1.2v0.38c1.1,1.9-0.84,3.5-3.2,3.4-2.4-0.099-5.2-1.5-6.6-2.8s-4.3-5-4.3-5-1.1-0.38-2.1,1.3c-0.95,1.7-2.8,5.9-4.4,8-0.2,0.29-0.5,0.49-0.85,0.64-0.26,0.85-0.54,1.8-0.66,2.4-0.28,1.4-0.57,3.5-1.2,5.5-0.66,2-1.5,5.6-2.1,7.5-0.56,1.9-1.9,2.1-3,1.8-1.1-0.29-1.4-1.6-1.3-2.4,0.099-0.76,0.48-2.7,0.48-2.7l0.95-6.7s0.36-3.5,0.79-5.8c-0.24-0.071-0.41-0.13-0.41-0.13s-2.6-0.57-3.4-1.6c-0.85-1-2.3-2.2-2.3-2.2l-4-0.95c-0.95-0.94-2.7-3.3-2.7-3.3s-0.52-0.13-1.1-0.48c-0.87,0.22-2.3,0.64-3.3,1.1-1.5,0.76-2.4,1.3-2.9,1.7-0.56,0.38-2.1,0.56-3.1,1.5s-2.8,2.2-3.4,2.1c-0.56-0.1-2-0.96-0.95-2.9,0.98-1.8,6-5.8,12-7.7,0.19-2.8,1.8-7.3,5.1-11,2.7-3.3,4.8-6.5,6.6-8.6,0.029-0.33,0.058-0.65,0.12-1,0.76-4.1,2.8-18,4.7-32s8.1-31,11-37c3-6.4,4.1-9.9,6.4-14,1.1-2.3,3.3-7.5,5.2-12,3.3-9.9,7.1-25,14-35-0.62-7.4,0.022-11,0.98-12,0.98-0.97,6.6-4.7,7.3-8.7,0.65-4,3.6-11,8.2-16,4.7-5.8,5.7-14,7.3-20,0.041-0.14,0.14-0.18,0.2-0.29,0.1-8.4,0.57-18,1.8-26,2-12,0.29-47-1.1-53-1.4-5.7-0.57-13-0.57-18,0-4.6-5.4-20-6.2-23-0.85-3.4-2.3-11-2.3-11s0.56,0.16,1.6,0.44c-3.2-6.8-7.8-14-9.7-18-2.4-4.9-0.35-5.2-0.35-7.7,0-2.4-5.9-14-12-25-5.6-12-9.8-26-10-29-0.35-3.1-3.1-5.6-4.9-8.4s-2.1-17-2.4-19c-0.35-1.7-4.9-4.9-6.3-7.3s0-6.6-1.1-9.4c-1-2.8-3.5-14-4.2-16-0.7-2.1-2.1-8-3.1-12-1-3.5,0.69-15,0.69-16s-2.1-4.5-2.8-12c-0.7-7.3,0.7-31,0.7-31s-3.8-2.4-8.7-8.4c-4.9-5.9-7.3-20-7.3-20l-0.35-1.4c-0.36-1.4-2.4-11,2.1-14,4.5-2.8,11-4.2,11-4.2s2.4-4.9,4.9-7.3c2.4-2.4,6.6-4.2,18-3.1,12,1,10,4.9,10,5.9,0.35,1,0,10,1.1,11,1,0.7,6.3,2.8,8,4.2,1.8,1.4,1.4,8,2.8,9.8s10,10,12,13c1.4,2.8,5.6,9.4,6.6,19,1.1,9.4,1.1,28,1.1,28s2.8,4.2,4.9,7,5.2,15,5.6,17c0.36,2.4,6.3,9.1,7.3,10,1,1.1,2.8,5.2,2.4,7.3-0.35,2.1,2.4,4.2,5.9,9.8s17,33,17,35c0.71,1.7,9.1,8,11,9.1,1.7,1.1,3.8,9.8,4.9,10,1,0.69,11-15,20-30,8.4-16,23-47,28-57,4.9-10,18-51,23-61,4.9-9.8,14-15,14-15s-1.9-4.5,1.9-8c1.6-1.4,7.7,0.31,7.7,0.31s-1.2-3.3,0.19-4.7,3.5-5.6,3.5-5.6l-1-4.9s0.35-3.8,3.1-4.9c2.8-1,10-1,18,1,7.7,2.1,11,7.3,11,7.3l8.4,4.2,1.8,3.1s-2.1,12-3.8,20c-1.8,8.4-7,12-7,12s-0.71,11-2.8,22c-2.1,10,1.4,23,1.4,26,0,2.4-3.1,4.2-4.5,5.6s-1.4,10-3.2,14c-1.7,3.8-8,17-11,28-2.8,10-10,16-10,16l-8.4,20s2.4,13-1.7,21c-4.2,8-14,34-14,34s3.5,9.4,1.4,14c-1.8,4.2-5.4,9.4-9.5,18-0.14,5-0.57,15-1.6,20-1.4,5.7-7.1,21-7.1,21s6,21,5.7,32c-0.29,10-2.6,29-0.29,55,0.37,4.2,0.58,8.4,0.68,13,0.053,0.078,0.12,0.13,0.17,0.21,6.8,10,11,24,14,28,2.9,3.4,6.5,6.5,7.4,10,0.49,2,0.41,6.6-1.3,12,3.3,5.8,6,13,7.5,25-55,25-53,30-52,35" fill-rule="nonzero" fill="#231f20"/>
    </g>
   </g>
  </g>
 </g>
</svg>
