<?xml version="1.0" encoding="utf-8"?>
<!-- Generated by IcoMoon.io -->
<!DOCTYPE svg PUBLIC "-//W3C//DTD SVG 1.1//EN" "http://www.w3.org/Graphics/SVG/1.1/DTD/svg11.dtd">
<svg version="1.1" xmlns="http://www.w3.org/2000/svg" xmlns:xlink="http://www.w3.org/1999/xlink" width="32" height="32" viewBox="0 0 32 32">
<g>
</g>
	<path d="M0 17.388c0 1.45 0.136 2.762 0.407 3.935 0.271 1.174 0.647 2.193 1.127 3.059 0.48 0.866 1.090 1.627 1.831 2.285 0.741 0.657 1.544 1.195 2.41 1.612 0.866 0.417 1.854 0.756 2.965 1.017 1.111 0.261 2.245 0.443 3.403 0.548 1.158 0.104 2.431 0.156 3.818 0.156 1.398 0 2.676-0.052 3.834-0.156 1.158-0.104 2.295-0.287 3.411-0.548 1.116-0.261 2.11-0.6 2.981-1.017 0.871-0.417 1.68-0.954 2.425-1.612 0.746-0.657 1.361-1.419 1.846-2.285 0.485-0.866 0.863-1.886 1.134-3.059 0.271-1.174 0.407-2.486 0.407-3.935 0-2.587-0.866-4.825-2.597-6.713 0.094-0.25 0.18-0.535 0.258-0.853 0.078-0.318 0.151-0.772 0.219-1.361 0.068-0.589 0.042-1.27-0.078-2.042-0.12-0.772-0.342-1.56-0.665-2.363l-0.235-0.047c-0.167-0.031-0.441-0.023-0.822 0.024s-0.824 0.141-1.33 0.282c-0.506 0.141-1.158 0.412-1.956 0.814-0.798 0.402-1.64 0.905-2.527 1.51-1.523-0.417-3.615-0.626-6.275-0.626-2.65 0-4.736 0.209-6.259 0.626-0.887-0.605-1.734-1.108-2.543-1.51-0.808-0.402-1.453-0.673-1.933-0.814-0.48-0.141-0.928-0.232-1.346-0.274-0.417-0.042-0.681-0.055-0.79-0.039-0.11 0.016-0.196 0.034-0.258 0.055-0.323 0.803-0.545 1.591-0.665 2.363-0.12 0.772-0.146 1.453-0.078 2.042 0.068 0.589 0.141 1.043 0.219 1.361 0.078 0.318 0.164 0.602 0.258 0.853-1.732 1.888-2.598 4.126-2.598 6.713zM3.928 21.315c0-1.502 0.683-2.879 2.050-4.131 0.407-0.376 0.881-0.66 1.424-0.853 0.542-0.193 1.155-0.302 1.839-0.329 0.683-0.026 1.338-0.021 1.964 0.016 0.626 0.037 1.398 0.086 2.316 0.149 0.918 0.063 1.711 0.094 2.379 0.094 0.668 0 1.46-0.031 2.378-0.094 0.918-0.063 1.69-0.112 2.316-0.149 0.626-0.037 1.28-0.042 1.964-0.016 0.683 0.026 1.296 0.136 1.839 0.329 0.542 0.193 1.017 0.477 1.424 0.853 1.367 1.231 2.050 2.608 2.050 4.131 0 0.897-0.112 1.693-0.337 2.386-0.224 0.694-0.511 1.275-0.861 1.745-0.349 0.469-0.834 0.868-1.455 1.197-0.621 0.329-1.226 0.582-1.815 0.759-0.589 0.177-1.346 0.316-2.269 0.415-0.923 0.099-1.747 0.159-2.472 0.18-0.725 0.021-1.646 0.031-2.762 0.031-1.116 0-2.037-0.010-2.762-0.031-0.725-0.021-1.549-0.081-2.472-0.18-0.923-0.099-1.68-0.237-2.269-0.415-0.589-0.177-1.194-0.43-1.815-0.759-0.621-0.329-1.106-0.728-1.455-1.197-0.349-0.469-0.636-1.051-0.861-1.745-0.224-0.694-0.336-1.489-0.336-2.386zM20 21c0-1.657 0.895-3 2-3s2 1.343 2 3c0 1.657-0.895 3-2 3-1.105 0-2-1.343-2-3zM8 21c0-1.657 0.895-3 2-3s2 1.343 2 3c0 1.657-0.895 3-2 3-1.105 0-2-1.343-2-3z" fill="#000000" />
</svg>
