<svg version="1.1" id="Layer_1" xmlns="http://www.w3.org/2000/svg" xmlns:xlink="http://www.w3.org/1999/xlink" x="0px" y="0px"
	 viewBox="0 0 266.5 233" enable-background="new 0 0 266.5 233" xml:space="preserve">
<path fill="#F4D122" d="M212,152.5c0,16.6-13.4,30-30,30c-26.3,0-135,0-135,0v-135c0-16.6,13.4-30,30-30h105c16.6,0,30,13.4,30,30
	V152.5z"/>
<g>
	<path fill="#323132" d="M142,157.5v-24.7c0-2.5,1.6-4.3,4.1-4.3h1.6c2.5,0,4.3,1.8,4.3,4.3v24.7"/>
	<path fill="#323132" d="M157,157.5v-24.7c0-2.5,1.5-4.3,4.1-4.3h1.6c2.5,0,4.3,1.8,4.3,4.3v24.7"/>
	<path fill="#323132" d="M170.5,157.6l13.2-45.8c0.7-2.4,3.2-3.8,5.6-3.1l1.6,0.5c2.4,0.7,3.8,3.2,3.1,5.6l-13.2,45.8"/>
	<path fill="#323132" d="M139.2,157.4L121.7,113c-0.9-2.3-3.6-3.5-5.9-2.5l-1.5,0.6c-2.3,0.9-3.5,3.6-2.5,5.9l17.6,44.3"/>
</g>
<g>
	<path d="M60.1,201.8h-6.8v5h8.8c0.2,1,0.5,3.4,0,5.4h-15V187h14.8c0.1,0.5,0.5,3.4,0,5.5h-8.6v3.9h6.8
		C60.3,197.4,60.7,199.9,60.1,201.8z"/>
	<path d="M75.4,196.8c7,2.5,6.4,6.5,6.4,7.7c0,5-4.6,11-17.3,6.7c0-1.3,1-4.5,1.3-5.4c2.2,0.9,4,1.4,5.6,1.4
		c3.6,0.3,5.4-3.6,1.3-4.9c-12.8-3.9-7.6-16.6,1.2-15.7c2.2,0,5.2,0.6,7,1.4c-0.1,0.8-0.6,3.4-1.4,5c-0.7-0.3-7.6-2.3-8,0.4
		C70.7,195.8,75.4,196.8,75.4,196.8z"/>
	<path d="M99,186.7c0.2,0.2,1.4,2.3,0.4,5.3c-7.1,0.9-7.7,5.2-7.7,5.2c4.4-3.8,11.6,1,11.2,6.7c0,1.4-0.6,8.6-8.9,8.7
		c-2.9,0-9.1-1.1-9.1-10.2C85.3,188.3,96.6,186.9,99,186.7z M94.1,200.5c-0.9,0-1.6,0.3-2.2,0.9c-0.6,0.6-0.8,1.4-0.8,2.6
		c0,1.2,0.3,2.2,0.8,2.8c0.5,0.6,1.2,0.9,2.1,0.9s1.6-0.3,2.1-0.9c0.6-0.6,0.9-1.5,0.9-2.7c0-1.3-0.3-2.2-0.8-2.8
		S95,200.5,94.1,200.5z"/>
	<path fill="#808284" d="M106.3,187.1c17.6-2.5,17,6,17,7.7c-0.2,4.4-2.9,6.3-3.3,6.6l5.5,10.8c-0.6,0.1-3.9,0.7-6.9,0l-5-11.5
		c0,0,3-1.4,3.2-5.3c0-4.2-4.3-3.3-4.3-3.3v20.1c-1.2,0.2-4.6,0.5-6.2,0V187.1z"/>
	<path fill="#808284" d="M126.2,199.7c0-13.1,9.1-13.1,11.1-13.1c11,0,11,11.3,11,13.1c0,12.7-9.1,13-11,13
		C135.4,212.7,126.2,212.4,126.2,199.7z M141.8,199.7c0-5.1-1.5-7.7-4.5-7.7c-3,0-4.6,2.6-4.6,7.7c0,2.6,0.4,4.5,1.1,5.7
		c0.7,1.3,1.9,1.9,3.4,1.9C140.3,207.3,141.8,204.8,141.8,199.7z"/>
	<path fill="#808284" d="M157.7,199.7c0,5,2,9.6,10.8,6.5c0.8,1.7,1.3,3.4,1.5,5.2c-0.7,0.3-18.3,6.5-18.9-11.7
		c0.8-17.7,17.3-12.4,18.6-11.9c0,1-0.4,3.3-1.5,5.2C167.8,192.8,158,188.6,157.7,199.7z"/>
	<path fill="#808284" d="M173.2,187.1c3-0.8,5.6-0.1,6.2,0v25.1c-1.2,0.2-3.7,0.5-6.2,0V187.1z M186.8,199.2l6.6,13
		c-0.4,0.1-3.8,0.7-7,0l-6.4-12.6l5.9-12.4c3.3-0.6,6.7,0,6.9,0L186.8,199.2z"/>
	<path fill="#808284" d="M205.2,196.7c7,2.5,6.4,6.5,6.4,7.7c0,5-4.6,11-17.3,6.7c0-1.3,1-4.5,1.3-5.4c2.2,0.9,4,1.4,5.6,1.4
		c3.6,0.3,5.4-3.6,1.3-4.9c-12.8-3.9-7.6-16.6,1.2-15.7c2.2,0,5.2,0.6,7,1.4c-0.1,0.8-0.6,3.4-1.4,5c-0.7-0.3-7.6-2.3-8,0.4
		C200.5,195.7,205.2,196.7,205.2,196.7z"/>
</g>
</svg>
